<?xml version="1.0" encoding="UTF-8"?>
<svg width="600" height="800" viewBox="0 0 600 800" fill="none" xmlns="http://www.w3.org/2000/svg">
  <!-- Tło urządzenia -->
  <rect width="600" height="800" rx="40" fill="#1A1A1A"/>
  
  <!-- Ekran -->
  <rect x="20" y="20" width="560" height="760" rx="32" fill="#0B0A0C"/>
  
  <!-- Nagłówek -->
  <rect x="40" y="40" width="520" height="80" rx="16" fill="#1E1E1E"/>
  <circle cx="80" cy="80" r="20" fill="#FF0080"/>
  <rect x="120" y="70" width="120" height="20" rx="4" fill="#FFFFFF"/>
  
  <!-- Saldo -->
  <rect x="40" y="140" width="520" height="120" rx="16" fill="#1E1E1E"/>
  <rect x="60" y="160" width="200" height="30" rx="4" fill="#FF0080"/>
  <rect x="60" y="200" width="300" height="40" rx="4" fill="#FFFFFF"/>
  
  <!-- Lista tokenów -->
  <rect x="40" y="280" width="520" height="480" rx="16" fill="#1E1E1E"/>
  
  <!-- Token 1 -->
  <rect x="60" y="300" width="480" height="80" rx="12" fill="#2A2A2A"/>
  <circle cx="100" cy="340" r="20" fill="#FF0080"/>
  <rect x="140" y="320" width="100" height="20" rx="4" fill="#FFFFFF"/>
  <rect x="140" y="350" width="160" height="16" rx="4" fill="#666666"/>
  <rect x="400" y="330" width="120" height="24" rx="4" fill="#FF0080"/>
  
  <!-- Token 2 -->
  <rect x="60" y="400" width="480" height="80" rx="12" fill="#2A2A2A"/>
  <circle cx="100" cy="440" r="20" fill="#7928CA"/>
  <rect x="140" y="420" width="100" height="20" rx="4" fill="#FFFFFF"/>
  <rect x="140" y="450" width="160" height="16" rx="4" fill="#666666"/>
  <rect x="400" y="430" width="120" height="24" rx="4" fill="#7928CA"/>
  
  <!-- Token 3 -->
  <rect x="60" y="500" width="480" height="80" rx="12" fill="#2A2A2A"/>
  <circle cx="100" cy="540" r="20" fill="#00FF00"/>
  <rect x="140" y="520" width="100" height="20" rx="4" fill="#FFFFFF"/>
  <rect x="140" y="550" width="160" height="16" rx="4" fill="#666666"/>
  <rect x="400" y="530" width="120" height="24" rx="4" fill="#00FF00"/>
  
  <!-- Nawigacja -->
  <rect x="40" y="780" width="520" height="60" rx="16" fill="#1E1E1E"/>
  <circle cx="120" cy="810" r="16" fill="#FF0080"/>
  <circle cx="300" cy="810" r="16" fill="#666666"/>
  <circle cx="480" cy="810" r="16" fill="#666666"/>
</svg>
