<?xml version="1.0" encoding="UTF-8"?>
<svg width="600" height="400" viewBox="0 0 600 400" fill="none" xmlns="http://www.w3.org/2000/svg">
  <!-- Laptop base -->
  <path d="M50 320H550L580 380H20L50 320Z" fill="url(#laptop-gradient)"/>
  
  <!-- Laptop screen frame -->
  <path d="M100 40C100 28.9543 108.954 20 120 20H480C491.046 20 500 28.9543 500 40V320H100V40Z" fill="url(#laptop-gradient)"/>
  
  <!-- Screen content -->
  <rect x="120" y="40" width="360" height="260" fill="#1A1A1A"/>
  
  <!-- WordPress header -->
  <rect x="120" y="40" width="360" height="60" fill="#111111"/>
  <circle cx="150" cy="70" r="15" fill="#FF007A"/>
  <rect x="280" y="60" width="40" height="20" rx="4" fill="#333333"/>
  <rect x="340" y="60" width="40" height="20" rx="4" fill="#333333"/>
  <rect x="400" y="60" width="40" height="20" rx="4" fill="#333333"/>
  
  <!-- Hero section -->
  <rect x="140" y="120" width="200" height="30" rx="4" fill="#FF007A"/>
  <rect x="140" y="160" width="150" height="20" rx="4" fill="#333333"/>
  <rect x="140" y="190" width="150" height="20" rx="4" fill="#333333"/>
  <rect x="140" y="230" width="100" height="30" rx="15" fill="#FF007A"/>
  
  <!-- Decorative elements -->
  <circle cx="400" cy="180" r="40" fill="url(#circle-gradient)" fill-opacity="0.1"/>
  <circle cx="450" cy="150" r="20" fill="url(#circle-gradient)" fill-opacity="0.1"/>
  
  <!-- Gradients -->
  <defs>
    <linearGradient id="laptop-gradient" x1="20" y1="20" x2="580" y2="380" gradientUnits="userSpaceOnUse">
      <stop offset="0%" stop-color="#2A2A2A"/>
      <stop offset="100%" stop-color="#1A1A1A"/>
    </linearGradient>
    <linearGradient id="circle-gradient" x1="0%" y1="0%" x2="100%" y2="100%">
      <stop offset="0%" stop-color="#FF007A"/>
      <stop offset="100%" stop-color="#7928CA"/>
    </linearGradient>
  </defs>
  
  <!-- Reflections -->
  <rect x="120" y="40" width="360" height="260" fill="white" fill-opacity="0.05"/>
  <path d="M50 320H550L580 380H20L50 320Z" fill="white" fill-opacity="0.05"/>
</svg>
