<?xml version="1.0" encoding="UTF-8"?>
<svg xmlns="http://www.w3.org/2000/svg" xmlns:xlink="http://www.w3.org/1999/xlink" width="px" height="px" viewBox="0 0 1086 1086" version="1.1">
<g id="surface1">
<path style="fill:none;stroke-width:2;stroke-linecap:butt;stroke-linejoin:miter;stroke:rgb(53.333336%,53.333336%,53.333336%);stroke-opacity:1;stroke-miterlimit:4;" d="M 758.739583 520.958333 C 708.838542 499.432292 657.859375 477.53125 608.380208 456.0625 C 607.125 455.520833 606.3125 454.609375 605.932292 453.328125 C 601.348958 437.958333 591.041667 426.489583 574.619792 424.328125 C 553.390625 421.541667 535.838542 438.270833 534.96875 458.802083 C 534.229167 476.208333 546.828125 491.880208 564 495.088542 C 571.130208 496.421875 576.979167 494.848958 583.708333 492.817708 C 587.651042 491.619792 591.791667 492.458333 595.598958 494.119792 C 651.96875 518.614583 708.317708 542.947917 764.661458 567.119792 C 768.317708 568.682292 771.359375 570.03125 775.171875 570.109375 C 781.302083 570.229167 785.291667 565.947917 787.567708 560.671875 C 796.463542 540.098958 805.557292 519.338542 814.848958 498.401042 C 817.161458 493.197917 817.880208 487.520833 816.458333 482.052083 C 816.135417 480.802083 815.421875 479.802083 814.317708 479.041667 C 807.0625 474.052083 793.197917 466.161458 784.5625 472.140625 C 781.901042 473.979167 779.9375 476.432292 778.671875 479.489583 C 773.135417 492.848958 767.598958 506.223958 762.0625 519.609375 C 761.802083 520.234375 761.307292 520.729167 760.682292 520.984375 C 760.057292 521.234375 759.359375 521.229167 758.739583 520.958333 " transform="matrix(0.75,0,0,0.75,0,0)"/>
<path style="fill:none;stroke-width:2;stroke-linecap:butt;stroke-linejoin:miter;stroke:rgb(53.333336%,53.333336%,53.333336%);stroke-opacity:1;stroke-miterlimit:4;" d="M 822.020833 654.119792 C 843.317708 604.239583 864.640625 553.791667 885.901042 503.838542 C 887.354167 500.432292 889.765625 498.09375 893.130208 496.817708 C 899 494.598958 904.541667 491.890625 908.239583 486.947917 C 916.458333 476 920.348958 462.46875 913.989583 449.869792 C 910.875 443.708333 906.65625 438.604167 901.328125 434.5625 C 888.96875 425.161458 870.197917 426.052083 858.161458 436.46875 C 847.03125 446.088542 842.21875 459.619792 846.869792 473.958333 C 847.75 476.682292 848.770833 479.369792 849.932292 482.03125 C 850.0625 482.328125 850.104167 482.661458 850.0625 482.989583 C 849.744792 485.416667 849.171875 487.59375 848.338542 489.520833 C 824.5625 544.932292 801.052083 599.984375 777.8125 654.682292 C 775.802083 659.411458 773.817708 664.760417 773.119792 669.609375 C 772.067708 676.890625 776.140625 679.328125 782.46875 682.151042 C 804.708333 692.036458 826.671875 701.442708 848.348958 710.369792 C 853.869792 712.640625 858.390625 713.828125 862.708333 709.5 C 868.791667 703.411458 874.041667 692.979167 873.052083 684.229167 C 872.46875 679.104167 869.072917 675.302083 862.859375 672.828125 C 848.807292 667.244792 835.447917 661.661458 822.791667 656.078125 C 822.041667 655.75 821.697917 654.875 822.020833 654.119792 " transform="matrix(0.75,0,0,0.75,0,0)"/>
<path style="fill:none;stroke-width:2;stroke-linecap:butt;stroke-linejoin:miter;stroke:rgb(53.333336%,53.333336%,53.333336%);stroke-opacity:1;stroke-miterlimit:4;" d="M 768.057292 477.078125 C 769.765625 473.135417 767.953125 468.557292 764.010417 466.848958 L 684.786458 432.567708 C 680.84375 430.859375 676.265625 432.671875 674.557292 436.619792 L 664.822917 459.119792 C 663.114583 463.0625 664.927083 467.645833 668.869792 469.348958 L 748.09375 503.630208 C 752.036458 505.338542 756.614583 503.526042 758.322917 499.583333 L 768.057292 477.078125 " transform="matrix(0.75,0,0,0.75,0,0)"/>
<path style="fill:none;stroke-width:2;stroke-linecap:butt;stroke-linejoin:miter;stroke:rgb(53.333336%,53.333336%,53.333336%);stroke-opacity:1;stroke-miterlimit:4;" d="M 664.71875 555.817708 C 642.348958 546.828125 620.25 537.8125 598.479167 528.578125 C 581.770833 521.5 576.03125 539.901042 573.270833 552.671875 C 572.932292 554.244792 573.1875 555.734375 574.052083 557.151042 C 578.447917 564.411458 584.671875 566.447917 592.0625 569.4375 C 602.015625 573.46875 612.359375 577.645833 623.098958 581.979167 C 623.932292 582.3125 624.59375 582.96875 624.9375 583.796875 C 625.286458 584.619792 625.286458 585.552083 624.9375 586.380208 C 604.526042 635.302083 584.447917 683.5625 564.697917 731.161458 C 562.359375 736.802083 561.140625 740.359375 556.510417 743.03125 C 549.875 746.854167 544.765625 751.354167 541.182292 756.520833 C 531.489583 770.479167 533.739583 788.598958 544.921875 800.859375 C 553.760417 810.541667 566.828125 814.661458 579.380208 810.78125 C 593.317708 806.46875 602.052083 797.401042 605.578125 783.578125 C 608.052083 773.869792 604.729167 764.901042 600.291667 756.119792 C 599.53125 754.619792 599.28125 752.71875 599.9375 751.140625 C 623.59375 694.208333 647.765625 635.921875 672.458333 576.291667 C 674.098958 572.302083 674.890625 566.25 672.46875 562.401042 C 670.53125 559.3125 667.947917 557.119792 664.71875 555.817708 " transform="matrix(0.75,0,0,0.75,0,0)"/>
<path style="fill:none;stroke-width:2;stroke-linecap:butt;stroke-linejoin:miter;stroke:rgb(53.333336%,53.333336%,53.333336%);stroke-opacity:1;stroke-miterlimit:4;" d="M 910.291667 578.53125 C 911.776042 575.052083 910.15625 571.03125 906.677083 569.546875 L 882.432292 559.203125 C 878.953125 557.71875 874.927083 559.333333 873.442708 562.817708 L 839.052083 643.447917 C 837.567708 646.927083 839.182292 650.953125 842.661458 652.4375 L 866.911458 662.776042 C 870.390625 664.260417 874.411458 662.645833 875.895833 659.166667 L 910.291667 578.53125 " transform="matrix(0.75,0,0,0.75,0,0)"/>
<path style="fill:none;stroke-width:2;stroke-linecap:butt;stroke-linejoin:miter;stroke:rgb(53.333336%,53.333336%,53.333336%);stroke-opacity:1;stroke-miterlimit:4;" d="M 608.354167 595.578125 C 609.796875 592.119792 608.166667 588.140625 604.708333 586.692708 L 580.28125 576.473958 C 576.817708 575.026042 572.84375 576.661458 571.395833 580.119792 L 537.427083 661.322917 C 535.979167 664.78125 537.614583 668.760417 541.072917 670.203125 L 565.5 680.421875 C 568.958333 681.869792 572.9375 680.239583 574.385417 676.78125 L 608.354167 595.578125 " transform="matrix(0.75,0,0,0.75,0,0)"/>
<path style="fill:none;stroke-width:2;stroke-linecap:butt;stroke-linejoin:miter;stroke:rgb(53.333336%,53.333336%,53.333336%);stroke-opacity:1;stroke-miterlimit:4;" d="M 687.697917 717.328125 C 687.994792 716.958333 688.5 716.828125 688.9375 717.010417 C 735.479167 736.583333 786.114583 757.864583 840.838542 780.859375 C 842.635417 781.614583 843.838542 782.885417 844.458333 784.671875 C 846.020833 789.161458 847.161458 793.640625 850.052083 797.510417 C 864.3125 816.588542 891.390625 818.302083 906.890625 799.697917 C 913.041667 792.3125 915.697917 783.098958 914.53125 773.447917 C 912.510417 756.8125 901.588542 744.1875 884.770833 741.682292 C 878.734375 740.78125 872.21875 741.755208 865.21875 744.598958 C 863.369792 745.348958 860.880208 745.770833 858.96875 744.96875 C 800.71875 720.5625 742.197917 695.984375 683.421875 671.229167 C 676.598958 668.359375 670.46875 666.3125 664.3125 671.979167 C 662.791667 673.380208 661.072917 676.364583 659.161458 680.932292 C 650.302083 702.067708 641.494792 722.958333 632.739583 743.588542 C 628.411458 753.8125 632.489583 760.979167 642.458333 764.619792 C 650.5625 767.578125 658.890625 771.947917 666.171875 764.552083 C 667.901042 762.776042 669.864583 759.270833 672.052083 754.03125 C 676.723958 742.817708 681.744792 730.854167 687.119792 718.140625 C 687.239583 717.838542 687.5 717.588542 687.697917 717.328125 " transform="matrix(0.75,0,0,0.75,0,0)"/>
<path style="fill:none;stroke-width:2;stroke-linecap:butt;stroke-linejoin:miter;stroke:rgb(53.333336%,53.333336%,53.333336%);stroke-opacity:1;stroke-miterlimit:4;" d="M 784.489583 777.078125 C 785.932292 773.635417 784.307292 769.677083 780.864583 768.234375 L 699.625 734.25 C 696.182292 732.8125 692.21875 734.432292 690.78125 737.880208 L 680.53125 762.380208 C 679.088542 765.822917 680.713542 769.786458 684.15625 771.223958 L 765.395833 805.208333 C 768.838542 806.651042 772.802083 805.026042 774.239583 801.583333 L 784.489583 777.078125 " transform="matrix(0.75,0,0,0.75,0,0)"/>
<path style="fill:none;stroke-width:2;stroke-linecap:butt;stroke-linejoin:miter;stroke:rgb(53.333336%,53.333336%,53.333336%);stroke-opacity:1;stroke-miterlimit:4;" d="M 1035.890625 930.020833 C 1046.78125 959.03125 1058.390625 989.182292 1068.869792 1017.380208 C 1069.390625 1018.786458 1070.723958 1019.71875 1072.21875 1019.729167 L 1093.21875 1019.921875 C 1095.208333 1019.9375 1097 1018.713542 1097.708333 1016.848958 C 1108.338542 988.947917 1119.125 960.583333 1130.067708 931.75 C 1131.947917 926.8125 1131.0625 922.317708 1124.739583 921.630208 C 1122.072917 921.338542 1119.395833 921.020833 1116.708333 920.6875 C 1110.25 919.880208 1105.75 921.130208 1103.520833 927.567708 C 1097.317708 945.489583 1090.979167 963.552083 1084.489583 981.75 C 1084.401042 982.010417 1084.171875 982.197917 1083.901042 982.239583 C 1083.630208 982.286458 1083.359375 982.177083 1083.1875 981.958333 C 1082.114583 980.604167 1081.265625 979.067708 1080.640625 977.338542 C 1074.927083 961.744792 1069.34375 945.895833 1063.890625 929.78125 C 1062.755208 926.427083 1061.682292 924.21875 1060.661458 923.161458 C 1058.546875 920.947917 1055.854167 920.041667 1052.588542 920.4375 C 1049.671875 920.791667 1046.625 921.052083 1043.447917 921.21875 C 1038.041667 921.510417 1033.411458 923.421875 1035.890625 930.020833 " transform="matrix(0.75,0,0,0.75,0,0)"/>
<path style="fill:none;stroke-width:2;stroke-linecap:butt;stroke-linejoin:miter;stroke:rgb(53.333336%,53.333336%,53.333336%);stroke-opacity:1;stroke-miterlimit:4;" d="M 318.067708 924.78125 L 317.911458 1016.041667 C 317.90625 1018.213542 319.661458 1019.984375 321.838542 1019.989583 L 380.359375 1020.088542 C 394.213542 1020.119792 405.463542 1008.895833 405.489583 995.020833 L 405.567708 946.119792 C 405.598958 932.244792 394.390625 920.979167 380.541667 920.947917 L 322.020833 920.848958 C 319.84375 920.84375 318.072917 922.604167 318.067708 924.78125 " transform="matrix(0.75,0,0,0.75,0,0)"/>
<path style="fill:none;stroke-width:2;stroke-linecap:butt;stroke-linejoin:miter;stroke:rgb(53.333336%,53.333336%,53.333336%);stroke-opacity:1;stroke-miterlimit:4;" d="M 514.270833 945.020833 C 514.270833 931.786458 503.541667 921.0625 490.3125 921.0625 L 451.291667 921.0625 C 438.057292 921.0625 427.328125 931.786458 427.328125 945.020833 L 427.328125 996 C 427.328125 1009.234375 438.057292 1019.958333 451.291667 1019.958333 L 490.3125 1019.958333 C 503.541667 1019.958333 514.270833 1009.234375 514.270833 996 L 514.270833 945.020833 " transform="matrix(0.75,0,0,0.75,0,0)"/>
<path style="fill:none;stroke-width:2;stroke-linecap:butt;stroke-linejoin:miter;stroke:rgb(53.333336%,53.333336%,53.333336%);stroke-opacity:1;stroke-miterlimit:4;" d="M 561.901042 966.828125 C 561.973958 966.5 562.234375 966.239583 562.567708 966.161458 C 562.901042 966.083333 563.244792 966.203125 563.458333 966.46875 C 564.588542 967.848958 565.588542 969.401042 566.458333 971.130208 C 570.114583 978.338542 573.90625 985.8125 577.838542 993.5625 C 580.697917 999.197917 587.53125 1001.520833 592.588542 997.130208 C 593.828125 996.057292 595.0625 994.098958 596.291667 991.260417 C 599.489583 983.817708 603.364583 976.208333 607.911458 968.421875 C 608.302083 967.739583 608.65625 967.369792 608.96875 967.3125 C 609.838542 967.130208 610.265625 967.484375 610.260417 968.369792 L 609.880208 1016.46875 C 609.864583 1018.703125 610.979167 1019.817708 613.21875 1019.817708 L 633.682292 1019.817708 C 634.276042 1019.817708 634.848958 1019.583333 635.265625 1019.161458 C 635.6875 1018.739583 635.921875 1018.166667 635.921875 1017.567708 L 635.71875 923.520833 C 635.71875 922.166667 634.625 921.067708 633.270833 921.067708 L 612.96875 921 C 611.046875 920.994792 609.286458 922.067708 608.401042 923.78125 C 601.666667 936.895833 595.078125 949.6875 588.640625 962.161458 C 587.578125 964.208333 585.260417 964 584.302083 962.161458 C 577.286458 948.713542 570.338542 935.4375 563.447917 922.338542 C 563 921.484375 562.114583 920.953125 561.151042 920.958333 L 539.520833 921.151042 C 538.109375 921.161458 536.96875 922.3125 536.96875 923.729167 L 536.96875 1017.5 C 536.96875 1018.166667 537.239583 1018.807292 537.713542 1019.276042 C 538.1875 1019.744792 538.833333 1020.005208 539.5 1020 L 560.46875 1019.802083 C 561.479167 1019.791667 562.296875 1018.96875 562.302083 1017.958333 C 562.380208 1003.03125 562.135417 987.270833 561.567708 970.682292 C 561.520833 969.3125 561.635417 968.03125 561.901042 966.828125 " transform="matrix(0.75,0,0,0.75,0,0)"/>
<path style="fill:none;stroke-width:2;stroke-linecap:butt;stroke-linejoin:miter;stroke:rgb(53.333336%,53.333336%,53.333336%);stroke-opacity:1;stroke-miterlimit:4;" d="M 696.328125 934.109375 C 696.625 930.302083 696.776042 926.651042 696.791667 923.161458 C 696.791667 922.598958 696.572917 922.0625 696.182292 921.666667 C 695.791667 921.270833 695.255208 921.052083 694.697917 921.052083 L 658.53125 921.052083 C 656.734375 921.052083 655.276042 922.505208 655.270833 924.302083 C 655.25 928.40625 655.270833 932.630208 655.338542 936.96875 C 655.4375 942.869792 662.729167 939.869792 662.75 945.979167 C 662.78125 963.713542 662.84375 980.302083 662.932292 995.739583 C 662.96875 1001.119792 655.890625 998.151042 655.598958 1003.28125 C 655.354167 1007.697917 655.145833 1012.255208 654.96875 1016.947917 C 654.942708 1017.708333 655.223958 1018.447917 655.755208 1018.989583 C 656.28125 1019.536458 657.010417 1019.84375 657.770833 1019.838542 L 694.447917 1019.71875 C 696.177083 1019.71875 697 1018.854167 696.921875 1017.119792 C 696.692708 1012.385417 696.286458 1007.682292 695.697917 1003 C 695.552083 1001.817708 694.848958 1000.75 693.697917 1000.328125 C 690.692708 999.229167 689.151042 997.020833 689.078125 993.708333 C 688.734375 978.822917 688.848958 963.4375 689.421875 947.5625 C 689.5625 943.708333 690.838542 941.890625 694.03125 939.880208 C 696.020833 938.619792 696.171875 936.197917 696.328125 934.109375 " transform="matrix(0.75,0,0,0.75,0,0)"/>
<path style="fill:none;stroke-width:2;stroke-linecap:butt;stroke-linejoin:miter;stroke:rgb(53.333336%,53.333336%,53.333336%);stroke-opacity:1;stroke-miterlimit:4;" d="M 742.171875 968.229167 C 743.255208 967.317708 744.223958 967.473958 745.067708 968.697917 C 756.802083 985.578125 768.427083 1002.28125 779.9375 1018.802083 C 780.34375 1019.375 781 1019.723958 781.708333 1019.729167 L 801.317708 1019.838542 C 802.765625 1019.854167 803.484375 1019.135417 803.479167 1017.682292 L 803.109375 922.729167 C 803.109375 921.833333 802.380208 921.104167 801.479167 921.098958 L 778.989583 921.03125 C 778.546875 921.026042 778.125 921.203125 777.8125 921.515625 C 777.5 921.822917 777.328125 922.25 777.328125 922.6875 C 777.364583 937.125 777.463542 950.630208 777.630208 963.208333 C 777.65625 965.348958 777.625 967.427083 777.541667 969.4375 C 777.359375 973.619792 776.078125 973.994792 773.6875 970.5625 L 739.630208 921.588542 C 739.369792 921.208333 738.932292 920.984375 738.46875 920.989583 L 718.03125 921.052083 C 717.109375 921.057292 716.364583 921.802083 716.359375 922.71875 L 716.21875 1018.020833 C 716.21875 1018.494792 716.411458 1018.953125 716.75 1019.291667 C 717.083333 1019.625 717.541667 1019.8125 718.020833 1019.8125 L 740.432292 1019.661458 C 740.979167 1019.65625 741.5 1019.432292 741.885417 1019.036458 C 742.265625 1018.645833 742.479167 1018.119792 742.46875 1017.567708 L 741.78125 969.0625 C 741.770833 968.739583 741.916667 968.432292 742.171875 968.229167 " transform="matrix(0.75,0,0,0.75,0,0)"/>
<path style="fill:none;stroke-width:2;stroke-linecap:butt;stroke-linejoin:miter;stroke:rgb(53.333336%,53.333336%,53.333336%);stroke-opacity:1;stroke-miterlimit:4;" d="M 826.010417 924 L 826.010417 1016.979167 C 826.010417 1018.677083 827.385417 1020.052083 829.078125 1020.052083 L 887.447917 1020.052083 C 901.333333 1020.052083 912.588542 1008.822917 912.588542 994.96875 L 912.588542 946.010417 C 912.588542 932.15625 901.333333 920.932292 887.447917 920.932292 L 829.078125 920.932292 C 827.385417 920.932292 826.010417 922.302083 826.010417 924 " transform="matrix(0.75,0,0,0.75,0,0)"/>
<path style="fill:none;stroke-width:2;stroke-linecap:butt;stroke-linejoin:miter;stroke:rgb(53.333336%,53.333336%,53.333336%);stroke-opacity:1;stroke-miterlimit:4;" d="M 935.369792 997.838542 C 936.260417 1008.348958 943.901042 1017.0625 954.197917 1019.28125 C 956.333333 1019.739583 960.203125 1019.947917 965.8125 1019.911458 C 983.1875 1019.770833 1000.28125 1019.75 1017.088542 1019.848958 C 1018.484375 1019.854167 1019.171875 1019.161458 1019.161458 1017.770833 L 1018.979167 1000 C 1018.96875 998.697917 1018.3125 998.052083 1017.010417 998.052083 L 963.869792 998.052083 C 962.255208 998.052083 960.947917 996.739583 960.947917 995.119792 L 960.947917 983.958333 C 960.947917 983.270833 961.223958 982.614583 961.708333 982.130208 C 962.197917 981.651042 962.854167 981.380208 963.541667 981.390625 L 1009 981.869792 C 1009.71875 981.880208 1010.416667 981.588542 1010.927083 981.0625 C 1011.442708 980.541667 1011.729167 979.822917 1011.729167 979.078125 L 1011.75 962.270833 C 1011.755208 960.625 1010.421875 959.286458 1008.770833 959.28125 L 963.651042 959.161458 C 961.8125 959.161458 960.890625 958.239583 960.890625 956.401042 L 960.869792 946.8125 C 960.869792 944.697917 962.578125 942.984375 964.6875 942.979167 L 1016.171875 942.901042 C 1017.71875 942.895833 1018.96875 941.635417 1018.96875 940.078125 L 1018.979167 924.520833 C 1018.979167 922.208333 1017.828125 921.052083 1015.520833 921.052083 L 938.96875 921.052083 C 936.786458 921.052083 935.015625 922.817708 935.010417 925 C 934.942708 949.182292 934.994792 971.96875 935.161458 993.359375 C 935.166667 994.848958 935.234375 996.338542 935.369792 997.838542 " transform="matrix(0.75,0,0,0.75,0,0)"/>
<path style="fill:none;stroke-width:2;stroke-linecap:butt;stroke-linejoin:miter;stroke:rgb(53.333336%,53.333336%,53.333336%);stroke-opacity:1;stroke-miterlimit:4;" d="M 589.848958 459.671875 C 589.848958 448.9375 581.151042 440.239583 570.421875 440.239583 C 559.6875 440.239583 550.989583 448.9375 550.989583 459.671875 C 550.989583 470.401042 559.6875 479.098958 570.421875 479.098958 C 581.151042 479.098958 589.848958 470.401042 589.848958 459.671875 " transform="matrix(0.75,0,0,0.75,0,0)"/>
<path style="fill:none;stroke-width:2;stroke-linecap:butt;stroke-linejoin:miter;stroke:rgb(53.333336%,53.333336%,53.333336%);stroke-opacity:1;stroke-miterlimit:4;" d="M 900.411458 463.71875 C 900.411458 453.104167 891.807292 444.5 881.1875 444.5 C 870.572917 444.5 861.96875 453.104167 861.96875 463.71875 C 861.96875 474.333333 870.572917 482.9375 881.1875 482.9375 C 891.807292 482.9375 900.411458 474.333333 900.411458 463.71875 " transform="matrix(0.75,0,0,0.75,0,0)"/>
<path style="fill:none;stroke-width:2;stroke-linecap:butt;stroke-linejoin:miter;stroke:rgb(53.333336%,53.333336%,53.333336%);stroke-opacity:1;stroke-miterlimit:4;" d="M 589.6875 776.119792 C 589.6875 765.484375 581.067708 756.859375 570.432292 756.859375 C 559.791667 756.859375 551.171875 765.484375 551.171875 776.119792 C 551.171875 786.755208 559.791667 795.380208 570.432292 795.380208 C 581.067708 795.380208 589.6875 786.755208 589.6875 776.119792 " transform="matrix(0.75,0,0,0.75,0,0)"/>
<path style="fill:none;stroke-width:2;stroke-linecap:butt;stroke-linejoin:miter;stroke:rgb(53.333336%,53.333336%,53.333336%);stroke-opacity:1;stroke-miterlimit:4;" d="M 898.28125 777.041667 C 898.28125 766.427083 889.677083 757.817708 879.0625 757.817708 C 868.442708 757.817708 859.838542 766.427083 859.838542 777.041667 C 859.838542 787.65625 868.442708 796.260417 879.0625 796.260417 C 889.677083 796.260417 898.28125 787.65625 898.28125 777.041667 " transform="matrix(0.75,0,0,0.75,0,0)"/>
<path style="fill:none;stroke-width:2;stroke-linecap:butt;stroke-linejoin:miter;stroke:rgb(53.333336%,53.333336%,53.333336%);stroke-opacity:1;stroke-miterlimit:4;" d="M 379.588542 944.9375 C 379.588542 943.671875 378.557292 942.651042 377.291667 942.65625 L 345.911458 942.765625 C 344.645833 942.770833 343.625 943.796875 343.630208 945.0625 L 343.807292 996.203125 C 343.8125 997.46875 344.84375 998.489583 346.109375 998.484375 L 377.489583 998.375 C 378.75 998.369792 379.776042 997.34375 379.770833 996.078125 L 379.588542 944.9375 " transform="matrix(0.75,0,0,0.75,0,0)"/>
<path style="fill:none;stroke-width:2;stroke-linecap:butt;stroke-linejoin:miter;stroke:rgb(53.333336%,53.333336%,53.333336%);stroke-opacity:1;stroke-miterlimit:4;" d="M 489.109375 944.651042 C 489.109375 943.630208 488.28125 942.802083 487.260417 942.802083 L 455 942.802083 C 453.979167 942.802083 453.151042 943.630208 453.151042 944.651042 L 453.151042 996.651042 C 453.151042 997.671875 453.979167 998.5 455 998.5 L 487.260417 998.5 C 488.28125 998.5 489.109375 997.671875 489.109375 996.651042 L 489.109375 944.651042 " transform="matrix(0.75,0,0,0.75,0,0)"/>
<path style="fill:none;stroke-width:2;stroke-linecap:butt;stroke-linejoin:miter;stroke:rgb(53.333336%,53.333336%,53.333336%);stroke-opacity:1;stroke-miterlimit:4;" d="M 851.067708 995.739583 C 851.0625 997.171875 852.21875 998.338542 853.651042 998.348958 L 884.479167 998.53125 C 885.171875 998.536458 885.838542 998.265625 886.328125 997.78125 C 886.817708 997.291667 887.098958 996.630208 887.098958 995.9375 L 887.25 945.421875 C 887.255208 944.729167 886.979167 944.0625 886.489583 943.572917 C 886.005208 943.083333 885.34375 942.8125 884.651042 942.8125 L 853.791667 942.770833 C 853.098958 942.765625 852.432292 943.041667 851.942708 943.526042 C 851.453125 944.015625 851.182292 944.677083 851.182292 945.369792 L 851.067708 995.739583 " transform="matrix(0.75,0,0,0.75,0,0)"/>
<path style=" stroke:none;fill-rule:nonzero;fill:rgb(6.666667%,6.666667%,6.666667%);fill-opacity:1;" d="M 69.839844 347.234375 C 69.808594 330.914062 69.886719 315.15625 70.90625 299.203125 C 72.101562 280.476562 80.039062 265.398438 94.726562 253.972656 C 101.496094 248.707031 108.457031 244.28125 116.011719 239.941406 C 255.871094 159.566406 386.851562 83.96875 508.949219 13.148438 C 525.789062 3.382812 544.449219 -0.59375 562.582031 6.246094 C 573.621094 10.410156 584.585938 16.613281 595.835938 23.167969 C 722.851562 97.136719 850.371094 171.023438 978.390625 244.824219 C 995.28125 254.558594 1011.046875 269.59375 1015.371094 288.960938 C 1015.878906 291.234375 1016.140625 294.230469 1016.167969 297.945312 C 1016.199219 301.558594 1016.210938 305.121094 1016.210938 308.625 C 1016.175781 463.496094 1016.160156 618.433594 1016.160156 773.4375 C 1016.160156 784.882812 1014.253906 796.125 1009.035156 806.011719 C 1001.578125 820.140625 988.289062 829.867188 974.722656 837.621094 C 850.957031 908.421875 732.421875 976.796875 619.117188 1042.746094 C 607.507812 1049.503906 596.371094 1056.996094 585.097656 1064.199219 C 575.960938 1070.039062 565.125 1075.042969 554.324219 1076.863281 C 541.140625 1079.078125 528.300781 1077.257812 515.8125 1071.398438 C 510.691406 1069.003906 505.800781 1066.320312 501.140625 1063.351562 C 487.132812 1054.441406 473.039062 1045.09375 458.78125 1036.914062 C 380.5625 992.027344 302.839844 947.300781 225.613281 902.730469 C 188.949219 881.570312 148.710938 858.070312 104.894531 832.230469 C 97.949219 828.128906 91.839844 823.246094 86.566406 817.582031 C 71.144531 801.023438 70.101562 776.878906 70.117188 755.664062 C 70.1875 622.210938 70.09375 486.070312 69.839844 347.234375 Z M 569.054688 390.71875 C 531.628906 374.574219 493.394531 358.148438 456.285156 342.046875 C 455.34375 341.640625 454.734375 340.957031 454.449219 339.996094 C 451.011719 328.46875 443.28125 319.867188 430.964844 318.246094 C 415.042969 316.15625 401.878906 328.703125 401.226562 344.101562 C 400.671875 357.15625 410.121094 368.910156 423 371.316406 C 428.347656 372.316406 432.734375 371.136719 437.78125 369.613281 C 440.738281 368.714844 443.84375 369.34375 446.699219 370.589844 C 488.976562 388.960938 531.238281 407.210938 573.496094 425.339844 C 576.238281 426.511719 578.519531 427.523438 581.378906 427.582031 C 585.976562 427.671875 588.96875 424.460938 590.675781 420.503906 C 597.347656 405.074219 604.167969 389.503906 611.136719 373.800781 C 612.871094 369.898438 613.410156 365.640625 612.34375 361.539062 C 612.101562 360.601562 611.566406 359.851562 610.738281 359.28125 C 605.296875 355.539062 594.898438 349.621094 588.421875 354.105469 C 586.425781 355.484375 584.953125 357.324219 584.003906 359.617188 C 579.851562 369.636719 575.699219 379.667969 571.546875 389.707031 C 571.351562 390.175781 570.980469 390.546875 570.511719 390.738281 C 570.042969 390.925781 569.519531 390.921875 569.054688 390.71875 Z M 616.515625 490.589844 C 632.488281 453.179688 648.480469 415.34375 664.425781 377.878906 C 665.515625 375.324219 667.324219 373.570312 669.847656 372.613281 C 674.25 370.949219 678.40625 368.917969 681.179688 365.210938 C 687.34375 357 690.261719 346.851562 685.492188 337.402344 C 683.15625 332.78125 679.992188 328.953125 675.996094 325.921875 C 666.726562 318.871094 652.648438 319.539062 643.621094 327.351562 C 635.273438 334.566406 631.664062 344.714844 635.152344 355.46875 C 635.8125 357.511719 636.578125 359.527344 637.449219 361.523438 C 637.546875 361.746094 637.578125 361.996094 637.546875 362.242188 C 637.308594 364.0625 636.878906 365.695312 636.253906 367.140625 C 618.421875 408.699219 600.789062 449.988281 583.359375 491.011719 C 581.851562 494.558594 580.363281 498.570312 579.839844 502.207031 C 579.050781 507.667969 582.105469 509.496094 586.851562 511.613281 C 603.53125 519.027344 620.003906 526.082031 636.261719 532.777344 C 640.402344 534.480469 643.792969 535.371094 647.03125 532.125 C 651.59375 527.558594 655.53125 519.734375 654.789062 513.171875 C 654.351562 509.328125 651.804688 506.476562 647.144531 504.621094 C 636.605469 500.433594 626.585938 496.246094 617.09375 492.058594 C 616.53125 491.8125 616.273438 491.15625 616.515625 490.589844 Z M 576.042969 357.808594 C 577.324219 354.851562 575.964844 351.417969 573.007812 350.136719 L 513.589844 324.425781 C 510.632812 323.144531 507.199219 324.503906 505.917969 327.464844 L 498.617188 344.339844 C 497.335938 347.296875 498.695312 350.734375 501.652344 352.011719 L 561.070312 377.722656 C 564.027344 379.003906 567.460938 377.644531 568.742188 374.6875 Z M 498.539062 416.863281 C 481.761719 410.121094 465.1875 403.359375 448.859375 396.433594 C 436.328125 391.125 432.023438 404.925781 429.953125 414.503906 C 429.699219 415.683594 429.890625 416.800781 430.539062 417.863281 C 433.835938 423.308594 438.503906 424.835938 444.046875 427.078125 C 451.511719 430.101562 459.269531 433.234375 467.324219 436.484375 C 467.949219 436.734375 468.445312 437.226562 468.703125 437.847656 C 468.964844 438.464844 468.964844 439.164062 468.703125 439.785156 C 453.394531 476.476562 438.335938 512.671875 423.523438 548.371094 C 421.769531 552.601562 420.855469 555.269531 417.382812 557.273438 C 412.40625 560.140625 408.574219 563.515625 405.886719 567.390625 C 398.617188 577.859375 400.304688 591.449219 408.691406 600.644531 C 415.320312 607.90625 425.121094 610.996094 434.535156 608.085938 C 444.988281 604.851562 451.539062 598.050781 454.183594 587.683594 C 456.039062 580.402344 453.546875 573.675781 450.21875 567.089844 C 449.648438 565.964844 449.460938 564.539062 449.953125 563.355469 C 467.695312 520.65625 485.824219 476.941406 504.34375 432.21875 C 505.574219 429.226562 506.167969 424.6875 504.351562 421.800781 C 502.898438 419.484375 500.960938 417.839844 498.539062 416.863281 Z M 682.71875 433.898438 C 683.832031 431.289062 682.617188 428.273438 680.007812 427.160156 L 661.824219 419.402344 C 659.214844 418.289062 656.195312 419.5 655.082031 422.113281 L 629.289062 482.585938 C 628.175781 485.195312 629.386719 488.214844 631.996094 489.328125 L 650.183594 497.082031 C 652.792969 498.195312 655.808594 496.984375 656.921875 494.375 Z M 456.265625 446.683594 C 457.347656 444.089844 456.125 441.105469 453.53125 440.019531 L 435.210938 432.355469 C 432.613281 431.269531 429.632812 432.496094 428.546875 435.089844 L 403.070312 495.992188 C 401.984375 498.585938 403.210938 501.570312 405.804688 502.652344 L 424.125 510.316406 C 426.71875 511.402344 429.703125 510.179688 430.789062 507.585938 Z M 515.773438 537.996094 C 515.996094 537.71875 516.375 537.621094 516.703125 537.757812 C 551.609375 552.4375 589.585938 568.398438 630.628906 585.644531 C 631.976562 586.210938 632.878906 587.164062 633.34375 588.503906 C 634.515625 591.871094 635.371094 595.230469 637.539062 598.132812 C 648.234375 612.441406 668.542969 613.726562 680.167969 599.773438 C 684.78125 594.234375 686.773438 587.324219 685.898438 580.085938 C 684.382812 567.609375 676.191406 558.140625 663.578125 556.261719 C 659.050781 555.585938 654.164062 556.316406 648.914062 558.449219 C 647.527344 559.011719 645.660156 559.328125 644.226562 558.726562 C 600.539062 540.421875 556.648438 521.988281 512.566406 503.421875 C 507.449219 501.269531 502.851562 499.734375 498.234375 503.984375 C 497.09375 505.035156 495.804688 507.273438 494.371094 510.699219 C 487.726562 526.550781 481.121094 542.21875 474.554688 557.691406 C 471.308594 565.359375 474.367188 570.734375 481.84375 573.464844 C 487.921875 575.683594 494.167969 578.960938 499.628906 573.414062 C 500.925781 572.082031 502.398438 569.453125 504.039062 565.523438 C 507.542969 557.113281 511.308594 548.140625 515.339844 538.605469 C 515.429688 538.378906 515.625 538.191406 515.773438 537.996094 Z M 588.367188 582.808594 C 589.449219 580.226562 588.230469 577.257812 585.648438 576.175781 L 524.71875 550.6875 C 522.136719 549.609375 519.164062 550.824219 518.085938 553.410156 L 510.398438 571.785156 C 509.316406 574.367188 510.535156 577.339844 513.117188 578.417969 L 574.046875 603.90625 C 576.628906 604.988281 579.601562 603.769531 580.679688 601.1875 Z M 776.917969 697.515625 C 785.085938 719.273438 793.792969 741.886719 801.652344 763.035156 C 802.042969 764.089844 803.042969 764.789062 804.164062 764.796875 L 819.914062 764.941406 C 821.40625 764.953125 822.75 764.035156 823.28125 762.636719 C 831.253906 741.710938 839.34375 720.4375 847.550781 698.8125 C 848.960938 695.109375 848.296875 691.738281 843.554688 691.222656 C 841.554688 691.003906 839.546875 690.765625 837.53125 690.515625 C 832.6875 689.910156 829.3125 690.847656 827.640625 695.675781 C 822.988281 709.117188 818.234375 722.664062 813.367188 736.3125 C 813.300781 736.507812 813.128906 736.648438 812.925781 736.679688 C 812.722656 736.714844 812.519531 736.632812 812.390625 736.46875 C 811.585938 735.453125 810.949219 734.300781 810.480469 733.003906 C 806.195312 721.308594 802.007812 709.421875 797.917969 697.335938 C 797.066406 694.820312 796.261719 693.164062 795.496094 692.371094 C 793.910156 690.710938 791.890625 690.03125 789.441406 690.328125 C 787.253906 690.59375 784.96875 690.789062 782.585938 690.914062 C 778.53125 691.132812 775.058594 692.566406 776.917969 697.515625 Z M 238.550781 693.585938 L 238.433594 762.03125 C 238.429688 763.660156 239.746094 764.988281 241.378906 764.992188 L 285.269531 765.066406 C 295.660156 765.089844 304.097656 756.671875 304.117188 746.265625 L 304.175781 709.589844 C 304.199219 699.183594 295.792969 690.734375 285.40625 690.710938 L 241.515625 690.636719 C 239.882812 690.632812 238.554688 691.953125 238.550781 693.585938 Z M 385.703125 708.765625 C 385.703125 698.839844 377.65625 690.796875 367.734375 690.796875 L 338.46875 690.796875 C 328.542969 690.796875 320.496094 698.839844 320.496094 708.765625 L 320.496094 747 C 320.496094 756.925781 328.542969 764.96875 338.46875 764.96875 L 367.734375 764.96875 C 377.65625 764.96875 385.703125 756.925781 385.703125 747 Z M 421.425781 725.121094 C 421.480469 724.875 421.675781 724.679688 421.925781 724.621094 C 422.175781 724.5625 422.433594 724.652344 422.59375 724.851562 C 423.441406 725.886719 424.191406 727.050781 424.84375 728.347656 C 427.585938 733.753906 430.429688 739.359375 433.378906 745.171875 C 435.523438 749.398438 440.648438 751.140625 444.441406 747.847656 C 445.371094 747.042969 446.296875 745.574219 447.21875 743.445312 C 449.617188 737.863281 452.523438 732.15625 455.933594 726.316406 C 456.226562 725.804688 456.492188 725.527344 456.726562 725.484375 C 457.378906 725.347656 457.699219 725.613281 457.695312 726.277344 L 457.410156 762.351562 C 457.398438 764.027344 458.234375 764.863281 459.914062 764.863281 L 475.261719 764.863281 C 475.707031 764.863281 476.136719 764.6875 476.449219 764.371094 C 476.765625 764.054688 476.941406 763.625 476.941406 763.175781 L 476.789062 692.640625 C 476.789062 691.625 475.96875 690.800781 474.953125 690.800781 L 459.726562 690.75 C 458.285156 690.746094 456.964844 691.550781 456.300781 692.835938 C 451.25 702.671875 446.308594 712.265625 441.480469 721.621094 C 440.683594 723.15625 438.945312 723 438.226562 721.621094 C 432.964844 711.535156 427.753906 701.578125 422.585938 691.753906 C 422.25 691.113281 421.585938 690.714844 420.863281 690.71875 L 404.640625 690.863281 C 403.582031 690.871094 402.726562 691.734375 402.726562 692.796875 L 402.726562 763.125 C 402.726562 763.625 402.929688 764.105469 403.285156 764.457031 C 403.640625 764.808594 404.125 765.003906 404.625 765 L 420.351562 764.851562 C 421.109375 764.84375 421.722656 764.226562 421.726562 763.46875 C 421.785156 752.273438 421.601562 740.453125 421.175781 728.011719 C 421.140625 726.984375 421.226562 726.023438 421.425781 725.121094 Z M 522.246094 700.582031 C 522.46875 697.726562 522.582031 694.988281 522.59375 692.371094 C 522.59375 691.949219 522.429688 691.546875 522.136719 691.25 C 521.84375 690.953125 521.441406 690.789062 521.023438 690.789062 L 493.898438 690.789062 C 492.550781 690.789062 491.457031 691.878906 491.453125 693.226562 C 491.4375 696.304688 491.453125 699.472656 491.503906 702.726562 C 491.578125 707.152344 497.046875 704.902344 497.0625 709.484375 C 497.085938 722.785156 497.132812 735.226562 497.199219 746.804688 C 497.226562 750.839844 491.917969 748.613281 491.699219 752.460938 C 491.515625 755.773438 491.359375 759.191406 491.226562 762.710938 C 491.207031 763.28125 491.417969 763.835938 491.816406 764.242188 C 492.210938 764.652344 492.757812 764.882812 493.328125 764.878906 L 520.835938 764.789062 C 522.132812 764.789062 522.75 764.140625 522.691406 762.839844 C 522.519531 759.289062 522.214844 755.761719 521.773438 752.25 C 521.664062 751.363281 521.136719 750.5625 520.273438 750.246094 C 518.019531 749.421875 516.863281 747.765625 516.808594 745.28125 C 516.550781 734.117188 516.636719 722.578125 517.066406 710.671875 C 517.171875 707.78125 518.128906 706.417969 520.523438 704.910156 C 522.015625 703.964844 522.128906 702.148438 522.246094 700.582031 Z M 556.628906 726.171875 C 557.441406 725.488281 558.167969 725.605469 558.800781 726.523438 C 567.601562 739.183594 576.320312 751.710938 584.953125 764.101562 C 585.257812 764.53125 585.75 764.792969 586.28125 764.796875 L 600.988281 764.878906 C 602.074219 764.890625 602.613281 764.351562 602.609375 763.261719 L 602.332031 692.046875 C 602.332031 691.375 601.785156 690.828125 601.109375 690.824219 L 584.242188 690.773438 C 583.910156 690.769531 583.59375 690.902344 583.359375 691.136719 C 583.125 691.367188 582.996094 691.6875 582.996094 692.015625 C 583.023438 702.84375 583.097656 712.972656 583.222656 722.40625 C 583.242188 724.011719 583.21875 725.570312 583.15625 727.078125 C 583.019531 730.214844 582.058594 730.496094 580.265625 727.921875 L 554.722656 691.191406 C 554.527344 690.90625 554.199219 690.738281 553.851562 690.742188 L 538.523438 690.789062 C 537.832031 690.792969 537.273438 691.351562 537.269531 692.039062 L 537.164062 763.515625 C 537.164062 763.871094 537.308594 764.214844 537.5625 764.46875 C 537.8125 764.71875 538.15625 764.859375 538.515625 764.859375 L 555.324219 764.746094 C 555.734375 764.742188 556.125 764.574219 556.414062 764.277344 C 556.699219 763.984375 556.859375 763.589844 556.851562 763.175781 L 556.335938 726.796875 C 556.328125 726.554688 556.4375 726.324219 556.628906 726.171875 Z M 619.507812 693 L 619.507812 762.734375 C 619.507812 764.007812 620.539062 765.039062 621.808594 765.039062 L 665.585938 765.039062 C 676 765.039062 684.441406 756.617188 684.441406 746.226562 L 684.441406 709.507812 C 684.441406 699.117188 676 690.699219 665.585938 690.699219 L 621.808594 690.699219 C 620.539062 690.699219 619.507812 691.726562 619.507812 693 Z M 701.527344 748.378906 C 702.195312 756.261719 707.925781 762.796875 715.648438 764.460938 C 717.25 764.804688 720.152344 764.960938 724.359375 764.933594 C 737.390625 764.828125 750.210938 764.8125 762.816406 764.886719 C 763.863281 764.890625 764.378906 764.371094 764.371094 763.328125 L 764.234375 750 C 764.226562 749.023438 763.734375 748.539062 762.757812 748.539062 L 722.902344 748.539062 C 721.691406 748.539062 720.710938 747.554688 720.710938 746.339844 L 720.710938 737.96875 C 720.710938 737.453125 720.917969 736.960938 721.28125 736.597656 C 721.648438 736.238281 722.140625 736.035156 722.65625 736.042969 L 756.75 736.402344 C 757.289062 736.410156 757.8125 736.191406 758.195312 735.796875 C 758.582031 735.40625 758.796875 734.867188 758.796875 734.308594 L 758.8125 721.703125 C 758.816406 720.46875 757.816406 719.464844 756.578125 719.460938 L 722.738281 719.371094 C 721.359375 719.371094 720.667969 718.679688 720.667969 717.300781 L 720.652344 710.109375 C 720.652344 708.523438 721.933594 707.238281 723.515625 707.234375 L 762.128906 707.175781 C 763.289062 707.171875 764.226562 706.226562 764.226562 705.058594 L 764.234375 693.390625 C 764.234375 691.65625 763.371094 690.789062 761.640625 690.789062 L 704.226562 690.789062 C 702.589844 690.789062 701.261719 692.113281 701.257812 693.75 C 701.207031 711.886719 701.246094 728.976562 701.371094 745.019531 C 701.375 746.136719 701.425781 747.253906 701.527344 748.378906 Z M 701.527344 748.378906 "/>
<path style=" stroke:none;fill-rule:nonzero;fill:rgb(100%,100%,100%);fill-opacity:1;" d="M 456.285156 342.046875 C 493.394531 358.148438 531.628906 374.574219 569.054688 390.71875 C 569.519531 390.921875 570.042969 390.925781 570.511719 390.738281 C 570.980469 390.546875 571.351562 390.175781 571.546875 389.707031 C 575.699219 379.667969 579.851562 369.636719 584.003906 359.617188 C 584.953125 357.324219 586.425781 355.484375 588.421875 354.105469 C 594.898438 349.621094 605.296875 355.539062 610.738281 359.28125 C 611.566406 359.851562 612.101562 360.601562 612.34375 361.539062 C 613.410156 365.640625 612.871094 369.898438 611.136719 373.800781 C 604.167969 389.503906 597.347656 405.074219 590.675781 420.503906 C 588.96875 424.460938 585.976562 427.671875 581.378906 427.582031 C 578.519531 427.523438 576.238281 426.511719 573.496094 425.339844 C 531.238281 407.210938 488.976562 388.960938 446.699219 370.589844 C 443.84375 369.34375 440.738281 368.714844 437.78125 369.613281 C 432.734375 371.136719 428.347656 372.316406 423 371.316406 C 410.121094 368.910156 400.671875 357.15625 401.226562 344.101562 C 401.878906 328.703125 415.042969 316.15625 430.964844 318.246094 C 443.28125 319.867188 451.011719 328.46875 454.449219 339.996094 C 454.734375 340.957031 455.34375 341.640625 456.285156 342.046875 Z M 442.386719 344.753906 C 442.386719 336.703125 435.863281 330.179688 427.816406 330.179688 C 419.765625 330.179688 413.242188 336.703125 413.242188 344.753906 C 413.242188 352.800781 419.765625 359.324219 427.816406 359.324219 C 435.863281 359.324219 442.386719 352.800781 442.386719 344.753906 Z M 442.386719 344.753906 "/>
<path style=" stroke:none;fill-rule:nonzero;fill:rgb(100%,100%,100%);fill-opacity:1;" d="M 664.425781 377.878906 C 648.480469 415.34375 632.488281 453.179688 616.515625 490.589844 C 616.273438 491.15625 616.53125 491.8125 617.09375 492.058594 C 626.585938 496.246094 636.605469 500.433594 647.144531 504.621094 C 651.804688 506.476562 654.351562 509.328125 654.789062 513.171875 C 655.53125 519.734375 651.59375 527.558594 647.03125 532.125 C 643.792969 535.371094 640.402344 534.480469 636.261719 532.777344 C 620.003906 526.082031 603.53125 519.027344 586.851562 511.613281 C 582.105469 509.496094 579.050781 507.667969 579.839844 502.207031 C 580.363281 498.570312 581.851562 494.558594 583.359375 491.011719 C 600.789062 449.988281 618.421875 408.699219 636.253906 367.140625 C 636.878906 365.695312 637.308594 364.0625 637.546875 362.242188 C 637.578125 361.996094 637.546875 361.746094 637.449219 361.523438 C 636.578125 359.527344 635.8125 357.511719 635.152344 355.46875 C 631.664062 344.714844 635.273438 334.566406 643.621094 327.351562 C 652.648438 319.539062 666.726562 318.871094 675.996094 325.921875 C 679.992188 328.953125 683.15625 332.78125 685.492188 337.402344 C 690.261719 346.851562 687.34375 357 681.179688 365.210938 C 678.40625 368.917969 674.25 370.949219 669.847656 372.613281 C 667.324219 373.570312 665.515625 375.324219 664.425781 377.878906 Z M 675.308594 347.789062 C 675.308594 339.828125 668.855469 333.375 660.890625 333.375 C 652.929688 333.375 646.476562 339.828125 646.476562 347.789062 C 646.476562 355.75 652.929688 362.203125 660.890625 362.203125 C 668.855469 362.203125 675.308594 355.75 675.308594 347.789062 Z M 675.308594 347.789062 "/>
<path style=" stroke:none;fill-rule:nonzero;fill:rgb(100%,100%,100%);fill-opacity:1;" d="M 513.589844 324.425781 L 573.007812 350.136719 C 575.964844 351.417969 577.324219 354.851562 576.042969 357.808594 L 568.742188 374.6875 C 567.460938 377.644531 564.027344 379.003906 561.070312 377.722656 L 501.652344 352.011719 C 498.695312 350.734375 497.335938 347.296875 498.617188 344.339844 L 505.917969 327.464844 C 507.199219 324.503906 510.632812 323.144531 513.589844 324.425781 Z M 513.589844 324.425781 "/>
<path style=" stroke:none;fill-rule:nonzero;fill:rgb(6.666667%,6.666667%,6.666667%);fill-opacity:1;" d="M 442.386719 344.753906 C 442.386719 336.703125 435.863281 330.179688 427.816406 330.179688 C 419.765625 330.179688 413.242188 336.703125 413.242188 344.753906 C 413.242188 352.800781 419.765625 359.324219 427.816406 359.324219 C 435.863281 359.324219 442.386719 352.800781 442.386719 344.753906 Z M 442.386719 344.753906 "/>
<path style=" stroke:none;fill-rule:nonzero;fill:rgb(6.666667%,6.666667%,6.666667%);fill-opacity:1;" d="M 675.308594 347.789062 C 675.308594 339.828125 668.855469 333.375 660.890625 333.375 C 652.929688 333.375 646.476562 339.828125 646.476562 347.789062 C 646.476562 355.75 652.929688 362.203125 660.890625 362.203125 C 668.855469 362.203125 675.308594 355.75 675.308594 347.789062 Z M 675.308594 347.789062 "/>
<path style=" stroke:none;fill-rule:nonzero;fill:rgb(100%,100%,100%);fill-opacity:1;" d="M 448.859375 396.433594 C 465.1875 403.359375 481.761719 410.121094 498.539062 416.863281 C 500.960938 417.839844 502.898438 419.484375 504.351562 421.800781 C 506.167969 424.6875 505.574219 429.226562 504.34375 432.21875 C 485.824219 476.941406 467.695312 520.65625 449.953125 563.355469 C 449.460938 564.539062 449.648438 565.964844 450.21875 567.089844 C 453.546875 573.675781 456.039062 580.402344 454.183594 587.683594 C 451.539062 598.050781 444.988281 604.851562 434.535156 608.085938 C 425.121094 610.996094 415.320312 607.90625 408.691406 600.644531 C 400.304688 591.449219 398.617188 577.859375 405.886719 567.390625 C 408.574219 563.515625 412.40625 560.140625 417.382812 557.273438 C 420.855469 555.269531 421.769531 552.601562 423.523438 548.371094 C 438.335938 512.671875 453.394531 476.476562 468.703125 439.785156 C 468.964844 439.164062 468.964844 438.464844 468.703125 437.847656 C 468.445312 437.226562 467.949219 436.734375 467.324219 436.484375 C 459.269531 433.234375 451.511719 430.101562 444.046875 427.078125 C 438.503906 424.835938 433.835938 423.308594 430.539062 417.863281 C 429.890625 416.800781 429.699219 415.683594 429.953125 414.503906 C 432.023438 404.925781 436.328125 391.125 448.859375 396.433594 Z M 442.265625 582.089844 C 442.265625 574.113281 435.800781 567.644531 427.824219 567.644531 C 419.84375 567.644531 413.378906 574.113281 413.378906 582.089844 C 413.378906 590.066406 419.84375 596.535156 427.824219 596.535156 C 435.800781 596.535156 442.265625 590.066406 442.265625 582.089844 Z M 442.265625 582.089844 "/>
<path style=" stroke:none;fill-rule:nonzero;fill:rgb(100%,100%,100%);fill-opacity:1;" d="M 661.824219 419.402344 L 680.007812 427.160156 C 682.617188 428.273438 683.832031 431.289062 682.71875 433.898438 L 656.921875 494.375 C 655.808594 496.984375 652.792969 498.195312 650.183594 497.082031 L 631.996094 489.328125 C 629.386719 488.214844 628.175781 485.195312 629.289062 482.585938 L 655.082031 422.113281 C 656.195312 419.5 659.214844 418.289062 661.824219 419.402344 Z M 661.824219 419.402344 "/>
<path style=" stroke:none;fill-rule:nonzero;fill:rgb(100%,100%,100%);fill-opacity:1;" d="M 435.210938 432.355469 L 453.53125 440.019531 C 456.125 441.105469 457.347656 444.089844 456.265625 446.683594 L 430.789062 507.585938 C 429.703125 510.179688 426.71875 511.402344 424.125 510.316406 L 405.804688 502.652344 C 403.210938 501.570312 401.984375 498.585938 403.070312 495.992188 L 428.546875 435.089844 C 429.632812 432.496094 432.613281 431.269531 435.210938 432.355469 Z M 435.210938 432.355469 "/>
<path style=" stroke:none;fill-rule:nonzero;fill:rgb(100%,100%,100%);fill-opacity:1;" d="M 515.773438 537.996094 C 515.625 538.191406 515.429688 538.378906 515.339844 538.605469 C 511.308594 548.140625 507.542969 557.113281 504.039062 565.523438 C 502.398438 569.453125 500.925781 572.082031 499.628906 573.414062 C 494.167969 578.960938 487.921875 575.683594 481.84375 573.464844 C 474.367188 570.734375 471.308594 565.359375 474.554688 557.691406 C 481.121094 542.21875 487.726562 526.550781 494.371094 510.699219 C 495.804688 507.273438 497.09375 505.035156 498.234375 503.984375 C 502.851562 499.734375 507.449219 501.269531 512.566406 503.421875 C 556.648438 521.988281 600.539062 540.421875 644.226562 558.726562 C 645.660156 559.328125 647.527344 559.011719 648.914062 558.449219 C 654.164062 556.316406 659.050781 555.585938 663.578125 556.261719 C 676.191406 558.140625 684.382812 567.609375 685.898438 580.085938 C 686.773438 587.324219 684.78125 594.234375 680.167969 599.773438 C 668.542969 613.726562 648.234375 612.441406 637.539062 598.132812 C 635.371094 595.230469 634.515625 591.871094 633.34375 588.503906 C 632.878906 587.164062 631.976562 586.210938 630.628906 585.644531 C 589.585938 568.398438 551.609375 552.4375 516.703125 537.757812 C 516.375 537.621094 515.996094 537.71875 515.773438 537.996094 Z M 673.710938 582.78125 C 673.710938 574.820312 667.257812 568.363281 659.296875 568.363281 C 651.332031 568.363281 644.878906 574.820312 644.878906 582.78125 C 644.878906 590.742188 651.332031 597.195312 659.296875 597.195312 C 667.257812 597.195312 673.710938 590.742188 673.710938 582.78125 Z M 673.710938 582.78125 "/>
<path style=" stroke:none;fill-rule:nonzero;fill:rgb(100%,100%,100%);fill-opacity:1;" d="M 524.71875 550.6875 L 585.648438 576.175781 C 588.230469 577.257812 589.449219 580.226562 588.367188 582.808594 L 580.679688 601.1875 C 579.601562 603.769531 576.628906 604.988281 574.046875 603.90625 L 513.117188 578.417969 C 510.535156 577.339844 509.316406 574.367188 510.398438 571.785156 L 518.085938 553.410156 C 519.164062 550.824219 522.136719 549.609375 524.71875 550.6875 Z M 524.71875 550.6875 "/>
<path style=" stroke:none;fill-rule:nonzero;fill:rgb(6.666667%,6.666667%,6.666667%);fill-opacity:1;" d="M 442.265625 582.089844 C 442.265625 574.113281 435.800781 567.644531 427.824219 567.644531 C 419.84375 567.644531 413.378906 574.113281 413.378906 582.089844 C 413.378906 590.066406 419.84375 596.535156 427.824219 596.535156 C 435.800781 596.535156 442.265625 590.066406 442.265625 582.089844 Z M 442.265625 582.089844 "/>
<path style=" stroke:none;fill-rule:nonzero;fill:rgb(6.666667%,6.666667%,6.666667%);fill-opacity:1;" d="M 673.710938 582.78125 C 673.710938 574.820312 667.257812 568.363281 659.296875 568.363281 C 651.332031 568.363281 644.878906 574.820312 644.878906 582.78125 C 644.878906 590.742188 651.332031 597.195312 659.296875 597.195312 C 667.257812 597.195312 673.710938 590.742188 673.710938 582.78125 Z M 673.710938 582.78125 "/>
<path style=" stroke:none;fill-rule:nonzero;fill:rgb(100%,100%,100%);fill-opacity:1;" d="M 801.652344 763.035156 C 793.792969 741.886719 785.085938 719.273438 776.917969 697.515625 C 775.058594 692.566406 778.53125 691.132812 782.585938 690.914062 C 784.96875 690.789062 787.253906 690.59375 789.441406 690.328125 C 791.890625 690.03125 793.910156 690.710938 795.496094 692.371094 C 796.261719 693.164062 797.066406 694.820312 797.917969 697.335938 C 802.007812 709.421875 806.195312 721.308594 810.480469 733.003906 C 810.949219 734.300781 811.585938 735.453125 812.390625 736.46875 C 812.519531 736.632812 812.722656 736.714844 812.925781 736.679688 C 813.128906 736.648438 813.300781 736.507812 813.367188 736.3125 C 818.234375 722.664062 822.988281 709.117188 827.640625 695.675781 C 829.3125 690.847656 832.6875 689.910156 837.53125 690.515625 C 839.546875 690.765625 841.554688 691.003906 843.554688 691.222656 C 848.296875 691.738281 848.960938 695.109375 847.550781 698.8125 C 839.34375 720.4375 831.253906 741.710938 823.28125 762.636719 C 822.75 764.035156 821.40625 764.953125 819.914062 764.941406 L 804.164062 764.796875 C 803.042969 764.789062 802.042969 764.089844 801.652344 763.035156 Z M 801.652344 763.035156 "/>
<path style=" stroke:none;fill-rule:nonzero;fill:rgb(100%,100%,100%);fill-opacity:1;" d="M 238.550781 693.585938 C 238.554688 691.953125 239.882812 690.632812 241.515625 690.636719 L 285.40625 690.710938 C 295.792969 690.734375 304.199219 699.183594 304.175781 709.589844 L 304.117188 746.265625 C 304.097656 756.671875 295.660156 765.089844 285.269531 765.066406 L 241.378906 764.992188 C 239.746094 764.988281 238.429688 763.660156 238.433594 762.03125 Z M 284.691406 708.703125 C 284.691406 707.753906 283.917969 706.988281 282.96875 706.992188 L 259.433594 707.074219 C 258.484375 707.078125 257.71875 707.847656 257.722656 708.796875 L 257.855469 747.152344 C 257.859375 748.101562 258.632812 748.867188 259.582031 748.863281 L 283.117188 748.78125 C 284.0625 748.777344 284.832031 748.007812 284.828125 747.058594 Z M 284.691406 708.703125 "/>
<path style=" stroke:none;fill-rule:nonzero;fill:rgb(100%,100%,100%);fill-opacity:1;" d="M 385.703125 747 C 385.703125 756.925781 377.65625 764.96875 367.734375 764.96875 L 338.46875 764.96875 C 328.542969 764.96875 320.496094 756.925781 320.496094 747 L 320.496094 708.765625 C 320.496094 698.839844 328.542969 690.796875 338.46875 690.796875 L 367.734375 690.796875 C 377.65625 690.796875 385.703125 698.839844 385.703125 708.765625 Z M 366.832031 708.488281 C 366.832031 707.722656 366.210938 707.101562 365.445312 707.101562 L 341.25 707.101562 C 340.484375 707.101562 339.863281 707.722656 339.863281 708.488281 L 339.863281 747.488281 C 339.863281 748.253906 340.484375 748.875 341.25 748.875 L 365.445312 748.875 C 366.210938 748.875 366.832031 748.253906 366.832031 747.488281 Z M 366.832031 708.488281 "/>
<path style=" stroke:none;fill-rule:nonzero;fill:rgb(100%,100%,100%);fill-opacity:1;" d="M 421.425781 725.121094 C 421.226562 726.023438 421.140625 726.984375 421.175781 728.011719 C 421.601562 740.453125 421.785156 752.273438 421.726562 763.46875 C 421.722656 764.226562 421.109375 764.84375 420.351562 764.851562 L 404.625 765 C 404.125 765.003906 403.640625 764.808594 403.285156 764.457031 C 402.929688 764.105469 402.726562 763.625 402.726562 763.125 L 402.726562 692.796875 C 402.726562 691.734375 403.582031 690.871094 404.640625 690.863281 L 420.863281 690.71875 C 421.585938 690.714844 422.25 691.113281 422.585938 691.753906 C 427.753906 701.578125 432.964844 711.535156 438.226562 721.621094 C 438.945312 723 440.683594 723.15625 441.480469 721.621094 C 446.308594 712.265625 451.25 702.671875 456.300781 692.835938 C 456.964844 691.550781 458.285156 690.746094 459.726562 690.75 L 474.953125 690.800781 C 475.96875 690.800781 476.789062 691.625 476.789062 692.640625 L 476.941406 763.175781 C 476.941406 763.625 476.765625 764.054688 476.449219 764.371094 C 476.136719 764.6875 475.707031 764.863281 475.261719 764.863281 L 459.914062 764.863281 C 458.234375 764.863281 457.398438 764.027344 457.410156 762.351562 L 457.695312 726.277344 C 457.699219 725.613281 457.378906 725.347656 456.726562 725.484375 C 456.492188 725.527344 456.226562 725.804688 455.933594 726.316406 C 452.523438 732.15625 449.617188 737.863281 447.21875 743.445312 C 446.296875 745.574219 445.371094 747.042969 444.441406 747.847656 C 440.648438 751.140625 435.523438 749.398438 433.378906 745.171875 C 430.429688 739.359375 427.585938 733.753906 424.84375 728.347656 C 424.191406 727.050781 423.441406 725.886719 422.59375 724.851562 C 422.433594 724.652344 422.175781 724.5625 421.925781 724.621094 C 421.675781 724.679688 421.480469 724.875 421.425781 725.121094 Z M 421.425781 725.121094 "/>
<path style=" stroke:none;fill-rule:nonzero;fill:rgb(100%,100%,100%);fill-opacity:1;" d="M 522.246094 700.582031 C 522.128906 702.148438 522.015625 703.964844 520.523438 704.910156 C 518.128906 706.417969 517.171875 707.78125 517.066406 710.671875 C 516.636719 722.578125 516.550781 734.117188 516.808594 745.28125 C 516.863281 747.765625 518.019531 749.421875 520.273438 750.246094 C 521.136719 750.5625 521.664062 751.363281 521.773438 752.25 C 522.214844 755.761719 522.519531 759.289062 522.691406 762.839844 C 522.75 764.140625 522.132812 764.789062 520.835938 764.789062 L 493.328125 764.878906 C 492.757812 764.882812 492.210938 764.652344 491.816406 764.242188 C 491.417969 763.835938 491.207031 763.28125 491.226562 762.710938 C 491.359375 759.191406 491.515625 755.773438 491.699219 752.460938 C 491.917969 748.613281 497.226562 750.839844 497.199219 746.804688 C 497.132812 735.226562 497.085938 722.785156 497.0625 709.484375 C 497.046875 704.902344 491.578125 707.152344 491.503906 702.726562 C 491.453125 699.472656 491.4375 696.304688 491.453125 693.226562 C 491.457031 691.878906 492.550781 690.789062 493.898438 690.789062 L 521.023438 690.789062 C 521.441406 690.789062 521.84375 690.953125 522.136719 691.25 C 522.429688 691.546875 522.59375 691.949219 522.59375 692.371094 C 522.582031 694.988281 522.46875 697.726562 522.246094 700.582031 Z M 522.246094 700.582031 "/>
<path style=" stroke:none;fill-rule:nonzero;fill:rgb(100%,100%,100%);fill-opacity:1;" d="M 556.628906 726.171875 C 556.4375 726.324219 556.328125 726.554688 556.335938 726.796875 L 556.851562 763.175781 C 556.859375 763.589844 556.699219 763.984375 556.414062 764.277344 C 556.125 764.574219 555.734375 764.742188 555.324219 764.746094 L 538.515625 764.859375 C 538.15625 764.859375 537.8125 764.71875 537.5625 764.46875 C 537.308594 764.214844 537.164062 763.871094 537.164062 763.515625 L 537.269531 692.039062 C 537.273438 691.351562 537.832031 690.792969 538.523438 690.789062 L 553.851562 690.742188 C 554.199219 690.738281 554.527344 690.90625 554.722656 691.191406 L 580.265625 727.921875 C 582.058594 730.496094 583.019531 730.214844 583.15625 727.078125 C 583.21875 725.570312 583.242188 724.011719 583.222656 722.40625 C 583.097656 712.972656 583.023438 702.84375 582.996094 692.015625 C 582.996094 691.6875 583.125 691.367188 583.359375 691.136719 C 583.59375 690.902344 583.910156 690.769531 584.242188 690.773438 L 601.109375 690.824219 C 601.785156 690.828125 602.332031 691.375 602.332031 692.046875 L 602.609375 763.261719 C 602.613281 764.351562 602.074219 764.890625 600.988281 764.878906 L 586.28125 764.796875 C 585.75 764.792969 585.257812 764.53125 584.953125 764.101562 C 576.320312 751.710938 567.601562 739.183594 558.800781 726.523438 C 558.167969 725.605469 557.441406 725.488281 556.628906 726.171875 Z M 556.628906 726.171875 "/>
<path style=" stroke:none;fill-rule:nonzero;fill:rgb(100%,100%,100%);fill-opacity:1;" d="M 619.507812 693 C 619.507812 691.726562 620.539062 690.699219 621.808594 690.699219 L 665.585938 690.699219 C 676 690.699219 684.441406 699.117188 684.441406 709.507812 L 684.441406 746.226562 C 684.441406 756.617188 676 765.039062 665.585938 765.039062 L 621.808594 765.039062 C 620.539062 765.039062 619.507812 764.007812 619.507812 762.734375 Z M 638.300781 746.804688 C 638.296875 747.878906 639.164062 748.753906 640.238281 748.761719 L 663.359375 748.898438 C 663.878906 748.902344 664.378906 748.699219 664.746094 748.335938 C 665.113281 747.96875 665.324219 747.472656 665.324219 746.953125 L 665.4375 709.066406 C 665.441406 708.546875 665.234375 708.046875 664.867188 707.679688 C 664.503906 707.3125 664.007812 707.109375 663.488281 707.109375 L 640.34375 707.078125 C 639.824219 707.074219 639.324219 707.28125 638.957031 707.644531 C 638.589844 708.011719 638.386719 708.507812 638.386719 709.027344 Z M 638.300781 746.804688 "/>
<path style=" stroke:none;fill-rule:nonzero;fill:rgb(100%,100%,100%);fill-opacity:1;" d="M 701.527344 748.378906 C 701.425781 747.253906 701.375 746.136719 701.371094 745.019531 C 701.246094 728.976562 701.207031 711.886719 701.257812 693.75 C 701.261719 692.113281 702.589844 690.789062 704.226562 690.789062 L 761.640625 690.789062 C 763.371094 690.789062 764.234375 691.65625 764.234375 693.390625 L 764.226562 705.058594 C 764.226562 706.226562 763.289062 707.171875 762.128906 707.175781 L 723.515625 707.234375 C 721.933594 707.238281 720.652344 708.523438 720.652344 710.109375 L 720.667969 717.300781 C 720.667969 718.679688 721.359375 719.371094 722.738281 719.371094 L 756.578125 719.460938 C 757.816406 719.464844 758.816406 720.46875 758.8125 721.703125 L 758.796875 734.308594 C 758.796875 734.867188 758.582031 735.40625 758.195312 735.796875 C 757.8125 736.191406 757.289062 736.410156 756.75 736.402344 L 722.65625 736.042969 C 722.140625 736.035156 721.648438 736.238281 721.28125 736.597656 C 720.917969 736.960938 720.710938 737.453125 720.710938 737.96875 L 720.710938 746.339844 C 720.710938 747.554688 721.691406 748.539062 722.902344 748.539062 L 762.757812 748.539062 C 763.734375 748.539062 764.226562 749.023438 764.234375 750 L 764.371094 763.328125 C 764.378906 764.371094 763.863281 764.890625 762.816406 764.886719 C 750.210938 764.8125 737.390625 764.828125 724.359375 764.933594 C 720.152344 764.960938 717.25 764.804688 715.648438 764.460938 C 707.925781 762.796875 702.195312 756.261719 701.527344 748.378906 Z M 701.527344 748.378906 "/>
<path style=" stroke:none;fill-rule:nonzero;fill:rgb(6.666667%,6.666667%,6.666667%);fill-opacity:1;" d="M 259.433594 707.074219 L 282.96875 706.992188 C 283.917969 706.988281 284.691406 707.753906 284.691406 708.703125 L 284.828125 747.058594 C 284.832031 748.007812 284.0625 748.777344 283.117188 748.78125 L 259.582031 748.863281 C 258.632812 748.867188 257.859375 748.101562 257.855469 747.152344 L 257.722656 708.796875 C 257.71875 707.847656 258.484375 707.078125 259.433594 707.074219 Z M 259.433594 707.074219 "/>
<path style=" stroke:none;fill-rule:nonzero;fill:rgb(6.666667%,6.666667%,6.666667%);fill-opacity:1;" d="M 341.25 707.101562 L 365.445312 707.101562 C 366.210938 707.101562 366.832031 707.722656 366.832031 708.488281 L 366.832031 747.488281 C 366.832031 748.253906 366.210938 748.875 365.445312 748.875 L 341.25 748.875 C 340.484375 748.875 339.863281 748.253906 339.863281 747.488281 L 339.863281 708.488281 C 339.863281 707.722656 340.484375 707.101562 341.25 707.101562 Z M 341.25 707.101562 "/>
<path style=" stroke:none;fill-rule:nonzero;fill:rgb(6.666667%,6.666667%,6.666667%);fill-opacity:1;" d="M 638.300781 746.804688 L 638.386719 709.027344 C 638.386719 708.507812 638.589844 708.011719 638.957031 707.644531 C 639.324219 707.28125 639.824219 707.074219 640.34375 707.078125 L 663.488281 707.109375 C 664.007812 707.109375 664.503906 707.3125 664.867188 707.679688 C 665.234375 708.046875 665.441406 708.546875 665.4375 709.066406 L 665.324219 746.953125 C 665.324219 747.472656 665.113281 747.96875 664.746094 748.335938 C 664.378906 748.699219 663.878906 748.902344 663.359375 748.898438 L 640.238281 748.761719 C 639.164062 748.753906 638.296875 747.878906 638.300781 746.804688 Z M 638.300781 746.804688 "/>
</g>
</svg>
