<?xml version="1.0" encoding="UTF-8" standalone="no"?>
<!DOCTYPE svg PUBLIC "-//W3C//DTD SVG 1.1//EN" "http://www.w3.org/Graphics/SVG/1.1/DTD/svg11.dtd">
<svg xmlns="http://www.w3.org/2000/svg" version="1.1" viewBox="0.00 0.00 1448.00 1448.00" width="1448.00" height="1448.00">
<clipPath id="clipping-path-0">
<path d="
  M 0.00 0.00
  L 1448.00 0.00
  L 1448.00 1448.00
  L 0.00 1448.00
  L 0.00 0.00
  Z"/>
</clipPath>
<g stroke-width="2.00" fill="none" stroke-linecap="butt" clip-path="url(#clipping-path-0)">
<path stroke="#888888" vector-effect="non-scaling-stroke" d="
  M 758.74 520.96
  C 708.84 499.43 657.86 477.53 608.38 456.06
  Q 606.50 455.25 605.93 453.33
  C 601.35 437.96 591.04 426.49 574.62 424.33
  C 553.39 421.54 535.84 438.27 534.97 458.80
  C 534.23 476.21 546.83 491.88 564.00 495.09
  C 571.13 496.42 576.98 494.85 583.71 492.82
  C 587.65 491.62 591.79 492.46 595.60 494.12
  Q 680.15 530.86 764.66 567.12
  C 768.32 568.68 771.36 570.03 775.17 570.11
  C 781.30 570.23 785.29 565.95 787.57 560.67
  Q 800.91 529.81 814.85 498.40
  C 817.16 493.20 817.88 487.52 816.46 482.05
  Q 815.97 480.18 814.32 479.04
  C 807.06 474.05 793.20 466.16 784.56 472.14
  Q 780.57 474.90 778.67 479.49
  Q 770.37 499.53 762.06 519.61
  A 2.51 2.51 0.0 0 1 758.74 520.96"
/>
<path stroke="#888888" vector-effect="non-scaling-stroke" d="
  M 822.02 654.12
  C 843.32 604.24 864.64 553.79 885.90 503.84
  Q 888.08 498.73 893.13 496.82
  C 899.00 494.60 904.54 491.89 908.24 486.95
  C 916.46 476.00 920.35 462.47 913.99 449.87
  Q 909.32 440.63 901.33 434.56
  C 888.97 425.16 870.20 426.05 858.16 436.47
  C 847.03 446.09 842.22 459.62 846.87 473.96
  Q 848.19 478.04 849.93 482.03
  A 1.80 1.77 -53.1 0 1 850.06 482.99
  Q 849.59 486.63 848.34 489.52
  Q 812.67 572.64 777.81 654.68
  C 775.80 659.41 773.82 664.76 773.12 669.61
  C 772.07 676.89 776.14 679.33 782.47 682.15
  Q 815.83 696.98 848.35 710.37
  C 853.87 712.64 858.39 713.83 862.71 709.50
  C 868.79 703.41 874.04 692.98 873.05 684.23
  Q 872.18 676.54 862.86 672.83
  Q 841.78 664.45 822.79 656.08
  A 1.50 1.49 -66.7 0 1 822.02 654.12"
/>
<path stroke="#888888" vector-effect="non-scaling-stroke" d="
  M 768.0595 477.0790
  A 7.78 7.78 0.0 0 0 764.0091 466.8491
  L 684.7886 432.5673
  A 7.78 7.78 0.0 0 0 674.5586 436.6176
  L 664.8205 459.1210
  A 7.78 7.78 0.0 0 0 668.8709 469.3509
  L 748.0914 503.6327
  A 7.78 7.78 0.0 0 0 758.3214 499.5824
  L 768.0595 477.0790"
/>
<path stroke="#888888" vector-effect="non-scaling-stroke" d="
  M 664.72 555.82
  C 642.35 546.83 620.25 537.81 598.48 528.58
  C 581.77 521.50 576.03 539.90 573.27 552.67
  Q 572.76 555.03 574.05 557.15
  C 578.45 564.41 584.67 566.45 592.06 569.44
  Q 606.99 575.48 623.10 581.98
  A 3.35 3.35 0.0 0 1 624.94 586.38
  Q 594.32 659.76 564.70 731.16
  C 562.36 736.80 561.14 740.36 556.51 743.03
  Q 546.56 748.77 541.18 756.52
  C 531.49 770.48 533.74 788.60 544.92 800.86
  C 553.76 810.54 566.83 814.66 579.38 810.78
  Q 600.29 804.31 605.58 783.58
  C 608.05 773.87 604.73 764.90 600.29 756.12
  C 599.53 754.62 599.28 752.72 599.94 751.14
  Q 635.42 665.74 672.46 576.29
  C 674.10 572.30 674.89 566.25 672.47 562.40
  Q 669.56 557.77 664.72 555.82"
/>
<path stroke="#888888" vector-effect="non-scaling-stroke" d="
  M 910.2902 578.5327
  A 6.85 6.85 0.0 0 0 906.6769 569.5444
  L 882.4304 559.2024
  A 6.85 6.85 0.0 0 0 873.4421 562.8157
  L 839.0498 643.4473
  A 6.85 6.85 0.0 0 0 842.6631 652.4356
  L 866.9096 662.7776
  A 6.85 6.85 0.0 0 0 875.8979 659.1643
  L 910.2902 578.5327"
/>
<path stroke="#888888" vector-effect="non-scaling-stroke" d="
  M 608.3522 595.5788
  A 6.79 6.79 0.0 0 0 604.7084 586.6945
  L 580.2796 576.4757
  A 6.79 6.79 0.0 0 0 571.3953 580.1194
  L 537.4278 661.3212
  A 6.79 6.79 0.0 0 0 541.0716 670.2055
  L 565.5004 680.4243
  A 6.79 6.79 0.0 0 0 574.3847 676.7806
  L 608.3522 595.5788"
/>
<path stroke="#888888" vector-effect="non-scaling-stroke" d="
  M 687.70 717.33
  A 1.06 1.06 0.0 0 1 688.94 717.01
  Q 758.75 746.37 840.84 780.86
  Q 843.53 781.99 844.46 784.67
  C 846.02 789.16 847.16 793.64 850.05 797.51
  C 864.31 816.59 891.39 818.30 906.89 799.70
  C 913.04 792.31 915.70 783.10 914.53 773.45
  C 912.51 756.81 901.59 744.19 884.77 741.68
  Q 875.72 740.33 865.22 744.60
  C 863.37 745.35 860.88 745.77 858.97 744.97
  Q 771.59 708.36 683.42 671.23
  C 676.60 668.36 670.47 666.31 664.31 671.98
  Q 662.03 674.08 659.16 680.93
  Q 645.87 712.64 632.74 743.59
  C 628.41 753.81 632.49 760.98 642.46 764.62
  C 650.56 767.58 658.89 771.95 666.17 764.55
  Q 668.77 761.89 672.05 754.03
  Q 679.06 737.21 687.12 718.14
  C 687.24 717.84 687.50 717.59 687.70 717.33"
/>
<path stroke="#888888" vector-effect="non-scaling-stroke" d="
  M 784.4905 777.0789
  A 6.76 6.76 0.0 0 0 780.8629 768.2338
  L 699.6242 734.2509
  A 6.76 6.76 0.0 0 0 690.7791 737.8785
  L 680.5295 762.3811
  A 6.76 6.76 0.0 0 0 684.1571 771.2262
  L 765.3958 805.2091
  A 6.76 6.76 0.0 0 0 774.2409 801.5815
  L 784.4905 777.0789"
/>
<path stroke="#888888" vector-effect="non-scaling-stroke" d="
  M 1035.89 930.02
  C 1046.78 959.03 1058.39 989.18 1068.87 1017.38
  A 3.61 3.60 80.0 0 0 1072.22 1019.73
  L 1093.22 1019.92
  A 4.77 4.76 -79.3 0 0 1097.71 1016.85
  Q 1113.65 975.00 1130.07 931.75
  C 1131.95 926.81 1131.06 922.32 1124.74 921.63
  Q 1120.74 921.19 1116.71 920.69
  C 1110.25 919.88 1105.75 921.13 1103.52 927.57
  Q 1094.22 954.45 1084.49 981.75
  A 0.75 0.75 0.0 0 1 1083.19 981.96
  Q 1081.58 979.93 1080.64 977.34
  Q 1072.07 953.95 1063.89 929.78
  Q 1062.19 924.75 1060.66 923.16
  Q 1057.49 919.84 1052.59 920.44
  Q 1048.21 920.97 1043.45 921.22
  C 1038.04 921.51 1033.41 923.42 1035.89 930.02"
/>
<path stroke="#888888" vector-effect="non-scaling-stroke" d="
  M 318.07 924.78
  L 317.91 1016.04
  A 3.94 3.94 0.0 0 0 321.84 1019.99
  L 380.36 1020.09
  A 25.12 25.08 -89.9 0 0 405.49 995.02
  L 405.57 946.12
  A 25.12 25.08 -89.9 0 0 380.54 920.95
  L 322.02 920.85
  A 3.94 3.94 0.0 0 0 318.07 924.78"
/>
<path stroke="#888888" vector-effect="non-scaling-stroke" d="
  M 514.27 945.02
  A 23.96 23.96 0.0 0 0 490.31 921.06
  L 451.29 921.06
  A 23.96 23.96 0.0 0 0 427.33 945.02
  L 427.33 996.00
  A 23.96 23.96 0.0 0 0 451.29 1019.96
  L 490.31 1019.96
  A 23.96 23.96 0.0 0 0 514.27 996.00
  L 514.27 945.02"
/>
<path stroke="#888888" vector-effect="non-scaling-stroke" d="
  M 561.90 966.83
  A 0.89 0.89 0.0 0 1 563.46 966.47
  Q 565.15 968.54 566.46 971.13
  Q 571.94 981.94 577.84 993.56
  C 580.70 999.20 587.53 1001.52 592.59 997.13
  Q 594.45 995.52 596.29 991.26
  Q 601.09 980.10 607.91 968.42
  Q 608.50 967.40 608.97 967.31
  Q 610.27 967.04 610.26 968.37
  L 609.88 1016.47
  Q 609.86 1019.82 613.22 1019.82
  L 633.68 1019.82
  A 2.24 2.24 0.0 0 0 635.92 1017.57
  L 635.72 923.52
  A 2.45 2.45 0.0 0 0 633.27 921.07
  L 612.97 921.00
  A 5.14 5.12 -76.2 0 0 608.40 923.78
  Q 598.30 943.45 588.64 962.16
  C 587.58 964.21 585.26 964.00 584.30 962.16
  Q 573.78 941.99 563.45 922.34
  A 2.58 2.58 0.0 0 0 561.15 920.96
  L 539.52 921.15
  A 2.58 2.57 89.8 0 0 536.97 923.73
  L 536.97 1017.50
  A 2.51 2.50 -0.2 0 0 539.50 1020.00
  L 560.47 1019.80
  A 1.85 1.85 0.0 0 0 562.30 1017.96
  Q 562.42 995.57 561.57 970.68
  Q 561.50 968.63 561.90 966.83"
/>
<path stroke="#888888" vector-effect="non-scaling-stroke" d="
  M 696.33 934.11
  Q 696.77 928.40 696.79 923.16
  A 2.10 2.09 -89.9 0 0 694.70 921.05
  L 658.53 921.05
  A 3.26 3.26 0.0 0 0 655.27 924.30
  Q 655.24 930.46 655.34 936.97
  C 655.44 942.87 662.73 939.87 662.75 945.98
  Q 662.80 972.58 662.93 995.74
  C 662.97 1001.12 655.89 998.15 655.60 1003.28
  Q 655.23 1009.91 654.97 1016.95
  A 2.79 2.79 0.0 0 0 657.77 1019.84
  L 694.45 1019.72
  Q 697.04 1019.72 696.92 1017.12
  Q 696.58 1010.02 695.70 1003.00
  C 695.55 1001.82 694.85 1000.75 693.70 1000.33
  Q 689.19 998.68 689.08 993.71
  Q 688.56 971.38 689.42 947.56
  C 689.56 943.71 690.84 941.89 694.03 939.88
  C 696.02 938.62 696.17 936.20 696.33 934.11"
/>
<path stroke="#888888" vector-effect="non-scaling-stroke" d="
  M 742.17 968.23
  Q 743.80 966.86 745.07 968.70
  Q 762.67 994.02 779.94 1018.80
  A 2.19 2.17 -17.0 0 0 781.71 1019.73
  L 801.32 1019.84
  Q 803.49 1019.86 803.48 1017.68
  L 803.11 922.73
  A 1.64 1.63 0.2 0 0 801.48 921.10
  L 778.99 921.03
  A 1.65 1.65 0.0 0 0 777.33 922.69
  Q 777.38 944.34 777.63 963.21
  Q 777.67 966.42 777.54 969.44
  Q 777.27 975.71 773.69 970.56
  L 739.63 921.59
  A 1.39 1.39 0.0 0 0 738.47 920.99
  L 718.03 921.05
  A 1.68 1.68 0.0 0 0 716.36 922.72
  L 716.22 1018.02
  A 1.79 1.79 0.0 0 0 718.02 1019.81
  L 740.43 1019.66
  A 2.06 2.06 0.0 0 0 742.47 1017.57
  L 741.78 969.06
  A 1.04 1.03 -20.0 0 1 742.17 968.23"
/>
<path stroke="#888888" vector-effect="non-scaling-stroke" d="
  M 826.01 924.00
  L 826.01 1016.98
  A 3.07 3.07 0.0 0 0 829.08 1020.05
  L 887.45 1020.05
  A 25.14 25.08 -0.0 0 0 912.59 994.97
  L 912.59 946.01
  A 25.14 25.08 0.0 0 0 887.45 920.93
  L 829.08 920.93
  A 3.07 3.07 0.0 0 0 826.01 924.00"
/>
<path stroke="#888888" vector-effect="non-scaling-stroke" d="
  M 935.37 997.84
  C 936.26 1008.35 943.90 1017.06 954.20 1019.28
  Q 957.40 1019.97 965.81 1019.91
  Q 991.88 1019.70 1017.09 1019.85
  Q 1019.18 1019.86 1019.16 1017.77
  L 1018.98 1000.00
  Q 1018.96 998.05 1017.01 998.05
  L 963.87 998.05
  A 2.93 2.92 90.0 0 1 960.95 995.12
  L 960.95 983.96
  A 2.57 2.56 -89.7 0 1 963.54 981.39
  L 1009.00 981.87
  A 2.79 2.70 -89.7 0 0 1011.73 979.08
  L 1011.75 962.27
  A 2.99 2.98 0.2 0 0 1008.77 959.28
  L 963.65 959.16
  Q 960.89 959.16 960.89 956.40
  L 960.87 946.81
  A 3.83 3.83 0.0 0 1 964.69 942.98
  L 1016.17 942.90
  A 2.82 2.81 89.9 0 0 1018.97 940.08
  L 1018.98 924.52
  Q 1018.98 921.05 1015.52 921.05
  L 938.97 921.05
  A 3.96 3.96 0.0 0 0 935.01 925.00
  Q 934.91 961.27 935.16 993.36
  Q 935.17 995.59 935.37 997.84"
/>
<path stroke="#888888" vector-effect="non-scaling-stroke" d="
  M 589.85 459.67
  A 19.43 19.43 0.0 0 0 570.42 440.24
  A 19.43 19.43 0.0 0 0 550.99 459.67
  A 19.43 19.43 0.0 0 0 570.42 479.10
  A 19.43 19.43 0.0 0 0 589.85 459.67"
/>
<path stroke="#888888" vector-effect="non-scaling-stroke" d="
  M 900.41 463.72
  A 19.22 19.22 0.0 0 0 881.19 444.50
  A 19.22 19.22 0.0 0 0 861.97 463.72
  A 19.22 19.22 0.0 0 0 881.19 482.94
  A 19.22 19.22 0.0 0 0 900.41 463.72"
/>
<path stroke="#888888" vector-effect="non-scaling-stroke" d="
  M 589.69 776.12
  A 19.26 19.26 0.0 0 0 570.43 756.86
  A 19.26 19.26 0.0 0 0 551.17 776.12
  A 19.26 19.26 0.0 0 0 570.43 795.38
  A 19.26 19.26 0.0 0 0 589.69 776.12"
/>
<path stroke="#888888" vector-effect="non-scaling-stroke" d="
  M 898.28 777.04
  A 19.22 19.22 0.0 0 0 879.06 757.82
  A 19.22 19.22 0.0 0 0 859.84 777.04
  A 19.22 19.22 0.0 0 0 879.06 796.26
  A 19.22 19.22 0.0 0 0 898.28 777.04"
/>
<path stroke="#888888" vector-effect="non-scaling-stroke" d="
  M 379.5906 944.9374
  A 2.29 2.29 0.0 0 0 377.2927 942.6554
  L 345.9128 942.7649
  A 2.29 2.29 0.0 0 0 343.6309 945.0629
  L 343.8094 996.2026
  A 2.29 2.29 0.0 0 0 346.1073 998.4846
  L 377.4872 998.3751
  A 2.29 2.29 0.0 0 0 379.7691 996.0771
  L 379.5906 944.9374"
/>
<path stroke="#888888" vector-effect="non-scaling-stroke" d="
  M 489.11 944.65
  A 1.85 1.85 0.0 0 0 487.26 942.80
  L 455.00 942.80
  A 1.85 1.85 0.0 0 0 453.15 944.65
  L 453.15 996.65
  A 1.85 1.85 0.0 0 0 455.00 998.50
  L 487.26 998.50
  A 1.85 1.85 0.0 0 0 489.11 996.65
  L 489.11 944.65"
/>
<path stroke="#888888" vector-effect="non-scaling-stroke" d="
  M 851.07 995.74
  A 2.60 2.60 0.0 0 0 853.65 998.35
  L 884.48 998.53
  A 2.60 2.60 0.0 0 0 887.10 995.94
  L 887.25 945.42
  A 2.60 2.60 0.0 0 0 884.65 942.81
  L 853.79 942.77
  A 2.60 2.60 0.0 0 0 851.18 945.37
  L 851.07 995.74"
/>
</g>
<path fill="#111111" d="
  M 93.12 462.98
  C 93.08 441.22 93.18 420.21 94.54 398.94
  Q 96.93 361.48 126.30 338.63
  C 135.33 331.61 144.61 325.71 154.68 319.92
  Q 434.40 159.17 678.60 17.53
  C 701.05 4.51 725.93 -0.79 750.11 8.33
  C 764.83 13.88 779.45 22.15 794.45 30.89
  Q 1048.48 178.83 1304.52 326.43
  C 1327.04 339.41 1348.06 359.46 1353.83 385.28
  Q 1354.84 389.83 1354.89 397.26
  Q 1354.95 404.49 1354.95 411.50
  Q 1354.88 721.24 1354.88 1031.25
  C 1354.88 1046.51 1352.34 1061.50 1345.38 1074.68
  C 1335.44 1093.52 1317.72 1106.49 1299.63 1116.83
  Q 1052.10 1258.43 825.49 1390.33
  C 810.01 1399.34 795.16 1409.33 780.13 1418.93
  C 767.95 1426.72 753.50 1433.39 739.10 1435.82
  Q 712.73 1440.25 687.75 1428.53
  Q 677.51 1423.74 668.19 1417.80
  C 649.51 1405.92 630.72 1393.46 611.71 1382.55
  Q 455.27 1292.78 300.82 1203.64
  Q 227.49 1161.32 139.86 1109.64
  Q 125.97 1101.44 115.42 1090.11
  C 94.86 1068.03 93.47 1035.84 93.49 1007.55
  Q 93.63 740.65 93.12 462.98
  Z
  M 758.74 520.96
  C 708.84 499.43 657.86 477.53 608.38 456.06
  Q 606.50 455.25 605.93 453.33
  C 601.35 437.96 591.04 426.49 574.62 424.33
  C 553.39 421.54 535.84 438.27 534.97 458.80
  C 534.23 476.21 546.83 491.88 564.00 495.09
  C 571.13 496.42 576.98 494.85 583.71 492.82
  C 587.65 491.62 591.79 492.46 595.60 494.12
  Q 680.15 530.86 764.66 567.12
  C 768.32 568.68 771.36 570.03 775.17 570.11
  C 781.30 570.23 785.29 565.95 787.57 560.67
  Q 800.91 529.81 814.85 498.40
  C 817.16 493.20 817.88 487.52 816.46 482.05
  Q 815.97 480.18 814.32 479.04
  C 807.06 474.05 793.20 466.16 784.56 472.14
  Q 780.57 474.90 778.67 479.49
  Q 770.37 499.53 762.06 519.61
  A 2.51 2.51 0.0 0 1 758.74 520.96
  Z
  M 822.02 654.12
  C 843.32 604.24 864.64 553.79 885.90 503.84
  Q 888.08 498.73 893.13 496.82
  C 899.00 494.60 904.54 491.89 908.24 486.95
  C 916.46 476.00 920.35 462.47 913.99 449.87
  Q 909.32 440.63 901.33 434.56
  C 888.97 425.16 870.20 426.05 858.16 436.47
  C 847.03 446.09 842.22 459.62 846.87 473.96
  Q 848.19 478.04 849.93 482.03
  A 1.80 1.77 -53.1 0 1 850.06 482.99
  Q 849.59 486.63 848.34 489.52
  Q 812.67 572.64 777.81 654.68
  C 775.80 659.41 773.82 664.76 773.12 669.61
  C 772.07 676.89 776.14 679.33 782.47 682.15
  Q 815.83 696.98 848.35 710.37
  C 853.87 712.64 858.39 713.83 862.71 709.50
  C 868.79 703.41 874.04 692.98 873.05 684.23
  Q 872.18 676.54 862.86 672.83
  Q 841.78 664.45 822.79 656.08
  A 1.50 1.49 -66.7 0 1 822.02 654.12
  Z
  M 768.0595 477.0790
  A 7.78 7.78 0.0 0 0 764.0091 466.8491
  L 684.7886 432.5673
  A 7.78 7.78 0.0 0 0 674.5586 436.6176
  L 664.8205 459.1210
  A 7.78 7.78 0.0 0 0 668.8709 469.3509
  L 748.0914 503.6327
  A 7.78 7.78 0.0 0 0 758.3214 499.5824
  L 768.0595 477.0790
  Z
  M 664.72 555.82
  C 642.35 546.83 620.25 537.81 598.48 528.58
  C 581.77 521.50 576.03 539.90 573.27 552.67
  Q 572.76 555.03 574.05 557.15
  C 578.45 564.41 584.67 566.45 592.06 569.44
  Q 606.99 575.48 623.10 581.98
  A 3.35 3.35 0.0 0 1 624.94 586.38
  Q 594.32 659.76 564.70 731.16
  C 562.36 736.80 561.14 740.36 556.51 743.03
  Q 546.56 748.77 541.18 756.52
  C 531.49 770.48 533.74 788.60 544.92 800.86
  C 553.76 810.54 566.83 814.66 579.38 810.78
  Q 600.29 804.31 605.58 783.58
  C 608.05 773.87 604.73 764.90 600.29 756.12
  C 599.53 754.62 599.28 752.72 599.94 751.14
  Q 635.42 665.74 672.46 576.29
  C 674.10 572.30 674.89 566.25 672.47 562.40
  Q 669.56 557.77 664.72 555.82
  Z
  M 910.2902 578.5327
  A 6.85 6.85 0.0 0 0 906.6769 569.5444
  L 882.4304 559.2024
  A 6.85 6.85 0.0 0 0 873.4421 562.8157
  L 839.0498 643.4473
  A 6.85 6.85 0.0 0 0 842.6631 652.4356
  L 866.9096 662.7776
  A 6.85 6.85 0.0 0 0 875.8979 659.1643
  L 910.2902 578.5327
  Z
  M 608.3522 595.5788
  A 6.79 6.79 0.0 0 0 604.7084 586.6945
  L 580.2796 576.4757
  A 6.79 6.79 0.0 0 0 571.3953 580.1194
  L 537.4278 661.3212
  A 6.79 6.79 0.0 0 0 541.0716 670.2055
  L 565.5004 680.4243
  A 6.79 6.79 0.0 0 0 574.3847 676.7806
  L 608.3522 595.5788
  Z
  M 687.70 717.33
  A 1.06 1.06 0.0 0 1 688.94 717.01
  Q 758.75 746.37 840.84 780.86
  Q 843.53 781.99 844.46 784.67
  C 846.02 789.16 847.16 793.64 850.05 797.51
  C 864.31 816.59 891.39 818.30 906.89 799.70
  C 913.04 792.31 915.70 783.10 914.53 773.45
  C 912.51 756.81 901.59 744.19 884.77 741.68
  Q 875.72 740.33 865.22 744.60
  C 863.37 745.35 860.88 745.77 858.97 744.97
  Q 771.59 708.36 683.42 671.23
  C 676.60 668.36 670.47 666.31 664.31 671.98
  Q 662.03 674.08 659.16 680.93
  Q 645.87 712.64 632.74 743.59
  C 628.41 753.81 632.49 760.98 642.46 764.62
  C 650.56 767.58 658.89 771.95 666.17 764.55
  Q 668.77 761.89 672.05 754.03
  Q 679.06 737.21 687.12 718.14
  C 687.24 717.84 687.50 717.59 687.70 717.33
  Z
  M 784.4905 777.0789
  A 6.76 6.76 0.0 0 0 780.8629 768.2338
  L 699.6242 734.2509
  A 6.76 6.76 0.0 0 0 690.7791 737.8785
  L 680.5295 762.3811
  A 6.76 6.76 0.0 0 0 684.1571 771.2262
  L 765.3958 805.2091
  A 6.76 6.76 0.0 0 0 774.2409 801.5815
  L 784.4905 777.0789
  Z
  M 1035.89 930.02
  C 1046.78 959.03 1058.39 989.18 1068.87 1017.38
  A 3.61 3.60 80.0 0 0 1072.22 1019.73
  L 1093.22 1019.92
  A 4.77 4.76 -79.3 0 0 1097.71 1016.85
  Q 1113.65 975.00 1130.07 931.75
  C 1131.95 926.81 1131.06 922.32 1124.74 921.63
  Q 1120.74 921.19 1116.71 920.69
  C 1110.25 919.88 1105.75 921.13 1103.52 927.57
  Q 1094.22 954.45 1084.49 981.75
  A 0.75 0.75 0.0 0 1 1083.19 981.96
  Q 1081.58 979.93 1080.64 977.34
  Q 1072.07 953.95 1063.89 929.78
  Q 1062.19 924.75 1060.66 923.16
  Q 1057.49 919.84 1052.59 920.44
  Q 1048.21 920.97 1043.45 921.22
  C 1038.04 921.51 1033.41 923.42 1035.89 930.02
  Z
  M 318.07 924.78
  L 317.91 1016.04
  A 3.94 3.94 0.0 0 0 321.84 1019.99
  L 380.36 1020.09
  A 25.12 25.08 -89.9 0 0 405.49 995.02
  L 405.57 946.12
  A 25.12 25.08 -89.9 0 0 380.54 920.95
  L 322.02 920.85
  A 3.94 3.94 0.0 0 0 318.07 924.78
  Z
  M 514.27 945.02
  A 23.96 23.96 0.0 0 0 490.31 921.06
  L 451.29 921.06
  A 23.96 23.96 0.0 0 0 427.33 945.02
  L 427.33 996.00
  A 23.96 23.96 0.0 0 0 451.29 1019.96
  L 490.31 1019.96
  A 23.96 23.96 0.0 0 0 514.27 996.00
  L 514.27 945.02
  Z
  M 561.90 966.83
  A 0.89 0.89 0.0 0 1 563.46 966.47
  Q 565.15 968.54 566.46 971.13
  Q 571.94 981.94 577.84 993.56
  C 580.70 999.20 587.53 1001.52 592.59 997.13
  Q 594.45 995.52 596.29 991.26
  Q 601.09 980.10 607.91 968.42
  Q 608.50 967.40 608.97 967.31
  Q 610.27 967.04 610.26 968.37
  L 609.88 1016.47
  Q 609.86 1019.82 613.22 1019.82
  L 633.68 1019.82
  A 2.24 2.24 0.0 0 0 635.92 1017.57
  L 635.72 923.52
  A 2.45 2.45 0.0 0 0 633.27 921.07
  L 612.97 921.00
  A 5.14 5.12 -76.2 0 0 608.40 923.78
  Q 598.30 943.45 588.64 962.16
  C 587.58 964.21 585.26 964.00 584.30 962.16
  Q 573.78 941.99 563.45 922.34
  A 2.58 2.58 0.0 0 0 561.15 920.96
  L 539.52 921.15
  A 2.58 2.57 89.8 0 0 536.97 923.73
  L 536.97 1017.50
  A 2.51 2.50 -0.2 0 0 539.50 1020.00
  L 560.47 1019.80
  A 1.85 1.85 0.0 0 0 562.30 1017.96
  Q 562.42 995.57 561.57 970.68
  Q 561.50 968.63 561.90 966.83
  Z
  M 696.33 934.11
  Q 696.77 928.40 696.79 923.16
  A 2.10 2.09 -89.9 0 0 694.70 921.05
  L 658.53 921.05
  A 3.26 3.26 0.0 0 0 655.27 924.30
  Q 655.24 930.46 655.34 936.97
  C 655.44 942.87 662.73 939.87 662.75 945.98
  Q 662.80 972.58 662.93 995.74
  C 662.97 1001.12 655.89 998.15 655.60 1003.28
  Q 655.23 1009.91 654.97 1016.95
  A 2.79 2.79 0.0 0 0 657.77 1019.84
  L 694.45 1019.72
  Q 697.04 1019.72 696.92 1017.12
  Q 696.58 1010.02 695.70 1003.00
  C 695.55 1001.82 694.85 1000.75 693.70 1000.33
  Q 689.19 998.68 689.08 993.71
  Q 688.56 971.38 689.42 947.56
  C 689.56 943.71 690.84 941.89 694.03 939.88
  C 696.02 938.62 696.17 936.20 696.33 934.11
  Z
  M 742.17 968.23
  Q 743.80 966.86 745.07 968.70
  Q 762.67 994.02 779.94 1018.80
  A 2.19 2.17 -17.0 0 0 781.71 1019.73
  L 801.32 1019.84
  Q 803.49 1019.86 803.48 1017.68
  L 803.11 922.73
  A 1.64 1.63 0.2 0 0 801.48 921.10
  L 778.99 921.03
  A 1.65 1.65 0.0 0 0 777.33 922.69
  Q 777.38 944.34 777.63 963.21
  Q 777.67 966.42 777.54 969.44
  Q 777.27 975.71 773.69 970.56
  L 739.63 921.59
  A 1.39 1.39 0.0 0 0 738.47 920.99
  L 718.03 921.05
  A 1.68 1.68 0.0 0 0 716.36 922.72
  L 716.22 1018.02
  A 1.79 1.79 0.0 0 0 718.02 1019.81
  L 740.43 1019.66
  A 2.06 2.06 0.0 0 0 742.47 1017.57
  L 741.78 969.06
  A 1.04 1.03 -20.0 0 1 742.17 968.23
  Z
  M 826.01 924.00
  L 826.01 1016.98
  A 3.07 3.07 0.0 0 0 829.08 1020.05
  L 887.45 1020.05
  A 25.14 25.08 -0.0 0 0 912.59 994.97
  L 912.59 946.01
  A 25.14 25.08 0.0 0 0 887.45 920.93
  L 829.08 920.93
  A 3.07 3.07 0.0 0 0 826.01 924.00
  Z
  M 935.37 997.84
  C 936.26 1008.35 943.90 1017.06 954.20 1019.28
  Q 957.40 1019.97 965.81 1019.91
  Q 991.88 1019.70 1017.09 1019.85
  Q 1019.18 1019.86 1019.16 1017.77
  L 1018.98 1000.00
  Q 1018.96 998.05 1017.01 998.05
  L 963.87 998.05
  A 2.93 2.92 90.0 0 1 960.95 995.12
  L 960.95 983.96
  A 2.57 2.56 -89.7 0 1 963.54 981.39
  L 1009.00 981.87
  A 2.79 2.70 -89.7 0 0 1011.73 979.08
  L 1011.75 962.27
  A 2.99 2.98 0.2 0 0 1008.77 959.28
  L 963.65 959.16
  Q 960.89 959.16 960.89 956.40
  L 960.87 946.81
  A 3.83 3.83 0.0 0 1 964.69 942.98
  L 1016.17 942.90
  A 2.82 2.81 89.9 0 0 1018.97 940.08
  L 1018.98 924.52
  Q 1018.98 921.05 1015.52 921.05
  L 938.97 921.05
  A 3.96 3.96 0.0 0 0 935.01 925.00
  Q 934.91 961.27 935.16 993.36
  Q 935.17 995.59 935.37 997.84
  Z"
/>
<path fill="#ffffff" d="
  M 608.38 456.06
  C 657.86 477.53 708.84 499.43 758.74 520.96
  A 2.51 2.51 0.0 0 0 762.06 519.61
  Q 770.37 499.53 778.67 479.49
  Q 780.57 474.90 784.56 472.14
  C 793.20 466.16 807.06 474.05 814.32 479.04
  Q 815.97 480.18 816.46 482.05
  C 817.88 487.52 817.16 493.20 814.85 498.40
  Q 800.91 529.81 787.57 560.67
  C 785.29 565.95 781.30 570.23 775.17 570.11
  C 771.36 570.03 768.32 568.68 764.66 567.12
  Q 680.15 530.86 595.60 494.12
  C 591.79 492.46 587.65 491.62 583.71 492.82
  C 576.98 494.85 571.13 496.42 564.00 495.09
  C 546.83 491.88 534.23 476.21 534.97 458.80
  C 535.84 438.27 553.39 421.54 574.62 424.33
  C 591.04 426.49 601.35 437.96 605.93 453.33
  Q 606.50 455.25 608.38 456.06
  Z
  M 589.85 459.67
  A 19.43 19.43 0.0 0 0 570.42 440.24
  A 19.43 19.43 0.0 0 0 550.99 459.67
  A 19.43 19.43 0.0 0 0 570.42 479.10
  A 19.43 19.43 0.0 0 0 589.85 459.67
  Z"
/>
<path fill="#ffffff" d="
  M 885.90 503.84
  C 864.64 553.79 843.32 604.24 822.02 654.12
  A 1.50 1.49 -66.7 0 0 822.79 656.08
  Q 841.78 664.45 862.86 672.83
  Q 872.18 676.54 873.05 684.23
  C 874.04 692.98 868.79 703.41 862.71 709.50
  C 858.39 713.83 853.87 712.64 848.35 710.37
  Q 815.83 696.98 782.47 682.15
  C 776.14 679.33 772.07 676.89 773.12 669.61
  C 773.82 664.76 775.80 659.41 777.81 654.68
  Q 812.67 572.64 848.34 489.52
  Q 849.59 486.63 850.06 482.99
  A 1.80 1.77 -53.1 0 0 849.93 482.03
  Q 848.19 478.04 846.87 473.96
  C 842.22 459.62 847.03 446.09 858.16 436.47
  C 870.20 426.05 888.97 425.16 901.33 434.56
  Q 909.32 440.63 913.99 449.87
  C 920.35 462.47 916.46 476.00 908.24 486.95
  C 904.54 491.89 899.00 494.60 893.13 496.82
  Q 888.08 498.73 885.90 503.84
  Z
  M 900.41 463.72
  A 19.22 19.22 0.0 0 0 881.19 444.50
  A 19.22 19.22 0.0 0 0 861.97 463.72
  A 19.22 19.22 0.0 0 0 881.19 482.94
  A 19.22 19.22 0.0 0 0 900.41 463.72
  Z"
/>
<rect fill="#ffffff" x="-50.94" y="-20.04" transform="translate(716.44,468.10) rotate(23.4)" width="101.88" height="40.08" rx="7.78"/>
<circle fill="#111111" cx="570.42" cy="459.67" r="19.43"/>
<circle fill="#111111" cx="881.19" cy="463.72" r="19.22"/>
<path fill="#ffffff" d="
  M 598.48 528.58
  C 620.25 537.81 642.35 546.83 664.72 555.82
  Q 669.56 557.77 672.47 562.40
  C 674.89 566.25 674.10 572.30 672.46 576.29
  Q 635.42 665.74 599.94 751.14
  C 599.28 752.72 599.53 754.62 600.29 756.12
  C 604.73 764.90 608.05 773.87 605.58 783.58
  Q 600.29 804.31 579.38 810.78
  C 566.83 814.66 553.76 810.54 544.92 800.86
  C 533.74 788.60 531.49 770.48 541.18 756.52
  Q 546.56 748.77 556.51 743.03
  C 561.14 740.36 562.36 736.80 564.70 731.16
  Q 594.32 659.76 624.94 586.38
  A 3.35 3.35 0.0 0 0 623.10 581.98
  Q 606.99 575.48 592.06 569.44
  C 584.67 566.45 578.45 564.41 574.05 557.15
  Q 572.76 555.03 573.27 552.67
  C 576.03 539.90 581.77 521.50 598.48 528.58
  Z
  M 589.69 776.12
  A 19.26 19.26 0.0 0 0 570.43 756.86
  A 19.26 19.26 0.0 0 0 551.17 776.12
  A 19.26 19.26 0.0 0 0 570.43 795.38
  A 19.26 19.26 0.0 0 0 589.69 776.12
  Z"
/>
<rect fill="#ffffff" x="-20.03" y="-50.68" transform="translate(874.67,610.99) rotate(23.1)" width="40.06" height="101.36" rx="6.85"/>
<rect fill="#ffffff" x="-20.03" y="-50.80" transform="translate(572.89,628.45) rotate(22.7)" width="40.06" height="101.60" rx="6.79"/>
<path fill="#ffffff" d="
  M 687.70 717.33
  C 687.50 717.59 687.24 717.84 687.12 718.14
  Q 679.06 737.21 672.05 754.03
  Q 668.77 761.89 666.17 764.55
  C 658.89 771.95 650.56 767.58 642.46 764.62
  C 632.49 760.98 628.41 753.81 632.74 743.59
  Q 645.87 712.64 659.16 680.93
  Q 662.03 674.08 664.31 671.98
  C 670.47 666.31 676.60 668.36 683.42 671.23
  Q 771.59 708.36 858.97 744.97
  C 860.88 745.77 863.37 745.35 865.22 744.60
  Q 875.72 740.33 884.77 741.68
  C 901.59 744.19 912.51 756.81 914.53 773.45
  C 915.70 783.10 913.04 792.31 906.89 799.70
  C 891.39 818.30 864.31 816.59 850.05 797.51
  C 847.16 793.64 846.02 789.16 844.46 784.67
  Q 843.53 781.99 840.84 780.86
  Q 758.75 746.37 688.94 717.01
  A 1.06 1.06 0.0 0 0 687.70 717.33
  Z
  M 898.28 777.04
  A 19.22 19.22 0.0 0 0 879.06 757.82
  A 19.22 19.22 0.0 0 0 859.84 777.04
  A 19.22 19.22 0.0 0 0 879.06 796.26
  A 19.22 19.22 0.0 0 0 898.28 777.04
  Z"
/>
<rect fill="#ffffff" x="-50.79" y="-20.04" transform="translate(732.51,769.73) rotate(22.7)" width="101.58" height="40.08" rx="6.76"/>
<circle fill="#111111" cx="570.43" cy="776.12" r="19.26"/>
<circle fill="#111111" cx="879.06" cy="777.04" r="19.22"/>
<path fill="#ffffff" d="
  M 1068.87 1017.38
  C 1058.39 989.18 1046.78 959.03 1035.89 930.02
  C 1033.41 923.42 1038.04 921.51 1043.45 921.22
  Q 1048.21 920.97 1052.59 920.44
  Q 1057.49 919.84 1060.66 923.16
  Q 1062.19 924.75 1063.89 929.78
  Q 1072.07 953.95 1080.64 977.34
  Q 1081.58 979.93 1083.19 981.96
  A 0.75 0.75 0.0 0 0 1084.49 981.75
  Q 1094.22 954.45 1103.52 927.57
  C 1105.75 921.13 1110.25 919.88 1116.71 920.69
  Q 1120.74 921.19 1124.74 921.63
  C 1131.06 922.32 1131.95 926.81 1130.07 931.75
  Q 1113.65 975.00 1097.71 1016.85
  A 4.77 4.76 -79.3 0 1 1093.22 1019.92
  L 1072.22 1019.73
  A 3.61 3.60 80.0 0 1 1068.87 1017.38
  Z"
/>
<path fill="#ffffff" d="
  M 318.07 924.78
  A 3.94 3.94 0.0 0 1 322.02 920.85
  L 380.54 920.95
  A 25.12 25.08 -89.9 0 1 405.57 946.12
  L 405.49 995.02
  A 25.12 25.08 -89.9 0 1 380.36 1020.09
  L 321.84 1019.99
  A 3.94 3.94 0.0 0 1 317.91 1016.04
  L 318.07 924.78
  Z
  M 379.5906 944.9374
  A 2.29 2.29 0.0 0 0 377.2927 942.6554
  L 345.9128 942.7649
  A 2.29 2.29 0.0 0 0 343.6309 945.0629
  L 343.8094 996.2026
  A 2.29 2.29 0.0 0 0 346.1073 998.4846
  L 377.4872 998.3751
  A 2.29 2.29 0.0 0 0 379.7691 996.0771
  L 379.5906 944.9374
  Z"
/>
<path fill="#ffffff" d="
  M 514.27 996.00
  A 23.96 23.96 0.0 0 1 490.31 1019.96
  L 451.29 1019.96
  A 23.96 23.96 0.0 0 1 427.33 996.00
  L 427.33 945.02
  A 23.96 23.96 0.0 0 1 451.29 921.06
  L 490.31 921.06
  A 23.96 23.96 0.0 0 1 514.27 945.02
  L 514.27 996.00
  Z
  M 489.11 944.65
  A 1.85 1.85 0.0 0 0 487.26 942.80
  L 455.00 942.80
  A 1.85 1.85 0.0 0 0 453.15 944.65
  L 453.15 996.65
  A 1.85 1.85 0.0 0 0 455.00 998.50
  L 487.26 998.50
  A 1.85 1.85 0.0 0 0 489.11 996.65
  L 489.11 944.65
  Z"
/>
<path fill="#ffffff" d="
  M 561.90 966.83
  Q 561.50 968.63 561.57 970.68
  Q 562.42 995.57 562.30 1017.96
  A 1.85 1.85 0.0 0 1 560.47 1019.80
  L 539.50 1020.00
  A 2.51 2.50 -0.2 0 1 536.97 1017.50
  L 536.97 923.73
  A 2.58 2.57 89.8 0 1 539.52 921.15
  L 561.15 920.96
  A 2.58 2.58 0.0 0 1 563.45 922.34
  Q 573.78 941.99 584.30 962.16
  C 585.26 964.00 587.58 964.21 588.64 962.16
  Q 598.30 943.45 608.40 923.78
  A 5.14 5.12 -76.2 0 1 612.97 921.00
  L 633.27 921.07
  A 2.45 2.45 0.0 0 1 635.72 923.52
  L 635.92 1017.57
  A 2.24 2.24 0.0 0 1 633.68 1019.82
  L 613.22 1019.82
  Q 609.86 1019.82 609.88 1016.47
  L 610.26 968.37
  Q 610.27 967.04 608.97 967.31
  Q 608.50 967.40 607.91 968.42
  Q 601.09 980.10 596.29 991.26
  Q 594.45 995.52 592.59 997.13
  C 587.53 1001.52 580.70 999.20 577.84 993.56
  Q 571.94 981.94 566.46 971.13
  Q 565.15 968.54 563.46 966.47
  A 0.89 0.89 0.0 0 0 561.90 966.83
  Z"
/>
<path fill="#ffffff" d="
  M 696.33 934.11
  C 696.17 936.20 696.02 938.62 694.03 939.88
  C 690.84 941.89 689.56 943.71 689.42 947.56
  Q 688.56 971.38 689.08 993.71
  Q 689.19 998.68 693.70 1000.33
  C 694.85 1000.75 695.55 1001.82 695.70 1003.00
  Q 696.58 1010.02 696.92 1017.12
  Q 697.04 1019.72 694.45 1019.72
  L 657.77 1019.84
  A 2.79 2.79 0.0 0 1 654.97 1016.95
  Q 655.23 1009.91 655.60 1003.28
  C 655.89 998.15 662.97 1001.12 662.93 995.74
  Q 662.80 972.58 662.75 945.98
  C 662.73 939.87 655.44 942.87 655.34 936.97
  Q 655.24 930.46 655.27 924.30
  A 3.26 3.26 0.0 0 1 658.53 921.05
  L 694.70 921.05
  A 2.10 2.09 -89.9 0 1 696.79 923.16
  Q 696.77 928.40 696.33 934.11
  Z"
/>
<path fill="#ffffff" d="
  M 742.17 968.23
  A 1.04 1.03 -20.0 0 0 741.78 969.06
  L 742.47 1017.57
  A 2.06 2.06 0.0 0 1 740.43 1019.66
  L 718.02 1019.81
  A 1.79 1.79 0.0 0 1 716.22 1018.02
  L 716.36 922.72
  A 1.68 1.68 0.0 0 1 718.03 921.05
  L 738.47 920.99
  A 1.39 1.39 0.0 0 1 739.63 921.59
  L 773.69 970.56
  Q 777.27 975.71 777.54 969.44
  Q 777.67 966.42 777.63 963.21
  Q 777.38 944.34 777.33 922.69
  A 1.65 1.65 0.0 0 1 778.99 921.03
  L 801.48 921.10
  A 1.64 1.63 0.2 0 1 803.11 922.73
  L 803.48 1017.68
  Q 803.49 1019.86 801.32 1019.84
  L 781.71 1019.73
  A 2.19 2.17 -17.0 0 1 779.94 1018.80
  Q 762.67 994.02 745.07 968.70
  Q 743.80 966.86 742.17 968.23
  Z"
/>
<path fill="#ffffff" d="
  M 826.01 924.00
  A 3.07 3.07 0.0 0 1 829.08 920.93
  L 887.45 920.93
  A 25.14 25.08 -0.0 0 1 912.59 946.01
  L 912.59 994.97
  A 25.14 25.08 -0.0 0 1 887.45 1020.05
  L 829.08 1020.05
  A 3.07 3.07 0.0 0 1 826.01 1016.98
  L 826.01 924.00
  Z
  M 851.07 995.74
  A 2.60 2.60 0.0 0 0 853.65 998.35
  L 884.48 998.53
  A 2.60 2.60 0.0 0 0 887.10 995.94
  L 887.25 945.42
  A 2.60 2.60 0.0 0 0 884.65 942.81
  L 853.79 942.77
  A 2.60 2.60 0.0 0 0 851.18 945.37
  L 851.07 995.74
  Z"
/>
<path fill="#ffffff" d="
  M 935.37 997.84
  Q 935.17 995.59 935.16 993.36
  Q 934.91 961.27 935.01 925.00
  A 3.96 3.96 0.0 0 1 938.97 921.05
  L 1015.52 921.05
  Q 1018.98 921.05 1018.98 924.52
  L 1018.97 940.08
  A 2.82 2.81 89.9 0 1 1016.17 942.90
  L 964.69 942.98
  A 3.83 3.83 0.0 0 0 960.87 946.81
  L 960.89 956.40
  Q 960.89 959.16 963.65 959.16
  L 1008.77 959.28
  A 2.99 2.98 0.2 0 1 1011.75 962.27
  L 1011.73 979.08
  A 2.79 2.70 -89.7 0 1 1009.00 981.87
  L 963.54 981.39
  A 2.57 2.56 -89.7 0 0 960.95 983.96
  L 960.95 995.12
  A 2.93 2.92 -90.0 0 0 963.87 998.05
  L 1017.01 998.05
  Q 1018.96 998.05 1018.98 1000.00
  L 1019.16 1017.77
  Q 1019.18 1019.86 1017.09 1019.85
  Q 991.88 1019.70 965.81 1019.91
  Q 957.40 1019.97 954.20 1019.28
  C 943.90 1017.06 936.26 1008.35 935.37 997.84
  Z"
/>
<rect fill="#111111" x="-17.98" y="-27.86" transform="translate(361.70,970.57) rotate(-0.2)" width="35.96" height="55.72" rx="2.29"/>
<rect fill="#111111" x="453.15" y="942.80" width="35.96" height="55.70" rx="1.85"/>
<path fill="#111111" d="
  M 851.07 995.74
  L 851.18 945.37
  A 2.60 2.60 0.0 0 1 853.79 942.77
  L 884.65 942.81
  A 2.60 2.60 0.0 0 1 887.25 945.42
  L 887.10 995.94
  A 2.60 2.60 0.0 0 1 884.48 998.53
  L 853.65 998.35
  A 2.60 2.60 0.0 0 1 851.07 995.74
  Z"
/>
</svg>
