<?xml version="1.0" encoding="UTF-8"?>
<svg xmlns="http://www.w3.org/2000/svg" xmlns:xlink="http://www.w3.org/1999/xlink" width="px" height="px" viewBox="0 0 772 772" version="1.1">
<g id="surface1">
<path style="fill:none;stroke-width:2;stroke-linecap:butt;stroke-linejoin:miter;stroke:rgb(53.725493%,53.725493%,53.725493%);stroke-opacity:1;stroke-miterlimit:4;" d="M 563.470936 464.413293 C 563.207173 464.625769 562.980044 464.867552 562.767568 465.138642 C 558.825777 470.303999 556.393297 476.033517 555.470126 482.327194 C 554.986561 485.594924 555.199037 488.840674 556.100227 492.07177 C 560.093305 506.307642 571.171349 517.407667 586.330392 518.220936 C 591.928028 518.521333 598.009229 517.708063 604.559343 515.788455 C 604.859739 515.700534 605.182116 515.693208 605.48984 515.766475 C 609.688067 516.880141 613.571244 518.191629 617.132043 519.708266 C 659.407383 537.790682 712.042746 560.437662 775.023478 587.656533 C 783.288051 591.231987 790.790641 587.649207 794.358768 579.142851 C 801.905319 561.16301 809.818208 542.72891 818.097434 523.833225 C 819.973081 519.561731 821.37249 515.216969 822.266354 510.623097 C 822.596057 508.923292 822.156452 507.494576 820.947539 506.336949 C 814.79307 500.438917 804.000769 493.712961 795.150057 494.760687 C 789.867471 495.390787 787.010039 499.618321 785.039143 504.32942 C 780.078935 516.198753 775.001498 528.170661 769.806833 540.252469 C 768.839702 542.494454 767.022668 543.04396 764.341078 541.893661 C 718.07266 521.972231 672.23652 502.124069 626.818005 482.349174 C 622.883541 480.642042 621.967698 477.579461 620.663536 473.989354 C 619.593831 471.073308 617.564322 467.64439 614.582335 463.687945 C 613.483323 462.244576 612.157181 460.947741 610.618564 459.797442 C 603.738747 454.712678 597.020118 451.796632 588.147426 451.877226 C 579.113544 451.950494 571.295903 455.591888 564.687176 462.801409 C 564.569948 462.93329 564.438067 463.057845 564.298858 463.1824 C 564.13767 463.306954 564.027769 463.468143 563.969155 463.673292 C 563.881234 463.966362 563.720045 464.215471 563.470936 464.413293 " transform="matrix(0.533149,0,0,0.533149,0,0)"/>
<path style="fill:none;stroke-width:2;stroke-linecap:butt;stroke-linejoin:miter;stroke:rgb(53.725493%,53.725493%,53.725493%);stroke-opacity:1;stroke-miterlimit:4;" d="M 840.788374 676.280886 C 836.047968 674.522466 830.772709 672.80068 826.970126 669.386415 C 826.354679 668.836909 826.156857 667.957699 826.479234 667.203044 C 846.488585 620.36314 866.563876 573.310759 886.712435 526.03125 C 887.313229 524.617188 888.265706 523.562136 889.569867 522.873421 C 906.50931 513.927461 919.748745 502.168029 914.312298 480.920458 C 911.059221 468.237856 901.446527 458.822984 888.529469 456.317236 C 880.30153 454.727332 870.923292 456.383177 863.721098 460.603384 C 847.682845 470.003603 845.338285 489.529388 852.108201 505.596948 C 852.657707 506.901109 852.811569 508.520321 852.262063 509.831809 C 832.150138 556.796268 812.763561 602.493199 794.109658 646.922604 C 790.981137 654.36658 787.823308 661.4662 784.621519 668.221462 C 783.192803 671.225429 781.888642 674.676328 780.701708 678.566831 C 778.620912 685.417341 780.166856 691.322701 786.878157 694.2534 C 806.587111 702.84035 828.603991 712.203935 852.94345 722.336828 C 861.889411 726.07347 866.593183 720.952073 869.853586 713.280967 C 870.974579 710.628684 872.176166 707.873826 873.436367 705.031048 C 877.546673 695.777364 872.579137 690.582699 864.571001 686.611601 C 856.467617 682.58189 848.540074 679.138318 840.788374 676.280886 " transform="matrix(0.533149,0,0,0.533149,0,0)"/>
<path style="fill:none;stroke-width:2;stroke-linecap:butt;stroke-linejoin:miter;stroke:rgb(53.725493%,53.725493%,53.725493%);stroke-opacity:1;stroke-miterlimit:4;" d="M 775.353182 500.929809 C 776.884472 497.361682 775.228627 493.222069 771.653174 491.690779 L 696.319543 459.401797 C 692.74409 457.870507 688.611804 459.526352 687.073187 463.101805 L 677.672968 485.045418 C 676.134351 488.620871 677.790196 492.760484 681.365649 494.291775 L 756.699279 526.580756 C 760.274733 528.112047 764.414346 526.456201 765.945636 522.880748 L 775.353182 500.929809 " transform="matrix(0.533149,0,0,0.533149,0,0)"/>
<path style="fill:none;stroke-width:2;stroke-linecap:butt;stroke-linejoin:miter;stroke:rgb(53.725493%,53.725493%,53.725493%);stroke-opacity:1;stroke-miterlimit:4;" d="M 609.292422 810.008703 C 609.504898 809.913455 609.70272 809.781574 609.893216 809.627712 C 615.879169 804.594236 619.718386 798.307885 621.418191 790.761334 C 623.308493 782.379534 621.843143 773.814564 617.022142 765.0591 C 616.465309 764.055335 616.2162 763.190779 616.26016 762.480084 C 616.318774 761.630181 616.50927 760.816912 616.816993 760.047604 C 639.383379 705.573227 662.572539 649.655481 686.369819 592.279712 C 690.817155 581.553352 676.229598 574.761456 668.712354 571.830756 C 650.622612 564.789751 633.140989 557.587557 616.26016 550.231501 C 610.515989 547.73308 605.599741 548.136051 601.511415 551.447741 C 597.7821 554.466362 595.899126 559.770928 593.818329 564.152324 C 589.217131 573.860266 591.327234 581.260282 601.489435 585.377915 C 614.12075 590.513965 626.480975 595.554768 638.57011 600.507651 C 640.599619 601.335573 641.185759 602.756962 640.343183 604.779145 C 620.729477 651.413901 601.665277 697.403902 583.150583 742.756477 C 581.311569 747.262427 579.260079 750.427583 575.340269 753.116499 C 572.314322 755.197296 569.420256 757.241459 566.658072 759.248988 C 563.287767 761.696122 560.562217 765.344843 558.48142 770.187824 C 555.873097 776.254372 555.074482 782.599336 556.078246 789.222717 C 558.327558 803.971462 572.526797 817.15961 587.722474 817.797037 C 595.151797 818.10476 601.870426 815.906736 607.871033 811.202963 C 608.105489 811.012468 608.325291 810.807319 608.53044 810.580189 C 608.735589 810.338407 608.992026 810.140585 609.292422 810.008703 " transform="matrix(0.533149,0,0,0.533149,0,0)"/>
<path style="fill:none;stroke-width:2;stroke-linecap:butt;stroke-linejoin:miter;stroke:rgb(53.725493%,53.725493%,53.725493%);stroke-opacity:1;stroke-miterlimit:4;" d="M 909.278821 597.826061 C 910.810112 594.279914 909.16892 590.169608 905.622774 588.638318 L 883.583914 579.150178 C 880.037767 577.618888 875.927461 579.260079 874.396171 582.798899 L 842.055902 657.898073 C 840.531938 661.436893 842.165803 665.554526 845.711949 667.078489 L 867.758136 676.573956 C 871.304283 678.097919 875.414589 676.464054 876.938552 672.917908 L 909.278821 597.826061 " transform="matrix(0.533149,0,0,0.533149,0,0)"/>
<path style="fill:none;stroke-width:2;stroke-linecap:butt;stroke-linejoin:miter;stroke:rgb(53.725493%,53.725493%,53.725493%);stroke-opacity:1;stroke-miterlimit:4;" d="M 624.356218 614.289265 C 625.924142 610.523316 624.143742 606.193208 620.377793 604.625283 L 599.064281 595.759917 C 595.298332 594.191993 590.975551 595.972393 589.407626 599.738342 L 558.320232 674.412565 C 556.752307 678.178514 558.540034 682.501295 562.305983 684.06922 L 583.612168 692.941912 C 587.378117 694.509836 591.708225 692.729437 593.27615 688.956161 L 624.356218 614.289265 " transform="matrix(0.533149,0,0,0.533149,0,0)"/>
<path style="fill:none;stroke-width:2;stroke-linecap:butt;stroke-linejoin:miter;stroke:rgb(53.725493%,53.725493%,53.725493%);stroke-opacity:1;stroke-miterlimit:4;" d="M 839.938472 786.306671 C 843.433331 787.757367 846.100267 790.021333 847.411755 793.750648 C 854.423454 813.591483 877.180335 825.153093 896.339783 813.459602 C 908.700008 805.920377 914.312298 795.303918 913.169325 781.617552 C 911.301004 759.190374 890.478384 746.661634 869.318734 752.508379 C 864.087435 753.959075 859.867228 753.709966 854.987613 751.67313 C 801.934626 729.473081 748.229558 706.884715 693.857756 683.908031 C 685.292787 680.303271 677.760889 682.120304 673.716524 691.476562 C 665.701061 710.086504 656.923616 730.821203 647.391516 753.687986 C 645.801611 757.490568 645.303392 763.102858 648.468548 766.326627 C 653.567965 771.550599 660.499069 774.979517 667.847798 776.327639 C 675.496924 777.719722 680.046835 772.752186 682.948227 766.421875 C 688.216159 754.91888 693.110427 743.122814 697.638358 731.019025 C 698.568855 728.527931 700.78886 727.846543 703.316588 728.923575 C 748.361439 748.11233 793.897183 767.242471 839.938472 786.306671 " transform="matrix(0.533149,0,0,0.533149,0,0)"/>
<path style="fill:none;stroke-width:2;stroke-linecap:butt;stroke-linejoin:miter;stroke:rgb(53.725493%,53.725493%,53.725493%);stroke-opacity:1;stroke-miterlimit:4;" d="M 790.556185 785.266273 C 792.050842 781.727453 790.394997 777.639127 786.856177 776.144471 L 711.354032 744.251133 C 707.815212 742.756477 703.726886 744.412322 702.23223 747.958468 L 692.941912 769.953368 C 691.447256 773.492188 693.103101 777.580513 696.64192 779.07517 L 772.144066 810.968507 C 775.690212 812.463164 779.771211 810.807319 781.265868 807.261172 L 790.556185 785.266273 " transform="matrix(0.533149,0,0,0.533149,0,0)"/>
<path style="fill:none;stroke-width:2;stroke-linecap:butt;stroke-linejoin:miter;stroke:rgb(53.725493%,53.725493%,53.725493%);stroke-opacity:1;stroke-miterlimit:4;" d="M 351.632651 922.217859 L 351.3176 1011.0034 C 351.3176 1012.432116 352.4679 1013.597069 353.896616 1013.597069 L 407.909407 1013.780238 C 422.057359 1013.831525 433.567681 1002.416451 433.618969 988.283153 L 433.758177 945.502267 C 433.809464 931.368969 422.379736 919.8733 408.231784 919.822013 L 354.218993 919.638844 C 352.790277 919.638844 351.632651 920.79647 351.632651 922.217859 " transform="matrix(0.533149,0,0,0.533149,0,0)"/>
<path style="fill:none;stroke-width:2;stroke-linecap:butt;stroke-linejoin:miter;stroke:rgb(53.725493%,53.725493%,53.725493%);stroke-opacity:1;stroke-miterlimit:4;" d="M 751.218871 963.02785 C 751.365406 963.020523 751.621843 963.269632 751.980853 963.767851 C 763.212759 979.622936 774.422685 995.5 785.603303 1011.391718 C 786.548454 1012.73984 787.845288 1013.413901 789.501133 1013.428554 C 795.062136 1013.494495 800.48393 1013.494495 805.766516 1013.428554 C 807.393054 1013.406574 808.21365 1012.585978 808.21365 1010.95944 C 808.198996 982.09205 808.162362 953.24664 808.111075 924.430538 C 808.103748 923.228951 807.949887 922.217859 807.64949 921.389937 C 807.3784 920.657262 806.682359 920.173697 805.898397 920.16637 L 786.819543 920.246964 C 785.493402 920.254291 784.41637 921.331323 784.41637 922.657464 C 784.409043 935.96284 784.39439 950.074158 784.387063 964.998745 C 784.387063 966.214985 784.343102 967.453206 784.240528 968.72806 C 784.1233 970.032222 783.661715 970.164103 782.848446 969.138358 C 777.477939 962.353789 771.982877 954.961099 766.370588 946.96029 C 764.319098 944.036917 760.472555 938.138884 754.830959 929.273518 C 752.860063 926.181631 751.072336 924.034893 749.453125 922.818653 C 743.906776 918.67904 734.587152 919.389734 728.037039 920.217657 C 727.370304 920.305578 726.872085 920.877064 726.872085 921.558452 L 726.776838 1011.076668 C 726.776838 1011.750729 727.047927 1012.395483 727.531493 1012.871721 C 728.007732 1013.340633 728.659812 1013.597069 729.326546 1013.589743 L 748.178271 1013.260039 C 749.636294 1013.238059 750.808574 1012.036472 750.786593 1010.571122 L 750.200453 964.251417 C 750.1858 963.496762 750.530157 963.086464 751.218871 963.02785 " transform="matrix(0.533149,0,0,0.533149,0,0)"/>
<path style="fill:none;stroke-width:2;stroke-linecap:butt;stroke-linejoin:miter;stroke:rgb(53.725493%,53.725493%,53.725493%);stroke-opacity:1;stroke-miterlimit:4;" d="M 536.339985 943.055133 C 536.383946 930.438472 526.199765 920.181023 513.583104 920.137063 L 476.964014 920.005181 C 464.347353 919.961221 454.089904 930.152728 454.045944 942.76939 L 453.877429 990.72296 C 453.833468 1003.339621 464.024976 1013.604396 476.63431 1013.648357 L 513.2534 1013.772911 C 525.870062 1013.816872 536.134836 1003.625364 536.178797 991.01603 L 536.339985 943.055133 " transform="matrix(0.533149,0,0,0.533149,0,0)"/>
<path style="fill:none;stroke-width:2;stroke-linecap:butt;stroke-linejoin:miter;stroke:rgb(53.725493%,53.725493%,53.725493%);stroke-opacity:1;stroke-miterlimit:4;" d="M 582.513156 964.163496 C 582.960087 964.251417 583.297118 964.507853 583.51692 964.918151 C 587.832375 973.014208 592.221098 981.359375 596.683088 989.960978 C 597.459723 991.470288 598.719924 992.430092 600.471017 992.86237 C 606.874595 994.422968 611.43916 992.019794 614.157383 985.65285 C 617.351846 978.186893 620.883339 971.453611 624.751862 965.467657 C 625.030278 965.028052 625.425923 964.822903 625.938795 964.837557 C 626.275826 964.85221 626.539589 965.130627 626.539589 965.467657 L 626.136618 1010.783598 C 626.129291 1012.117066 627.198996 1013.216078 628.532464 1013.230732 L 647.948348 1013.479841 C 649.926571 1013.509148 650.908355 1012.527364 650.908355 1010.549142 L 650.791127 922.276473 C 650.791127 921.04558 649.787362 920.041815 648.549142 920.041815 C 641.881801 920.041815 635.141192 920.100429 628.327315 920.232311 C 626.64949 920.261618 625.521171 921.280036 624.751862 922.752712 C 618.406898 934.79056 612.318369 946.791775 606.478951 958.756355 C 606.215188 959.305861 605.900138 959.826061 605.548454 960.316953 C 604.786472 961.379331 603.914589 961.474579 602.940131 960.610023 C 602.295377 960.038536 601.797158 959.371802 601.452801 958.60982 C 595.430214 945.509594 589.730003 934.175113 584.337516 924.599053 C 582.732958 921.741621 580.351765 920.283598 577.201263 920.217657 C 571.647587 920.115083 565.800842 920.056469 559.661027 920.041815 C 558.261618 920.041815 557.55825 920.737856 557.55825 922.129938 L 557.470329 1011.399045 C 557.470329 1011.911917 557.675478 1012.402809 558.034488 1012.769147 C 558.400826 1013.128157 558.891718 1013.333306 559.397264 1013.333306 L 580.410379 1013.172118 C 580.952558 1013.164791 581.472757 1012.944989 581.853748 1012.549344 C 582.234739 1012.161027 582.447215 1011.633501 582.439888 1011.091321 L 581.861075 964.691022 C 581.853748 964.24409 582.073551 964.068248 582.513156 964.163496 " transform="matrix(0.533149,0,0,0.533149,0,0)"/>
<path style="fill:none;stroke-width:2;stroke-linecap:butt;stroke-linejoin:miter;stroke:rgb(53.725493%,53.725493%,53.725493%);stroke-opacity:1;stroke-miterlimit:4;" d="M 671.672361 938.446608 C 673.841078 940.212354 676.236925 942.740083 676.236925 945.648802 C 676.222272 961.093588 676.207618 975.930254 676.200291 990.18078 C 676.200291 991.638803 675.716726 993.221381 674.178109 993.682966 C 671.196122 994.562176 669.415722 996.386537 668.851562 999.148721 C 668.162848 1002.475065 668.016313 1006.394875 668.397304 1010.900826 C 668.529186 1012.432116 669.349781 1013.216078 670.866418 1013.238059 C 682.860306 1013.443208 694.685678 1013.553109 706.349862 1013.589743 C 706.877388 1013.589743 707.382934 1013.377267 707.749271 1013.003603 C 708.115609 1012.622612 708.313431 1012.117066 708.298778 1011.58954 C 708.18155 1007.486561 708.071648 1003.266354 707.969074 998.921592 C 707.903133 995.639208 704.159165 994.503562 701.946486 992.767123 C 701.602129 992.496033 701.35302 992.107715 701.243119 991.66811 C 701.03797 990.862168 700.598365 990.591078 700.613018 989.638601 C 700.752226 973.622328 700.803514 958.375364 700.781533 943.912362 C 700.759553 939.120669 707.859173 938.703044 708.013034 934.81254 C 708.152243 931.141839 708.166896 926.943612 708.056995 922.210533 C 708.035015 921.074887 707.111844 920.16637 705.983525 920.16637 L 670.228991 920.012508 C 669.188593 920.012508 668.661067 920.525381 668.639087 921.558452 C 668.558493 925.910541 668.5878 930.555699 668.727008 935.486601 C 668.748988 936.189969 669.173939 936.783436 670.009189 937.281655 C 670.588002 937.626012 671.144835 938.01433 671.672361 938.446608 " transform="matrix(0.533149,0,0,0.533149,0,0)"/>
<path style="fill:none;stroke-width:2;stroke-linecap:butt;stroke-linejoin:miter;stroke:rgb(53.725493%,53.725493%,53.725493%);stroke-opacity:1;stroke-miterlimit:4;" d="M 829.746964 922.591524 L 829.746964 1011.149935 C 829.746964 1012.593305 830.919244 1013.758258 832.362613 1013.758258 L 887.613625 1013.758258 C 900.962961 1013.758258 911.791896 1003.20774 911.791896 990.188107 L 911.791896 943.553352 C 911.791896 930.533719 900.962961 919.983201 887.613625 919.983201 L 832.362613 919.983201 C 830.919244 919.983201 829.746964 921.148154 829.746964 922.591524 " transform="matrix(0.533149,0,0,0.533149,0,0)"/>
<path style="fill:none;stroke-width:2;stroke-linecap:butt;stroke-linejoin:miter;stroke:rgb(53.725493%,53.725493%,53.725493%);stroke-opacity:1;stroke-miterlimit:4;" d="M 956.558331 944.146818 C 956.529024 941.992754 957.584075 940.915722 959.73814 940.930376 L 1009.017851 941.267406 C 1009.76518 941.274733 1010.475874 940.981663 1010.996074 940.461464 C 1011.523599 939.933938 1011.816669 939.223243 1011.809343 938.483242 L 1011.721422 923.573308 C 1011.706768 921.243402 1010.534488 920.078449 1008.211909 920.071122 C 984.348688 919.997855 959.921308 920.019835 934.922442 920.137063 C 934.512144 920.137063 934.145806 920.254291 933.823429 920.488747 C 933.347191 920.825777 933.112735 921.280036 933.120062 921.851522 C 933.28125 943.260282 933.244616 965.680133 933.017487 989.111075 C 932.980853 992.920984 933.222636 995.800397 933.742835 997.741985 C 935.706404 1005.046754 941.721665 1011.113301 949.019106 1012.886375 C 951.033962 1013.377267 954.917139 1013.604396 960.68329 1013.582416 C 978.157586 1013.501822 994.107918 1013.450534 1008.526959 1013.428554 C 1010.805578 1013.428554 1011.911917 1012.292908 1011.86063 1010.021616 L 1011.486966 995.558614 C 1011.443005 993.485144 1010.380627 992.459399 1008.307157 992.466726 L 959.679526 992.833063 C 957.73061 992.84039 956.756153 991.873259 956.748826 989.931671 L 956.741499 979.241945 C 956.741499 978.50927 957.034569 977.805902 957.554768 977.285703 C 958.074968 976.765504 958.778335 976.47976 959.51101 976.47976 L 1002.848729 976.589662 C 1003.493483 976.589662 1004.116256 976.333225 1004.570515 975.878967 C 1005.024773 975.417382 1005.273883 974.794608 1005.259229 974.149854 L 1005.061407 959.547644 C 1005.046754 958.265463 1004.013682 957.225065 1002.731501 957.203085 C 988.766718 956.910015 974.428271 956.704866 959.723486 956.587638 C 956.331201 956.558331 956.463083 953.239313 956.521697 950.806833 C 956.572984 948.432966 956.587638 946.212961 956.558331 944.146818 " transform="matrix(0.533149,0,0,0.533149,0,0)"/>
<path style="fill:none;stroke-width:2;stroke-linecap:butt;stroke-linejoin:miter;stroke:rgb(53.725493%,53.725493%,53.725493%);stroke-opacity:1;stroke-miterlimit:4;" d="M 1092.132489 924.92143 C 1086.234456 941.150178 1079.948106 958.705068 1073.273438 977.578773 C 1073.163536 977.871843 1072.936407 978.098972 1072.643337 978.19422 C 1072.357594 978.296794 1072.035217 978.252834 1071.778781 978.091645 C 1071.471057 977.886496 1071.199968 977.439564 1070.950858 976.743523 C 1064.217576 957.693977 1058.224296 940.930376 1052.978344 926.460047 C 1051.688836 922.877267 1050.457942 920.107756 1046.611399 920.056469 C 1040.647426 919.983201 1035.196324 920.027162 1030.243442 920.18835 C 1029.320272 920.217657 1028.822053 920.686569 1028.741459 921.602413 C 1028.206606 927.705594 1029.276312 934.189767 1031.950575 941.047604 C 1042.230003 967.387265 1050.919527 990.319989 1058.019147 1009.853101 C 1058.883703 1012.219641 1060.576182 1013.428554 1063.089257 1013.479841 C 1068.899369 1013.597069 1075.046511 1013.68499 1081.552664 1013.728951 C 1083.758015 1013.743604 1085.245345 1012.725186 1086.02198 1010.66637 C 1095.949725 984.238787 1105.291329 959.51101 1114.061448 936.497693 C 1115.893135 931.676692 1116.493928 926.928959 1115.871154 922.247166 C 1115.687986 920.928352 1114.940657 920.254291 1113.629169 920.217657 C 1107.899652 920.071122 1102.133501 920.012508 1096.352696 920.027162 C 1093.72972 920.041815 1092.85051 922.943208 1092.132489 924.92143 " transform="matrix(0.533149,0,0,0.533149,0,0)"/>
<path style="fill:none;stroke-width:2;stroke-linecap:butt;stroke-linejoin:miter;stroke:rgb(53.725493%,53.725493%,53.725493%);stroke-opacity:1;stroke-miterlimit:4;" d="M 577.662848 471.219843 C 575.596705 472.941629 573.867592 475.051733 572.482837 477.557481 C 571.449765 479.440455 570.907586 481.763034 570.870952 484.539872 C 570.790358 491.046025 573.274126 496.130789 578.322256 499.786836 C 590.396737 508.549628 605.702315 500.622085 607.468062 486.620669 C 607.827073 483.748583 607.343507 480.788577 606.010039 477.740649 C 604.735185 474.839257 602.881517 472.304202 600.44171 470.142811 C 599.752995 469.534691 599.056954 469.139046 598.353586 468.963204 C 597.532991 468.743402 596.763682 468.501619 596.052987 468.230529 C 596.0017 468.208549 596.0017 468.186569 596.038334 468.157262 C 596.067641 468.142608 596.074968 468.113301 596.060314 468.069341 C 596.038334 467.996074 595.987047 467.952113 595.906452 467.930133 C 591.774166 466.76518 587.971584 466.611318 584.498705 467.468548 C 582.271373 468.025381 579.992754 469.270928 577.662848 471.219843 " transform="matrix(0.533149,0,0,0.533149,0,0)"/>
<path style="fill:none;stroke-width:2;stroke-linecap:butt;stroke-linejoin:miter;stroke:rgb(53.725493%,53.725493%,53.725493%);stroke-opacity:1;stroke-miterlimit:4;" d="M 899.812662 488.679485 C 899.812662 478.70778 891.723931 470.61905 881.752226 470.61905 C 871.773195 470.61905 863.691791 478.70778 863.691791 488.679485 C 863.691791 498.65119 871.773195 506.739921 881.752226 506.739921 C 891.723931 506.739921 899.812662 498.65119 899.812662 488.679485 " transform="matrix(0.533149,0,0,0.533149,0,0)"/>
<path style="fill:none;stroke-width:2;stroke-linecap:butt;stroke-linejoin:miter;stroke:rgb(53.725493%,53.725493%,53.725493%);stroke-opacity:1;stroke-miterlimit:4;" d="M 607.438755 783.793596 C 607.438755 773.829218 599.364678 765.747814 589.4003 765.747814 C 579.435921 765.747814 571.361844 773.829218 571.361844 783.793596 C 571.361844 793.750648 579.435921 801.832051 589.4003 801.832051 C 599.364678 801.832051 607.438755 793.750648 607.438755 783.793596 " transform="matrix(0.533149,0,0,0.533149,0,0)"/>
<path style="fill:none;stroke-width:2;stroke-linecap:butt;stroke-linejoin:miter;stroke:rgb(53.725493%,53.725493%,53.725493%);stroke-opacity:1;stroke-miterlimit:4;" d="M 898.112856 784.431023 C 898.112856 774.386051 889.965512 766.238706 879.920539 766.238706 C 869.875567 766.238706 861.728222 774.386051 861.728222 784.431023 C 861.728222 794.475996 869.875567 802.62334 879.920539 802.62334 C 889.965512 802.62334 898.112856 794.475996 898.112856 784.431023 " transform="matrix(0.533149,0,0,0.533149,0,0)"/>
<path style="fill:none;stroke-width:2;stroke-linecap:butt;stroke-linejoin:miter;stroke:rgb(53.725493%,53.725493%,53.725493%);stroke-opacity:1;stroke-miterlimit:4;" d="M 408.847231 943.179688 C 408.847231 941.743645 407.682278 940.586018 406.246235 940.586018 L 378.587759 940.637306 C 377.151716 940.637306 375.986763 941.802259 375.986763 943.238301 L 376.074684 990.437217 C 376.074684 991.873259 377.239637 993.038212 378.67568 993.030886 L 406.334156 992.986925 C 407.770199 992.986925 408.935152 991.814645 408.927825 990.378603 L 408.847231 943.179688 " transform="matrix(0.533149,0,0,0.533149,0,0)"/>
<path style="fill:none;stroke-width:2;stroke-linecap:butt;stroke-linejoin:miter;stroke:rgb(53.725493%,53.725493%,53.725493%);stroke-opacity:1;stroke-miterlimit:4;" d="M 512.293596 942.901271 C 512.293596 941.670377 511.297158 940.681266 510.073591 940.681266 L 480.612735 940.681266 C 479.381841 940.681266 478.39273 941.670377 478.39273 942.901271 L 478.39273 990.803554 C 478.39273 992.027121 479.381841 993.023559 480.612735 993.023559 L 510.073591 993.023559 C 511.297158 993.023559 512.293596 992.027121 512.293596 990.803554 L 512.293596 942.901271 " transform="matrix(0.533149,0,0,0.533149,0,0)"/>
<path style="fill:none;stroke-width:2;stroke-linecap:butt;stroke-linejoin:miter;stroke:rgb(53.725493%,53.725493%,53.725493%);stroke-opacity:1;stroke-miterlimit:4;" d="M 887.181347 942.908598 C 887.181347 941.663051 886.170256 940.651959 884.917382 940.651959 L 856.43831 940.651959 C 855.192762 940.651959 854.181671 941.663051 854.181671 942.908598 L 854.181671 990.693653 C 854.181671 991.9392 855.192762 992.950291 856.43831 992.950291 L 884.917382 992.950291 C 886.170256 992.950291 887.181347 991.9392 887.181347 990.693653 L 887.181347 942.908598 " transform="matrix(0.533149,0,0,0.533149,0,0)"/>
<path style=" stroke:none;fill-rule:nonzero;fill:rgb(100%,100%,100%);fill-opacity:1;" d="M 74.816406 223.324219 C 76.875 210.34375 85.144531 200.121094 96.203125 193.683594 C 168.019531 151.855469 240.191406 110.230469 312.71875 68.8125 C 315.980469 66.949219 319.175781 65.0625 322.304688 63.152344 C 333.03125 56.601562 343.117188 50.476562 352.5625 44.773438 C 358.15625 41.390625 364.308594 38 371.019531 34.605469 C 378.722656 30.703125 385.648438 28.539062 393.953125 29.105469 C 401.648438 29.628906 408.425781 32.382812 415.273438 36.308594 C 420.546875 39.332031 425.832031 42.195312 431.03125 45.253906 C 446.511719 54.371094 461.589844 63.402344 476.753906 72.203125 C 545.734375 112.277344 613.972656 151.714844 681.460938 190.519531 C 686.730469 193.550781 691.609375 197.15625 696.09375 201.332031 C 702.351562 207.167969 706.300781 214.125 707.949219 222.199219 C 708.496094 224.894531 708.804688 228.441406 708.878906 232.835938 C 709.050781 242.984375 709.136719 252.863281 709.140625 262.46875 C 709.171875 357.332031 709.164062 452.054688 709.109375 546.636719 C 709.105469 554.394531 707.832031 561.796875 704.222656 568.570312 C 699.335938 577.742188 690.597656 583.660156 681.875 588.714844 C 612.003906 629.214844 539.84375 670.921875 465.390625 713.832031 C 451.070312 722.09375 432.320312 733.59375 416.773438 742.5 C 412.820312 744.769531 409.609375 746.414062 407.140625 747.441406 C 397.117188 751.621094 386.523438 751.402344 375.359375 746.792969 C 371.34375 745.132812 367.214844 743.039062 362.96875 740.507812 C 346.46875 730.675781 330.375 720.652344 314.296875 711.402344 C 246.691406 672.507812 179.925781 633.996094 114.003906 595.875 C 109.207031 593.105469 103.964844 589.929688 98.269531 586.339844 C 93.648438 583.433594 90.617188 581.402344 89.167969 580.242188 C 80.949219 573.65625 76.511719 565.070312 75.007812 554.71875 C 74.644531 552.226562 74.457031 548.679688 74.445312 544.078125 C 74.410156 532.355469 74.210938 521.183594 74.226562 509.800781 C 74.339844 419.429688 74.328125 327.292969 74.191406 233.390625 C 74.1875 229.355469 74.394531 226 74.816406 223.324219 Z M 300.414062 247.601562 C 300.273438 247.714844 300.152344 247.84375 300.039062 247.988281 C 297.9375 250.742188 296.640625 253.796875 296.148438 257.152344 C 295.890625 258.894531 296.003906 260.625 296.484375 262.347656 C 298.613281 269.9375 304.519531 275.855469 312.601562 276.289062 C 315.585938 276.449219 318.828125 276.015625 322.320312 274.992188 C 322.480469 274.945312 322.652344 274.941406 322.816406 274.980469 C 325.054688 275.574219 327.125 276.273438 329.023438 277.082031 C 351.5625 286.722656 379.625 298.796875 413.203125 313.308594 C 417.609375 315.214844 421.609375 313.304688 423.511719 308.769531 C 427.535156 299.183594 431.753906 289.355469 436.167969 279.28125 C 437.167969 277.003906 437.914062 274.6875 438.390625 272.238281 C 438.566406 271.332031 438.332031 270.570312 437.6875 269.953125 C 434.40625 266.808594 428.652344 263.222656 423.933594 263.78125 C 421.117188 264.117188 419.59375 266.371094 418.542969 268.882812 C 415.898438 275.210938 413.191406 281.59375 410.421875 288.035156 C 409.90625 289.230469 408.9375 289.523438 407.507812 288.910156 C 382.839844 278.289062 358.402344 267.707031 334.1875 257.164062 C 332.089844 256.253906 331.601562 254.621094 330.90625 252.707031 C 330.335938 251.152344 329.253906 249.324219 327.664062 247.214844 C 327.078125 246.445312 326.371094 245.753906 325.550781 245.140625 C 321.882812 242.429688 318.300781 240.875 313.570312 240.917969 C 308.753906 240.957031 304.585938 242.898438 301.0625 246.742188 C 301 246.8125 300.929688 246.878906 300.855469 246.945312 C 300.769531 247.011719 300.710938 247.097656 300.679688 247.207031 C 300.632812 247.363281 300.546875 247.496094 300.414062 247.601562 Z M 448.265625 360.558594 C 445.738281 359.621094 442.925781 358.703125 440.898438 356.882812 C 440.570312 356.589844 440.464844 356.121094 440.636719 355.71875 C 451.304688 330.746094 462.007812 305.660156 472.75 280.453125 C 473.070312 279.699219 473.578125 279.136719 474.273438 278.769531 C 483.304688 274 490.363281 267.730469 487.464844 256.402344 C 485.730469 249.640625 480.605469 244.621094 473.71875 243.285156 C 469.332031 242.4375 464.332031 243.320312 460.492188 245.570312 C 451.941406 250.582031 450.691406 260.992188 454.300781 269.558594 C 454.59375 270.253906 454.675781 271.117188 454.382812 271.816406 C 443.660156 296.855469 433.324219 321.21875 423.378906 344.90625 C 421.710938 348.875 420.027344 352.660156 418.320312 356.261719 C 417.558594 357.863281 416.863281 359.703125 416.230469 361.777344 C 415.121094 365.429688 415.945312 368.578125 419.523438 370.140625 C 430.03125 374.71875 441.769531 379.710938 454.746094 385.113281 C 459.515625 387.105469 462.023438 384.375 463.761719 380.285156 C 464.359375 378.871094 465 377.402344 465.671875 375.886719 C 467.863281 370.953125 465.214844 368.183594 460.945312 366.066406 C 456.625 363.917969 452.398438 362.082031 448.265625 360.558594 Z M 413.378906 267.070312 C 414.195312 265.167969 413.3125 262.960938 411.40625 262.144531 L 371.242188 244.929688 C 369.335938 244.113281 367.132812 244.996094 366.3125 246.902344 L 361.300781 258.601562 C 360.480469 260.507812 361.363281 262.714844 363.269531 263.53125 L 403.433594 280.746094 C 405.339844 281.5625 407.546875 280.679688 408.363281 278.773438 Z M 324.84375 431.855469 C 324.957031 431.804688 325.0625 431.734375 325.164062 431.652344 C 328.355469 428.96875 330.402344 425.617188 331.308594 421.59375 C 332.316406 417.125 331.535156 412.558594 328.964844 407.890625 C 328.667969 407.355469 328.535156 406.894531 328.558594 406.515625 C 328.589844 406.0625 328.691406 405.628906 328.855469 405.21875 C 340.886719 376.175781 353.25 346.363281 365.9375 315.773438 C 368.308594 310.054688 360.53125 306.433594 356.523438 304.871094 C 346.878906 301.117188 337.558594 297.277344 328.558594 293.355469 C 325.496094 292.023438 322.875 292.238281 320.695312 294.003906 C 318.707031 295.613281 317.703125 298.441406 316.59375 300.777344 C 314.140625 305.953125 315.265625 309.898438 320.683594 312.09375 C 327.417969 314.832031 334.007812 317.519531 340.453125 320.160156 C 341.535156 320.601562 341.847656 321.359375 341.398438 322.4375 C 330.941406 347.300781 320.777344 371.820312 310.90625 396 C 309.925781 398.402344 308.832031 400.089844 306.742188 401.523438 C 305.128906 402.632812 303.585938 403.722656 302.113281 404.792969 C 300.316406 406.097656 298.863281 408.042969 297.753906 410.625 C 296.363281 413.859375 295.9375 417.242188 296.472656 420.773438 C 297.671875 428.636719 305.242188 435.667969 313.34375 436.007812 C 317.304688 436.171875 320.886719 435 324.085938 432.492188 C 324.210938 432.390625 324.328125 432.28125 324.4375 432.160156 C 324.546875 432.03125 324.683594 431.925781 324.84375 431.855469 Z M 484.78125 318.730469 C 485.597656 316.839844 484.722656 314.648438 482.832031 313.832031 L 471.082031 308.773438 C 469.191406 307.957031 467 308.832031 466.183594 310.71875 L 448.941406 350.757812 C 448.128906 352.644531 449 354.839844 450.890625 355.652344 L 462.644531 360.714844 C 464.535156 361.527344 466.726562 360.65625 467.539062 358.765625 Z M 332.875 327.507812 C 333.710938 325.5 332.761719 323.191406 330.753906 322.355469 L 319.390625 317.628906 C 317.382812 316.792969 315.078125 317.742188 314.242188 319.75 L 297.667969 359.5625 C 296.832031 361.570312 297.785156 363.875 299.792969 364.710938 L 311.152344 369.441406 C 313.160156 370.277344 315.46875 369.328125 316.304688 367.316406 Z M 447.8125 419.21875 C 449.675781 419.992188 451.097656 421.199219 451.796875 423.1875 C 455.535156 433.765625 467.667969 439.929688 477.882812 433.695312 C 484.472656 429.675781 487.464844 424.015625 486.855469 416.71875 C 485.859375 404.761719 474.757812 398.082031 463.476562 401.199219 C 460.6875 401.972656 458.4375 401.839844 455.835938 400.753906 C 427.550781 388.917969 398.917969 376.875 369.929688 364.625 C 365.363281 362.703125 361.347656 363.671875 359.191406 368.660156 C 354.917969 378.582031 350.238281 389.636719 345.15625 401.828125 C 344.308594 403.855469 344.042969 406.847656 345.730469 408.566406 C 348.449219 411.351562 352.144531 413.179688 356.0625 413.898438 C 360.140625 414.640625 362.566406 411.992188 364.113281 408.617188 C 366.921875 402.484375 369.53125 396.195312 371.945312 389.742188 C 372.441406 388.414062 373.625 388.050781 374.972656 388.625 C 398.988281 398.855469 423.265625 409.054688 447.8125 419.21875 Z M 421.484375 418.664062 C 422.28125 416.777344 421.398438 414.597656 419.511719 413.800781 L 379.257812 396.796875 C 377.371094 396 375.191406 396.882812 374.394531 398.773438 L 369.441406 410.5 C 368.644531 412.386719 369.527344 414.566406 371.414062 415.363281 L 411.667969 432.367188 C 413.558594 433.164062 415.734375 432.28125 416.53125 430.390625 Z M 187.472656 491.679688 L 187.304688 539.015625 C 187.304688 539.777344 187.917969 540.398438 188.679688 540.398438 L 217.476562 540.496094 C 225.019531 540.523438 231.15625 534.4375 231.183594 526.902344 L 231.257812 504.09375 C 231.285156 496.558594 225.191406 490.429688 217.648438 490.402344 L 188.851562 490.304688 C 188.089844 490.304688 187.472656 490.921875 187.472656 491.679688 Z M 400.511719 513.4375 C 400.589844 513.433594 400.726562 513.566406 400.917969 513.832031 C 406.90625 522.285156 412.882812 530.75 418.84375 539.222656 C 419.347656 539.941406 420.039062 540.300781 420.921875 540.308594 C 423.886719 540.34375 426.777344 540.34375 429.59375 540.308594 C 430.460938 540.296875 430.898438 539.859375 430.898438 538.992188 C 430.890625 523.601562 430.871094 508.222656 430.84375 492.859375 C 430.839844 492.21875 430.757812 491.679688 430.597656 491.238281 C 430.453125 490.847656 430.082031 490.589844 429.664062 490.585938 L 419.492188 490.628906 C 418.785156 490.632812 418.210938 491.207031 418.210938 491.914062 C 418.207031 499.007812 418.199219 506.53125 418.195312 514.488281 C 418.195312 515.136719 418.171875 515.796875 418.117188 516.476562 C 418.054688 517.171875 417.808594 517.242188 417.375 516.695312 C 414.511719 513.078125 411.582031 509.136719 408.589844 504.871094 C 407.496094 503.3125 405.445312 500.167969 402.4375 495.441406 C 401.386719 493.792969 400.433594 492.648438 399.570312 492 C 396.613281 489.792969 391.644531 490.171875 388.152344 490.613281 C 387.796875 490.660156 387.53125 490.964844 387.53125 491.328125 L 387.480469 539.054688 C 387.480469 539.414062 387.625 539.757812 387.882812 540.011719 C 388.136719 540.261719 388.484375 540.398438 388.839844 540.394531 L 398.890625 540.21875 C 399.667969 540.207031 400.292969 539.566406 400.28125 538.785156 L 399.96875 514.089844 C 399.960938 513.6875 400.144531 513.46875 400.511719 513.4375 Z M 285.949219 502.789062 C 285.972656 496.0625 280.542969 490.59375 273.816406 490.570312 L 254.292969 490.5 C 247.566406 490.476562 242.097656 495.910156 242.074219 502.636719 L 241.984375 528.203125 C 241.960938 534.929688 247.394531 540.402344 254.117188 540.425781 L 273.640625 540.492188 C 280.367188 540.515625 285.839844 535.082031 285.863281 528.359375 Z M 310.566406 514.042969 C 310.804688 514.089844 310.984375 514.226562 311.101562 514.445312 C 313.402344 518.761719 315.742188 523.210938 318.121094 527.796875 C 318.535156 528.601562 319.207031 529.113281 320.140625 529.34375 C 323.554688 530.175781 325.988281 528.894531 327.4375 525.5 C 329.140625 521.519531 331.023438 517.929688 333.085938 514.738281 C 333.234375 514.503906 333.445312 514.394531 333.71875 514.402344 C 333.898438 514.410156 334.039062 514.558594 334.039062 514.738281 L 333.824219 538.898438 C 333.820312 539.609375 334.390625 540.195312 335.101562 540.203125 L 345.453125 540.335938 C 346.507812 540.351562 347.03125 539.828125 347.03125 538.773438 L 346.96875 491.710938 C 346.96875 491.054688 346.433594 490.519531 345.773438 490.519531 C 342.21875 490.519531 338.625 490.550781 334.992188 490.621094 C 334.097656 490.636719 333.496094 491.179688 333.085938 491.964844 C 329.703125 498.382812 326.457031 504.78125 323.34375 511.160156 C 323.203125 511.453125 323.035156 511.730469 322.847656 511.992188 C 322.441406 512.558594 321.976562 512.609375 321.457031 512.148438 C 321.113281 511.84375 320.847656 511.488281 320.664062 511.082031 C 317.453125 504.097656 314.414062 498.054688 311.539062 492.949219 C 310.683594 491.425781 309.414062 490.648438 307.734375 490.613281 C 304.773438 490.558594 301.65625 490.527344 298.382812 490.519531 C 297.636719 490.519531 297.261719 490.890625 297.261719 491.632812 L 297.214844 539.226562 C 297.214844 539.5 297.324219 539.761719 297.515625 539.957031 C 297.710938 540.148438 297.972656 540.257812 298.242188 540.257812 L 309.445312 540.171875 C 309.734375 540.167969 310.011719 540.050781 310.214844 539.839844 C 310.417969 539.632812 310.53125 539.351562 310.527344 539.0625 L 310.21875 514.324219 C 310.214844 514.085938 310.332031 513.992188 310.566406 514.042969 Z M 358.101562 500.332031 C 359.257812 501.273438 360.535156 502.621094 360.535156 504.171875 C 360.527344 512.40625 360.519531 520.316406 360.515625 527.914062 C 360.515625 528.691406 360.257812 529.535156 359.4375 529.78125 C 357.847656 530.25 356.898438 531.222656 356.597656 532.695312 C 356.230469 534.46875 356.152344 536.558594 356.355469 538.960938 C 356.425781 539.777344 356.863281 540.195312 357.671875 540.207031 C 364.066406 540.316406 370.371094 540.375 376.589844 540.394531 C 376.871094 540.394531 377.140625 540.28125 377.335938 540.082031 C 377.53125 539.878906 377.636719 539.609375 377.628906 539.328125 C 377.566406 537.140625 377.507812 534.890625 377.453125 532.574219 C 377.417969 530.824219 375.421875 530.21875 374.242188 529.292969 C 374.058594 529.148438 373.925781 528.941406 373.867188 528.707031 C 373.757812 528.277344 373.523438 528.132812 373.53125 527.625 C 373.605469 519.085938 373.632812 510.957031 373.621094 503.246094 C 373.609375 500.691406 377.394531 500.46875 377.476562 498.394531 C 377.550781 496.4375 377.558594 494.199219 377.5 491.675781 C 377.488281 491.070312 376.996094 490.585938 376.394531 490.585938 L 357.332031 490.503906 C 356.777344 490.503906 356.496094 490.777344 356.484375 491.328125 C 356.441406 493.648438 356.457031 496.125 356.53125 498.753906 C 356.542969 499.128906 356.769531 499.445312 357.214844 499.710938 C 357.523438 499.894531 357.820312 500.101562 358.101562 500.332031 Z M 442.378906 491.878906 L 442.378906 539.09375 C 442.378906 539.863281 443.003906 540.484375 443.773438 540.484375 L 473.230469 540.484375 C 480.347656 540.484375 486.121094 534.859375 486.121094 527.917969 L 486.121094 503.054688 C 486.121094 496.113281 480.347656 490.488281 473.230469 490.488281 L 443.773438 490.488281 C 443.003906 490.488281 442.378906 491.109375 442.378906 491.878906 Z M 509.988281 503.371094 C 509.972656 502.222656 510.535156 501.648438 511.683594 501.65625 L 537.957031 501.835938 C 538.355469 501.839844 538.734375 501.683594 539.011719 501.40625 C 539.292969 501.125 539.449219 500.746094 539.445312 500.351562 L 539.398438 492.402344 C 539.390625 491.160156 538.765625 490.539062 537.527344 490.535156 C 524.804688 490.496094 511.78125 490.507812 498.453125 490.570312 C 498.234375 490.570312 498.039062 490.632812 497.867188 490.757812 C 497.613281 490.9375 497.488281 491.179688 497.492188 491.484375 C 497.578125 502.898438 497.558594 514.851562 497.4375 527.34375 C 497.417969 529.375 497.546875 530.910156 497.824219 531.945312 C 498.871094 535.839844 502.078125 539.074219 505.96875 540.019531 C 507.042969 540.28125 509.113281 540.402344 512.1875 540.390625 C 521.503906 540.347656 530.007812 540.320312 537.695312 540.308594 C 538.910156 540.308594 539.5 539.703125 539.472656 538.492188 L 539.273438 530.78125 C 539.25 529.675781 538.683594 529.128906 537.578125 529.132812 L 511.652344 529.328125 C 510.613281 529.332031 510.09375 528.816406 510.089844 527.78125 L 510.085938 522.082031 C 510.085938 521.691406 510.242188 521.316406 510.519531 521.039062 C 510.796875 520.761719 511.171875 520.609375 511.5625 520.609375 L 534.667969 520.667969 C 535.011719 520.667969 535.34375 520.53125 535.585938 520.289062 C 535.828125 520.042969 535.960938 519.710938 535.953125 519.367188 L 535.847656 511.582031 C 535.839844 510.898438 535.289062 510.34375 534.605469 510.332031 C 527.160156 510.175781 519.515625 510.066406 511.675781 510.003906 C 509.867188 509.988281 509.9375 508.21875 509.96875 506.921875 C 509.996094 505.65625 510.003906 504.472656 509.988281 503.371094 Z M 582.269531 493.121094 C 579.125 501.773438 575.773438 511.132812 572.214844 521.195312 C 572.15625 521.351562 572.035156 521.472656 571.878906 521.523438 C 571.726562 521.578125 571.554688 521.554688 571.417969 521.46875 C 571.253906 521.359375 571.109375 521.121094 570.976562 520.75 C 567.386719 510.59375 564.191406 501.65625 561.394531 493.941406 C 560.707031 492.03125 560.050781 490.554688 558 490.527344 C 554.820312 490.488281 551.914062 490.511719 549.273438 490.597656 C 548.78125 490.613281 548.515625 490.863281 548.472656 491.351562 C 548.1875 494.605469 548.757812 498.0625 550.183594 501.71875 C 555.664062 515.761719 560.296875 527.988281 564.082031 538.402344 C 564.542969 539.664062 565.445312 540.308594 566.785156 540.335938 C 569.882812 540.398438 573.160156 540.445312 576.628906 540.46875 C 577.804688 540.476562 578.597656 539.933594 579.011719 538.835938 C 584.304688 524.746094 589.285156 511.5625 593.960938 499.292969 C 594.9375 496.722656 595.257812 494.191406 594.925781 491.695312 C 594.828125 490.992188 594.429688 490.632812 593.730469 490.613281 C 590.675781 490.535156 587.601562 490.503906 584.519531 490.511719 C 583.121094 490.519531 582.652344 492.066406 582.269531 493.121094 Z M 582.269531 493.121094 "/>
<path style=" stroke:none;fill-rule:nonzero;fill:rgb(7.058824%,7.058824%,7.058824%);fill-opacity:1;" d="M 300.679688 247.207031 C 300.710938 247.097656 300.769531 247.011719 300.855469 246.945312 C 300.929688 246.878906 301 246.8125 301.0625 246.742188 C 304.585938 242.898438 308.753906 240.957031 313.570312 240.917969 C 318.300781 240.875 321.882812 242.429688 325.550781 245.140625 C 326.371094 245.753906 327.078125 246.445312 327.664062 247.214844 C 329.253906 249.324219 330.335938 251.152344 330.90625 252.707031 C 331.601562 254.621094 332.089844 256.253906 334.1875 257.164062 C 358.402344 267.707031 382.839844 278.289062 407.507812 288.910156 C 408.9375 289.523438 409.90625 289.230469 410.421875 288.035156 C 413.191406 281.59375 415.898438 275.210938 418.542969 268.882812 C 419.59375 266.371094 421.117188 264.117188 423.933594 263.78125 C 428.652344 263.222656 434.40625 266.808594 437.6875 269.953125 C 438.332031 270.570312 438.566406 271.332031 438.390625 272.238281 C 437.914062 274.6875 437.167969 277.003906 436.167969 279.28125 C 431.753906 289.355469 427.535156 299.183594 423.511719 308.769531 C 421.609375 313.304688 417.609375 315.214844 413.203125 313.308594 C 379.625 298.796875 351.5625 286.722656 329.023438 277.082031 C 327.125 276.273438 325.054688 275.574219 322.816406 274.980469 C 322.652344 274.941406 322.480469 274.945312 322.320312 274.992188 C 318.828125 276.015625 315.585938 276.449219 312.601562 276.289062 C 304.519531 275.855469 298.613281 269.9375 296.484375 262.347656 C 296.003906 260.625 295.890625 258.894531 296.148438 257.152344 C 296.640625 253.796875 297.9375 250.742188 300.039062 247.988281 C 300.152344 247.84375 300.273438 247.714844 300.414062 247.601562 C 300.546875 247.496094 300.632812 247.363281 300.679688 247.207031 Z M 307.980469 251.230469 C 306.878906 252.148438 305.957031 253.273438 305.21875 254.609375 C 304.667969 255.613281 304.378906 256.851562 304.359375 258.332031 C 304.316406 261.800781 305.640625 264.511719 308.332031 266.460938 C 314.769531 271.132812 322.929688 266.90625 323.871094 259.441406 C 324.0625 257.910156 323.804688 256.332031 323.09375 254.707031 C 322.414062 253.160156 321.425781 251.808594 320.125 250.65625 C 319.757812 250.332031 319.386719 250.121094 319.011719 250.027344 C 318.574219 249.910156 318.164062 249.78125 317.785156 249.636719 C 317.757812 249.625 317.757812 249.613281 317.777344 249.597656 C 317.792969 249.589844 317.796875 249.574219 317.789062 249.550781 C 317.777344 249.511719 317.75 249.488281 317.707031 249.476562 C 315.503906 248.855469 313.476562 248.773438 311.625 249.230469 C 310.4375 249.527344 309.222656 250.191406 307.980469 251.230469 Z M 307.980469 251.230469 "/>
<path style=" stroke:none;fill-rule:nonzero;fill:rgb(7.058824%,7.058824%,7.058824%);fill-opacity:1;" d="M 448.265625 360.558594 C 452.398438 362.082031 456.625 363.917969 460.945312 366.066406 C 465.214844 368.183594 467.863281 370.953125 465.671875 375.886719 C 465 377.402344 464.359375 378.871094 463.761719 380.285156 C 462.023438 384.375 459.515625 387.105469 454.746094 385.113281 C 441.769531 379.710938 430.03125 374.71875 419.523438 370.140625 C 415.945312 368.578125 415.121094 365.429688 416.230469 361.777344 C 416.863281 359.703125 417.558594 357.863281 418.320312 356.261719 C 420.027344 352.660156 421.710938 348.875 423.378906 344.90625 C 433.324219 321.21875 443.660156 296.855469 454.382812 271.816406 C 454.675781 271.117188 454.59375 270.253906 454.300781 269.558594 C 450.691406 260.992188 451.941406 250.582031 460.492188 245.570312 C 464.332031 243.320312 469.332031 242.4375 473.71875 243.285156 C 480.605469 244.621094 485.730469 249.640625 487.464844 256.402344 C 490.363281 267.730469 483.304688 274 474.273438 278.769531 C 473.578125 279.136719 473.070312 279.699219 472.75 280.453125 C 462.007812 305.660156 451.304688 330.746094 440.636719 355.71875 C 440.464844 356.121094 440.570312 356.589844 440.898438 356.882812 C 442.925781 358.703125 445.738281 359.621094 448.265625 360.558594 Z M 479.734375 260.539062 C 479.734375 255.222656 475.421875 250.910156 470.105469 250.910156 C 464.785156 250.910156 460.476562 255.222656 460.476562 260.539062 C 460.476562 265.855469 464.785156 270.167969 470.105469 270.167969 C 475.421875 270.167969 479.734375 265.855469 479.734375 260.539062 Z M 479.734375 260.539062 "/>
<path style=" stroke:none;fill-rule:nonzero;fill:rgb(7.058824%,7.058824%,7.058824%);fill-opacity:1;" d="M 371.242188 244.929688 L 411.40625 262.144531 C 413.3125 262.960938 414.195312 265.167969 413.378906 267.070312 L 408.363281 278.773438 C 407.546875 280.679688 405.339844 281.5625 403.433594 280.746094 L 363.269531 263.53125 C 361.363281 262.714844 360.480469 260.507812 361.300781 258.601562 L 366.3125 246.902344 C 367.132812 244.996094 369.335938 244.113281 371.242188 244.929688 Z M 371.242188 244.929688 "/>
<path style=" stroke:none;fill-rule:nonzero;fill:rgb(100%,100%,100%);fill-opacity:1;" d="M 307.980469 251.230469 C 309.222656 250.191406 310.4375 249.527344 311.625 249.230469 C 313.476562 248.773438 315.503906 248.855469 317.707031 249.476562 C 317.75 249.488281 317.777344 249.511719 317.789062 249.550781 C 317.796875 249.574219 317.792969 249.589844 317.777344 249.597656 C 317.757812 249.613281 317.757812 249.625 317.785156 249.636719 C 318.164062 249.78125 318.574219 249.910156 319.011719 250.027344 C 319.386719 250.121094 319.757812 250.332031 320.125 250.65625 C 321.425781 251.808594 322.414062 253.160156 323.09375 254.707031 C 323.804688 256.332031 324.0625 257.910156 323.871094 259.441406 C 322.929688 266.90625 314.769531 271.132812 308.332031 266.460938 C 305.640625 264.511719 304.316406 261.800781 304.359375 258.332031 C 304.378906 256.851562 304.667969 255.613281 305.21875 254.609375 C 305.957031 253.273438 306.878906 252.148438 307.980469 251.230469 Z M 307.980469 251.230469 "/>
<path style=" stroke:none;fill-rule:nonzero;fill:rgb(100%,100%,100%);fill-opacity:1;" d="M 479.734375 260.539062 C 479.734375 255.222656 475.421875 250.910156 470.105469 250.910156 C 464.785156 250.910156 460.476562 255.222656 460.476562 260.539062 C 460.476562 265.855469 464.785156 270.167969 470.105469 270.167969 C 475.421875 270.167969 479.734375 265.855469 479.734375 260.539062 Z M 479.734375 260.539062 "/>
<path style=" stroke:none;fill-rule:nonzero;fill:rgb(7.058824%,7.058824%,7.058824%);fill-opacity:1;" d="M 324.4375 432.160156 C 324.328125 432.28125 324.210938 432.390625 324.085938 432.492188 C 320.886719 435 317.304688 436.171875 313.34375 436.007812 C 305.242188 435.667969 297.671875 428.636719 296.472656 420.773438 C 295.9375 417.242188 296.363281 413.859375 297.753906 410.625 C 298.863281 408.042969 300.316406 406.097656 302.113281 404.792969 C 303.585938 403.722656 305.128906 402.632812 306.742188 401.523438 C 308.832031 400.089844 309.925781 398.402344 310.90625 396 C 320.777344 371.820312 330.941406 347.300781 341.398438 322.4375 C 341.847656 321.359375 341.535156 320.601562 340.453125 320.160156 C 334.007812 317.519531 327.417969 314.832031 320.683594 312.09375 C 315.265625 309.898438 314.140625 305.953125 316.59375 300.777344 C 317.703125 298.441406 318.707031 295.613281 320.695312 294.003906 C 322.875 292.238281 325.496094 292.023438 328.558594 293.355469 C 337.558594 297.277344 346.878906 301.117188 356.523438 304.871094 C 360.53125 306.433594 368.308594 310.054688 365.9375 315.773438 C 353.25 346.363281 340.886719 376.175781 328.855469 405.21875 C 328.691406 405.628906 328.589844 406.0625 328.558594 406.515625 C 328.535156 406.894531 328.667969 407.355469 328.964844 407.890625 C 331.535156 412.558594 332.316406 417.125 331.308594 421.59375 C 330.402344 425.617188 328.355469 428.96875 325.164062 431.652344 C 325.0625 431.734375 324.957031 431.804688 324.84375 431.855469 C 324.683594 431.925781 324.546875 432.03125 324.4375 432.160156 Z M 323.855469 417.878906 C 323.855469 412.566406 319.550781 408.257812 314.238281 408.257812 C 308.925781 408.257812 304.621094 412.566406 304.621094 417.878906 C 304.621094 423.1875 308.925781 427.496094 314.238281 427.496094 C 319.550781 427.496094 323.855469 423.1875 323.855469 417.878906 Z M 323.855469 417.878906 "/>
<path style=" stroke:none;fill-rule:nonzero;fill:rgb(7.058824%,7.058824%,7.058824%);fill-opacity:1;" d="M 471.082031 308.773438 L 482.832031 313.832031 C 484.722656 314.648438 485.597656 316.839844 484.78125 318.730469 L 467.539062 358.765625 C 466.726562 360.65625 464.535156 361.527344 462.644531 360.714844 L 450.890625 355.652344 C 449 354.839844 448.128906 352.644531 448.941406 350.757812 L 466.183594 310.71875 C 467 308.832031 469.191406 307.957031 471.082031 308.773438 Z M 471.082031 308.773438 "/>
<path style=" stroke:none;fill-rule:nonzero;fill:rgb(7.058824%,7.058824%,7.058824%);fill-opacity:1;" d="M 319.390625 317.628906 L 330.753906 322.355469 C 332.761719 323.191406 333.710938 325.5 332.875 327.507812 L 316.304688 367.316406 C 315.46875 369.328125 313.160156 370.277344 311.152344 369.441406 L 299.792969 364.710938 C 297.785156 363.875 296.832031 361.570312 297.667969 359.5625 L 314.242188 319.75 C 315.078125 317.742188 317.382812 316.792969 319.390625 317.628906 Z M 319.390625 317.628906 "/>
<path style=" stroke:none;fill-rule:nonzero;fill:rgb(7.058824%,7.058824%,7.058824%);fill-opacity:1;" d="M 447.8125 419.21875 C 423.265625 409.054688 398.988281 398.855469 374.972656 388.625 C 373.625 388.050781 372.441406 388.414062 371.945312 389.742188 C 369.53125 396.195312 366.921875 402.484375 364.113281 408.617188 C 362.566406 411.992188 360.140625 414.640625 356.0625 413.898438 C 352.144531 413.179688 348.449219 411.351562 345.730469 408.566406 C 344.042969 406.847656 344.308594 403.855469 345.15625 401.828125 C 350.238281 389.636719 354.917969 378.582031 359.191406 368.660156 C 361.347656 363.671875 365.363281 362.703125 369.929688 364.625 C 398.917969 376.875 427.550781 388.917969 455.835938 400.753906 C 458.4375 401.839844 460.6875 401.972656 463.476562 401.199219 C 474.757812 398.082031 485.859375 404.761719 486.855469 416.71875 C 487.464844 424.015625 484.472656 429.675781 477.882812 433.695312 C 467.667969 439.929688 455.535156 433.765625 451.796875 423.1875 C 451.097656 421.199219 449.675781 419.992188 447.8125 419.21875 Z M 478.828125 418.21875 C 478.828125 412.863281 474.484375 408.519531 469.128906 408.519531 C 463.773438 408.519531 459.429688 412.863281 459.429688 418.21875 C 459.429688 423.574219 463.773438 427.917969 469.128906 427.917969 C 474.484375 427.917969 478.828125 423.574219 478.828125 418.21875 Z M 478.828125 418.21875 "/>
<path style=" stroke:none;fill-rule:nonzero;fill:rgb(7.058824%,7.058824%,7.058824%);fill-opacity:1;" d="M 379.257812 396.796875 L 419.511719 413.800781 C 421.398438 414.597656 422.28125 416.777344 421.484375 418.664062 L 416.53125 430.390625 C 415.734375 432.28125 413.558594 433.164062 411.667969 432.367188 L 371.414062 415.363281 C 369.527344 414.566406 368.644531 412.386719 369.441406 410.5 L 374.394531 398.773438 C 375.191406 396.882812 377.371094 396 379.257812 396.796875 Z M 379.257812 396.796875 "/>
<path style=" stroke:none;fill-rule:nonzero;fill:rgb(100%,100%,100%);fill-opacity:1;" d="M 323.855469 417.878906 C 323.855469 412.566406 319.550781 408.257812 314.238281 408.257812 C 308.925781 408.257812 304.621094 412.566406 304.621094 417.878906 C 304.621094 423.1875 308.925781 427.496094 314.238281 427.496094 C 319.550781 427.496094 323.855469 423.1875 323.855469 417.878906 Z M 323.855469 417.878906 "/>
<path style=" stroke:none;fill-rule:nonzero;fill:rgb(100%,100%,100%);fill-opacity:1;" d="M 478.828125 418.21875 C 478.828125 412.863281 474.484375 408.519531 469.128906 408.519531 C 463.773438 408.519531 459.429688 412.863281 459.429688 418.21875 C 459.429688 423.574219 463.773438 427.917969 469.128906 427.917969 C 474.484375 427.917969 478.828125 423.574219 478.828125 418.21875 Z M 478.828125 418.21875 "/>
<path style=" stroke:none;fill-rule:nonzero;fill:rgb(7.058824%,7.058824%,7.058824%);fill-opacity:1;" d="M 187.472656 491.679688 C 187.472656 490.921875 188.089844 490.304688 188.851562 490.304688 L 217.648438 490.402344 C 225.191406 490.429688 231.285156 496.558594 231.257812 504.09375 L 231.183594 526.902344 C 231.15625 534.4375 225.019531 540.523438 217.476562 540.496094 L 188.679688 540.398438 C 187.917969 540.398438 187.304688 539.777344 187.304688 539.015625 Z M 217.976562 502.855469 C 217.976562 502.089844 217.355469 501.472656 216.589844 501.472656 L 201.84375 501.5 C 201.078125 501.5 200.457031 502.121094 200.457031 502.886719 L 200.503906 528.050781 C 200.503906 528.816406 201.125 529.4375 201.890625 529.433594 L 216.636719 529.410156 C 217.402344 529.410156 218.023438 528.785156 218.019531 528.019531 Z M 217.976562 502.855469 "/>
<path style=" stroke:none;fill-rule:nonzero;fill:rgb(7.058824%,7.058824%,7.058824%);fill-opacity:1;" d="M 400.511719 513.4375 C 400.144531 513.46875 399.960938 513.6875 399.96875 514.089844 L 400.28125 538.785156 C 400.292969 539.566406 399.667969 540.207031 398.890625 540.21875 L 388.839844 540.394531 C 388.484375 540.398438 388.136719 540.261719 387.882812 540.011719 C 387.625 539.757812 387.480469 539.414062 387.480469 539.054688 L 387.53125 491.328125 C 387.53125 490.964844 387.796875 490.660156 388.152344 490.613281 C 391.644531 490.171875 396.613281 489.792969 399.570312 492 C 400.433594 492.648438 401.386719 493.792969 402.4375 495.441406 C 405.445312 500.167969 407.496094 503.3125 408.589844 504.871094 C 411.582031 509.136719 414.511719 513.078125 417.375 516.695312 C 417.808594 517.242188 418.054688 517.171875 418.117188 516.476562 C 418.171875 515.796875 418.195312 515.136719 418.195312 514.488281 C 418.199219 506.53125 418.207031 499.007812 418.210938 491.914062 C 418.210938 491.207031 418.785156 490.632812 419.492188 490.628906 L 429.664062 490.585938 C 430.082031 490.589844 430.453125 490.847656 430.597656 491.238281 C 430.757812 491.679688 430.839844 492.21875 430.84375 492.859375 C 430.871094 508.222656 430.890625 523.601562 430.898438 538.992188 C 430.898438 539.859375 430.460938 540.296875 429.59375 540.308594 C 426.777344 540.34375 423.886719 540.34375 420.921875 540.308594 C 420.039062 540.300781 419.347656 539.941406 418.84375 539.222656 C 412.882812 530.75 406.90625 522.285156 400.917969 513.832031 C 400.726562 513.566406 400.589844 513.433594 400.511719 513.4375 Z M 400.511719 513.4375 "/>
<path style=" stroke:none;fill-rule:nonzero;fill:rgb(7.058824%,7.058824%,7.058824%);fill-opacity:1;" d="M 285.863281 528.359375 C 285.839844 535.082031 280.367188 540.515625 273.640625 540.492188 L 254.117188 540.425781 C 247.394531 540.402344 241.960938 534.929688 241.984375 528.203125 L 242.074219 502.636719 C 242.097656 495.910156 247.566406 490.476562 254.292969 490.5 L 273.816406 490.570312 C 280.542969 490.59375 285.972656 496.0625 285.949219 502.789062 Z M 273.128906 502.707031 C 273.128906 502.050781 272.597656 501.523438 271.945312 501.523438 L 256.238281 501.523438 C 255.582031 501.523438 255.054688 502.050781 255.054688 502.707031 L 255.054688 528.246094 C 255.054688 528.898438 255.582031 529.429688 256.238281 529.429688 L 271.945312 529.429688 C 272.597656 529.429688 273.128906 528.898438 273.128906 528.246094 Z M 273.128906 502.707031 "/>
<path style=" stroke:none;fill-rule:nonzero;fill:rgb(7.058824%,7.058824%,7.058824%);fill-opacity:1;" d="M 310.566406 514.042969 C 310.332031 513.992188 310.214844 514.085938 310.21875 514.324219 L 310.527344 539.0625 C 310.53125 539.351562 310.417969 539.632812 310.214844 539.839844 C 310.011719 540.050781 309.734375 540.167969 309.445312 540.171875 L 298.242188 540.257812 C 297.972656 540.257812 297.710938 540.148438 297.515625 539.957031 C 297.324219 539.761719 297.214844 539.5 297.214844 539.226562 L 297.261719 491.632812 C 297.261719 490.890625 297.636719 490.519531 298.382812 490.519531 C 301.65625 490.527344 304.773438 490.558594 307.734375 490.613281 C 309.414062 490.648438 310.683594 491.425781 311.539062 492.949219 C 314.414062 498.054688 317.453125 504.097656 320.664062 511.082031 C 320.847656 511.488281 321.113281 511.84375 321.457031 512.148438 C 321.976562 512.609375 322.441406 512.558594 322.847656 511.992188 C 323.035156 511.730469 323.203125 511.453125 323.34375 511.160156 C 326.457031 504.78125 329.703125 498.382812 333.085938 491.964844 C 333.496094 491.179688 334.097656 490.636719 334.992188 490.621094 C 338.625 490.550781 342.21875 490.519531 345.773438 490.519531 C 346.433594 490.519531 346.96875 491.054688 346.96875 491.710938 L 347.03125 538.773438 C 347.03125 539.828125 346.507812 540.351562 345.453125 540.335938 L 335.101562 540.203125 C 334.390625 540.195312 333.820312 539.609375 333.824219 538.898438 L 334.039062 514.738281 C 334.039062 514.558594 333.898438 514.410156 333.71875 514.402344 C 333.445312 514.394531 333.234375 514.503906 333.085938 514.738281 C 331.023438 517.929688 329.140625 521.519531 327.4375 525.5 C 325.988281 528.894531 323.554688 530.175781 320.140625 529.34375 C 319.207031 529.113281 318.535156 528.601562 318.121094 527.796875 C 315.742188 523.210938 313.402344 518.761719 311.101562 514.445312 C 310.984375 514.226562 310.804688 514.089844 310.566406 514.042969 Z M 310.566406 514.042969 "/>
<path style=" stroke:none;fill-rule:nonzero;fill:rgb(7.058824%,7.058824%,7.058824%);fill-opacity:1;" d="M 357.214844 499.710938 C 356.769531 499.445312 356.542969 499.128906 356.53125 498.753906 C 356.457031 496.125 356.441406 493.648438 356.484375 491.328125 C 356.496094 490.777344 356.777344 490.503906 357.332031 490.503906 L 376.394531 490.585938 C 376.996094 490.585938 377.488281 491.070312 377.5 491.675781 C 377.558594 494.199219 377.550781 496.4375 377.476562 498.394531 C 377.394531 500.46875 373.609375 500.691406 373.621094 503.246094 C 373.632812 510.957031 373.605469 519.085938 373.53125 527.625 C 373.523438 528.132812 373.757812 528.277344 373.867188 528.707031 C 373.925781 528.941406 374.058594 529.148438 374.242188 529.292969 C 375.421875 530.21875 377.417969 530.824219 377.453125 532.574219 C 377.507812 534.890625 377.566406 537.140625 377.628906 539.328125 C 377.636719 539.609375 377.53125 539.878906 377.335938 540.082031 C 377.140625 540.28125 376.871094 540.394531 376.589844 540.394531 C 370.371094 540.375 364.066406 540.316406 357.671875 540.207031 C 356.863281 540.195312 356.425781 539.777344 356.355469 538.960938 C 356.152344 536.558594 356.230469 534.46875 356.597656 532.695312 C 356.898438 531.222656 357.847656 530.25 359.4375 529.78125 C 360.257812 529.535156 360.515625 528.691406 360.515625 527.914062 C 360.519531 520.316406 360.527344 512.40625 360.535156 504.171875 C 360.535156 502.621094 359.257812 501.273438 358.101562 500.332031 C 357.820312 500.101562 357.523438 499.894531 357.214844 499.710938 Z M 357.214844 499.710938 "/>
<path style=" stroke:none;fill-rule:nonzero;fill:rgb(7.058824%,7.058824%,7.058824%);fill-opacity:1;" d="M 442.378906 491.878906 C 442.378906 491.109375 443.003906 490.488281 443.773438 490.488281 L 473.230469 490.488281 C 480.347656 490.488281 486.121094 496.113281 486.121094 503.054688 L 486.121094 527.917969 C 486.121094 534.859375 480.347656 540.484375 473.230469 540.484375 L 443.773438 540.484375 C 443.003906 540.484375 442.378906 539.863281 442.378906 539.09375 Z M 473 502.710938 C 473 502.046875 472.460938 501.507812 471.792969 501.507812 L 456.609375 501.507812 C 455.945312 501.507812 455.40625 502.046875 455.40625 502.710938 L 455.40625 528.1875 C 455.40625 528.851562 455.945312 529.390625 456.609375 529.390625 L 471.792969 529.390625 C 472.460938 529.390625 473 528.851562 473 528.1875 Z M 473 502.710938 "/>
<path style=" stroke:none;fill-rule:nonzero;fill:rgb(7.058824%,7.058824%,7.058824%);fill-opacity:1;" d="M 509.988281 503.371094 C 510.003906 504.472656 509.996094 505.65625 509.96875 506.921875 C 509.9375 508.21875 509.867188 509.988281 511.675781 510.003906 C 519.515625 510.066406 527.160156 510.175781 534.605469 510.332031 C 535.289062 510.34375 535.839844 510.898438 535.847656 511.582031 L 535.953125 519.367188 C 535.960938 519.710938 535.828125 520.042969 535.585938 520.289062 C 535.34375 520.53125 535.011719 520.667969 534.667969 520.667969 L 511.5625 520.609375 C 511.171875 520.609375 510.796875 520.761719 510.519531 521.039062 C 510.242188 521.316406 510.085938 521.691406 510.085938 522.082031 L 510.089844 527.78125 C 510.09375 528.816406 510.613281 529.332031 511.652344 529.328125 L 537.578125 529.132812 C 538.683594 529.128906 539.25 529.675781 539.273438 530.78125 L 539.472656 538.492188 C 539.5 539.703125 538.910156 540.308594 537.695312 540.308594 C 530.007812 540.320312 521.503906 540.347656 512.1875 540.390625 C 509.113281 540.402344 507.042969 540.28125 505.96875 540.019531 C 502.078125 539.074219 498.871094 535.839844 497.824219 531.945312 C 497.546875 530.910156 497.417969 529.375 497.4375 527.34375 C 497.558594 514.851562 497.578125 502.898438 497.492188 491.484375 C 497.488281 491.179688 497.613281 490.9375 497.867188 490.757812 C 498.039062 490.632812 498.234375 490.570312 498.453125 490.570312 C 511.78125 490.507812 524.804688 490.496094 537.527344 490.535156 C 538.765625 490.539062 539.390625 491.160156 539.398438 492.402344 L 539.445312 500.351562 C 539.449219 500.746094 539.292969 501.125 539.011719 501.40625 C 538.734375 501.683594 538.355469 501.839844 537.957031 501.835938 L 511.683594 501.65625 C 510.535156 501.648438 509.972656 502.222656 509.988281 503.371094 Z M 509.988281 503.371094 "/>
<path style=" stroke:none;fill-rule:nonzero;fill:rgb(7.058824%,7.058824%,7.058824%);fill-opacity:1;" d="M 582.269531 493.121094 C 582.652344 492.066406 583.121094 490.519531 584.519531 490.511719 C 587.601562 490.503906 590.675781 490.535156 593.730469 490.613281 C 594.429688 490.632812 594.828125 490.992188 594.925781 491.695312 C 595.257812 494.191406 594.9375 496.722656 593.960938 499.292969 C 589.285156 511.5625 584.304688 524.746094 579.011719 538.835938 C 578.597656 539.933594 577.804688 540.476562 576.628906 540.46875 C 573.160156 540.445312 569.882812 540.398438 566.785156 540.335938 C 565.445312 540.308594 564.542969 539.664062 564.082031 538.402344 C 560.296875 527.988281 555.664062 515.761719 550.183594 501.71875 C 548.757812 498.0625 548.1875 494.605469 548.472656 491.351562 C 548.515625 490.863281 548.78125 490.613281 549.273438 490.597656 C 551.914062 490.511719 554.820312 490.488281 558 490.527344 C 560.050781 490.554688 560.707031 492.03125 561.394531 493.941406 C 564.191406 501.65625 567.386719 510.59375 570.976562 520.75 C 571.109375 521.121094 571.253906 521.359375 571.417969 521.46875 C 571.554688 521.554688 571.726562 521.578125 571.878906 521.523438 C 572.035156 521.472656 572.15625 521.351562 572.214844 521.195312 C 575.773438 511.132812 579.125 501.773438 582.269531 493.121094 Z M 582.269531 493.121094 "/>
<path style=" stroke:none;fill-rule:nonzero;fill:rgb(100%,100%,100%);fill-opacity:1;" d="M 201.84375 501.5 L 216.589844 501.472656 C 217.355469 501.472656 217.976562 502.089844 217.976562 502.855469 L 218.019531 528.019531 C 218.023438 528.785156 217.402344 529.410156 216.636719 529.410156 L 201.890625 529.433594 C 201.125 529.4375 200.503906 528.816406 200.503906 528.050781 L 200.457031 502.886719 C 200.457031 502.121094 201.078125 501.5 201.84375 501.5 Z M 201.84375 501.5 "/>
<path style=" stroke:none;fill-rule:nonzero;fill:rgb(100%,100%,100%);fill-opacity:1;" d="M 456.609375 501.507812 L 471.792969 501.507812 C 472.460938 501.507812 473 502.046875 473 502.710938 L 473 528.1875 C 473 528.851562 472.460938 529.390625 471.792969 529.390625 L 456.609375 529.390625 C 455.945312 529.390625 455.40625 528.851562 455.40625 528.1875 L 455.40625 502.710938 C 455.40625 502.046875 455.945312 501.507812 456.609375 501.507812 Z M 456.609375 501.507812 "/>
<path style=" stroke:none;fill-rule:nonzero;fill:rgb(100%,100%,100%);fill-opacity:1;" d="M 256.238281 501.523438 L 271.945312 501.523438 C 272.597656 501.523438 273.128906 502.050781 273.128906 502.707031 L 273.128906 528.246094 C 273.128906 528.898438 272.597656 529.429688 271.945312 529.429688 L 256.238281 529.429688 C 255.582031 529.429688 255.054688 528.898438 255.054688 528.246094 L 255.054688 502.707031 C 255.054688 502.050781 255.582031 501.523438 256.238281 501.523438 Z M 256.238281 501.523438 "/>
</g>
</svg>
