<?xml version="1.0" encoding="UTF-8"?>
<svg xmlns="http://www.w3.org/2000/svg" xmlns:xlink="http://www.w3.org/1999/xlink" width="px" height="px" viewBox="0 0 1158 1158" version="1.1">
<g id="surface1">
<path style="fill:none;stroke-width:2;stroke-linecap:butt;stroke-linejoin:miter;stroke:rgb(53.725493%,53.725493%,53.725493%);stroke-opacity:1;stroke-miterlimit:4;" d="M 563.470936 464.408409 C 563.212057 464.623327 562.977601 464.867552 562.767568 465.141084 C 558.820893 470.308884 556.388412 476.038401 555.470126 482.329636 C 554.991445 485.597366 555.201479 488.845558 556.100227 492.069328 C 560.090862 506.307642 571.168907 517.410109 586.330392 518.220936 C 591.928028 518.51889 598.004345 517.708063 604.559343 515.788455 C 604.862182 515.700534 605.184559 515.690765 605.492282 515.768917 C 609.688067 516.877699 613.571244 518.191629 617.132043 519.710708 C 659.412268 537.788239 712.037862 560.437662 775.018593 587.658976 C 783.288051 591.229544 790.790641 587.649207 794.36121 579.140409 C 801.907761 561.165452 809.82065 542.731353 818.099876 523.828341 C 819.970639 519.559289 821.367606 515.221853 822.271238 510.620655 C 822.5985 508.92085 822.158895 507.494576 820.952423 506.341834 C 814.788185 500.441359 803.998327 493.710519 795.147614 494.760687 C 789.872355 495.390787 787.010039 499.620763 785.041586 504.32942 C 780.078935 516.198753 775.00394 528.170661 769.811717 540.250027 C 768.844587 542.496897 767.017784 543.04396 764.341078 541.891219 C 718.075103 521.972231 672.234078 502.121627 626.818005 482.349174 C 622.881099 480.6396 621.967698 477.581903 620.658652 473.991796 C 619.593831 471.07575 617.566764 467.641947 614.582335 463.690388 C 613.478438 462.244576 612.159623 460.945299 610.621006 459.802326 C 603.738747 454.707794 597.017676 451.801517 588.15231 451.879669 C 579.115987 451.952936 571.295903 455.591888 564.692061 462.801409 C 564.569948 462.93329 564.438067 463.060287 564.301301 463.1824 C 564.140112 463.304512 564.027769 463.470585 563.969155 463.67085 C 563.881234 463.968804 563.715161 464.217913 563.470936 464.408409 " transform="matrix(0.799724,0,0,0.799724,0,0)"/>
<path style="fill:none;stroke-width:2;stroke-linecap:butt;stroke-linejoin:miter;stroke:rgb(53.725493%,53.725493%,53.725493%);stroke-opacity:1;stroke-miterlimit:4;" d="M 840.788374 676.278443 C 836.05041 674.520024 830.770267 672.80068 826.970126 669.3913 C 826.354679 668.834467 826.159299 667.955257 826.481676 667.19816 C 846.488585 620.365582 866.563876 573.308317 886.712435 526.03125 C 887.308344 524.614745 888.265706 523.564578 889.569867 522.870979 C 906.50931 513.932346 919.751187 502.170472 914.309855 480.918016 C 911.061663 468.237856 901.448969 458.820542 888.529469 456.319678 C 880.299088 454.732216 870.92085 456.378292 863.721098 460.5985 C 847.680403 470.00116 845.340728 489.529388 852.110643 505.59939 C 852.657707 506.898667 852.809127 508.520321 852.262063 509.829366 C 832.147695 556.79871 812.761118 602.493199 794.112101 646.917719 C 790.981137 654.36658 787.820866 661.468642 784.621519 668.21902 C 783.195245 671.227871 781.886199 674.676328 780.699266 678.569274 C 778.618469 685.422226 780.17174 691.317816 786.878157 694.248516 C 806.587111 702.845234 828.606434 712.208819 852.941008 722.33927 C 861.889411 726.071028 866.588299 720.952073 869.851144 713.278524 C 870.974579 710.626241 872.171281 707.876268 873.441251 705.028605 C 877.549115 695.782248 872.581579 690.580257 864.571001 686.609159 C 856.467617 682.584332 848.544959 679.14076 840.788374 676.278443 " transform="matrix(0.799724,0,0,0.799724,0,0)"/>
<path style="fill:none;stroke-width:2;stroke-linecap:butt;stroke-linejoin:miter;stroke:rgb(53.725493%,53.725493%,53.725493%);stroke-opacity:1;stroke-miterlimit:4;" d="M 775.350739 500.934693 C 776.884472 497.35924 775.228627 493.222069 771.653174 491.688337 L 696.319543 459.401797 C 692.748975 457.868065 688.606919 459.52391 687.078071 463.099363 L 677.670526 485.045418 C 676.136793 488.620871 677.792638 492.758042 681.368092 494.291775 L 756.696837 526.578314 C 760.272291 528.112047 764.409461 526.456201 765.943194 522.880748 L 775.350739 500.934693 " transform="matrix(0.799724,0,0,0.799724,0,0)"/>
<path style="fill:none;stroke-width:2;stroke-linecap:butt;stroke-linejoin:miter;stroke:rgb(53.725493%,53.725493%,53.725493%);stroke-opacity:1;stroke-miterlimit:4;" d="M 609.292422 810.011145 C 609.502456 809.908571 609.70272 809.781574 609.888331 809.630154 C 615.876727 804.594236 619.720828 798.307885 621.420634 790.761334 C 623.30605 782.379534 621.840701 773.812122 617.0197 765.0591 C 616.467752 764.052893 616.213758 763.193221 616.257718 762.480084 C 616.321217 761.625297 616.506828 760.81447 616.819435 760.047604 C 639.385821 705.575669 662.567654 649.653039 686.369819 592.279712 C 690.819597 581.548467 676.229598 574.759013 668.712354 571.828314 C 650.625054 564.789751 633.138547 557.589999 616.257718 550.229059 C 610.513547 547.728195 605.594856 548.138493 601.511415 551.450184 C 597.779658 554.468804 595.899126 559.768486 593.818329 564.149881 C 589.222015 573.860266 591.332119 581.260282 601.491877 585.377915 C 614.123192 590.511523 626.480975 595.557211 638.57011 600.510093 C 640.597177 601.335573 641.188202 602.761847 640.338299 604.779145 C 620.727035 651.411458 601.662835 697.408787 583.150583 742.761361 C 581.309127 747.259985 579.257637 750.430025 575.340269 753.121384 C 572.311879 755.20218 569.420256 757.243901 566.660514 759.25143 C 563.285325 761.698564 560.559774 765.342401 558.478978 770.187824 C 555.87554 776.254372 555.074482 782.599336 556.080689 789.217832 C 558.327558 803.96902 572.531682 817.162052 587.71759 817.801921 C 595.151797 818.10476 601.867984 815.906736 607.871033 811.198079 C 608.105489 811.012468 608.325291 810.807319 608.53044 810.577747 C 608.735589 810.338407 608.994468 810.143027 609.292422 810.011145 " transform="matrix(0.799724,0,0,0.799724,0,0)"/>
<path style="fill:none;stroke-width:2;stroke-linecap:butt;stroke-linejoin:miter;stroke:rgb(53.725493%,53.725493%,53.725493%);stroke-opacity:1;stroke-miterlimit:4;" d="M 909.278821 597.823618 C 910.807669 594.277472 909.171362 590.169608 905.625216 588.64076 L 883.581471 579.145294 C 880.035325 577.62133 875.927461 579.257637 874.398613 582.803783 L 842.058344 657.893189 C 840.529496 661.439335 842.170688 665.552083 845.711949 667.080932 L 867.755694 676.571513 C 871.30184 678.100362 875.414589 676.464054 876.943437 672.917908 L 909.278821 597.823618 " transform="matrix(0.799724,0,0,0.799724,0,0)"/>
<path style="fill:none;stroke-width:2;stroke-linecap:butt;stroke-linejoin:miter;stroke:rgb(53.725493%,53.725493%,53.725493%);stroke-opacity:1;stroke-miterlimit:4;" d="M 624.356218 614.289265 C 625.924142 610.523316 624.1413 606.19565 620.375351 604.627726 L 599.069166 595.757475 C 595.298332 594.189551 590.970666 595.972393 589.402742 599.738342 L 558.322674 674.40768 C 556.75475 678.178514 558.537592 682.50618 562.303541 684.074104 L 583.61461 692.93947 C 587.380559 694.512279 591.708225 692.729437 593.27615 688.958603 L 624.356218 614.289265 " transform="matrix(0.799724,0,0,0.799724,0,0)"/>
<path style="fill:none;stroke-width:2;stroke-linecap:butt;stroke-linejoin:miter;stroke:rgb(53.725493%,53.725493%,53.725493%);stroke-opacity:1;stroke-miterlimit:4;" d="M 839.938472 786.311555 C 843.430888 787.762252 846.097825 790.01889 847.411755 793.750648 C 854.421011 813.591483 877.177893 825.148208 896.339783 813.459602 C 908.697566 805.917935 914.309855 795.308803 913.171767 781.622436 C 911.301004 759.187932 890.478384 746.659191 869.318734 752.510821 C 864.09232 753.961518 859.872112 753.712408 854.987613 751.670688 C 801.937068 729.470639 748.227116 706.884715 693.857756 683.908031 C 685.290344 680.298386 677.758447 682.120304 673.718966 691.479005 C 665.698618 710.088946 656.921173 730.823645 647.391516 753.687986 C 645.799169 757.488126 645.30095 763.100416 648.47099 766.32907 C 653.570407 771.550599 660.501511 774.979517 667.847798 776.327639 C 675.501808 777.719722 680.049277 772.752186 682.950669 766.421875 C 688.216159 754.91888 693.115312 743.11793 697.638358 731.019025 C 698.571297 728.527931 700.78886 727.848985 703.319031 728.918691 C 748.358997 748.114772 793.902067 767.242471 839.938472 786.311555 " transform="matrix(0.799724,0,0,0.799724,0,0)"/>
<path style="fill:none;stroke-width:2;stroke-linecap:butt;stroke-linejoin:miter;stroke:rgb(53.725493%,53.725493%,53.725493%);stroke-opacity:1;stroke-miterlimit:4;" d="M 790.556185 785.266273 C 792.055726 781.725011 790.394997 777.64157 786.853735 776.146913 L 711.354032 744.251133 C 707.81277 742.756477 703.729329 744.417206 702.234672 747.958468 L 692.944354 769.953368 C 691.444813 773.49463 693.105543 777.578071 696.646805 779.072728 L 772.146508 810.968507 C 775.68777 812.463164 779.771211 810.802434 781.265868 807.261172 L 790.556185 785.266273 " transform="matrix(0.799724,0,0,0.799724,0,0)"/>
<path style="fill:none;stroke-width:2;stroke-linecap:butt;stroke-linejoin:miter;stroke:rgb(53.725493%,53.725493%,53.725493%);stroke-opacity:1;stroke-miterlimit:4;" d="M 351.630208 922.217859 L 351.3176 1010.998516 C 351.312716 1012.429674 352.470342 1013.592185 353.9015 1013.601954 L 407.909407 1013.777796 C 422.059801 1013.831525 433.572566 1002.411566 433.621411 988.28071 L 433.758177 945.502267 C 433.811906 931.366526 422.377294 919.868415 408.231784 919.81957 L 354.218993 919.638844 C 352.792719 919.638844 351.635093 920.791586 351.630208 922.217859 " transform="matrix(0.799724,0,0,0.799724,0,0)"/>
<path style="fill:none;stroke-width:2;stroke-linecap:butt;stroke-linejoin:miter;stroke:rgb(53.725493%,53.725493%,53.725493%);stroke-opacity:1;stroke-miterlimit:4;" d="M 751.221314 963.02785 C 751.367849 963.022965 751.621843 963.272075 751.978411 963.770294 C 763.212759 979.625378 774.4178 995.495116 785.598419 1011.389276 C 786.546011 1012.737397 787.845288 1013.416343 789.501133 1013.430996 C 795.059693 1013.494495 800.481487 1013.494495 805.7714 1013.430996 C 807.397938 1013.411458 808.208765 1012.585978 808.208765 1010.95944 C 808.198996 982.09205 808.164805 953.249082 808.111075 924.430538 C 808.101306 923.228951 807.949887 922.217859 807.651932 921.392379 C 807.3784 920.659704 806.679917 920.171254 805.898397 920.171254 L 786.819543 920.249406 C 785.49096 920.254291 784.421254 921.333765 784.421254 922.662349 C 784.406601 935.957956 784.396832 950.074158 784.391947 965.001187 C 784.391947 966.212543 784.338218 967.45809 784.240528 968.72806 C 784.128184 970.032222 783.664157 970.168987 782.848446 969.138358 C 777.475497 962.353789 771.98532 954.958657 766.368146 946.957848 C 764.316656 944.032033 760.467671 938.136442 754.830959 929.271076 C 752.862505 926.184073 751.069894 924.034893 749.448241 922.818653 C 743.909218 918.681482 734.589594 919.389734 728.039481 920.220099 C 727.370304 920.30802 726.867201 920.879507 726.872085 921.558452 L 726.77928 1011.081552 C 726.77928 1011.750729 727.047927 1012.395483 727.531493 1012.869279 C 728.010174 1013.343075 728.659812 1013.601954 729.328989 1013.592185 L 748.178271 1013.260039 C 749.638736 1013.240501 750.806131 1012.03403 750.791478 1010.56868 L 750.200453 964.248975 C 750.1858 963.496762 750.527715 963.091348 751.221314 963.02785 " transform="matrix(0.799724,0,0,0.799724,0,0)"/>
<path style="fill:none;stroke-width:2;stroke-linecap:butt;stroke-linejoin:miter;stroke:rgb(53.725493%,53.725493%,53.725493%);stroke-opacity:1;stroke-miterlimit:4;" d="M 536.342428 943.055133 C 536.386388 930.438472 526.197323 920.176139 513.585546 920.132178 L 476.961572 920.005181 C 464.349795 919.961221 454.087462 930.150286 454.043502 942.766947 L 453.877429 990.727844 C 453.833468 1003.339621 464.022533 1013.601954 476.63431 1013.645914 L 513.258285 1013.772911 C 525.870062 1013.816872 536.132394 1003.627807 536.176355 991.011145 L 536.342428 943.055133 " transform="matrix(0.799724,0,0,0.799724,0,0)"/>
<path style="fill:none;stroke-width:2;stroke-linecap:butt;stroke-linejoin:miter;stroke:rgb(53.725493%,53.725493%,53.725493%);stroke-opacity:1;stroke-miterlimit:4;" d="M 582.510714 964.161054 C 582.964972 964.253859 583.302002 964.507853 583.521805 964.918151 C 587.834818 973.011766 592.221098 981.359375 596.680646 989.960978 C 597.462165 991.465404 598.722366 992.432535 600.471017 992.86237 C 606.874595 994.420526 611.441602 992.017352 614.162268 985.647965 C 617.351846 978.184451 620.883339 971.458495 624.751862 965.470099 C 625.030278 965.030494 625.425923 964.820461 625.938795 964.839999 C 626.275826 964.849768 626.539589 965.128184 626.539589 965.470099 L 626.13906 1010.778713 C 626.129291 1012.117066 627.198996 1013.211194 628.52758 1013.230732 L 647.948348 1013.479841 C 649.921686 1013.504264 650.908355 1012.532248 650.908355 1010.549142 L 650.791127 922.281358 C 650.791127 921.040695 649.78492 920.039373 648.549142 920.039373 C 641.881801 920.039373 635.141192 920.102871 628.3322 920.229868 C 626.651932 920.259175 625.518728 921.280036 624.751862 922.75027 C 618.411782 934.79056 612.320812 946.791775 606.478951 958.758797 C 606.215188 959.305861 605.90258 959.828503 605.550896 960.321837 C 604.78403 961.381774 603.914589 961.474579 602.937689 960.610023 C 602.292935 960.038536 601.794716 959.36936 601.447917 958.612263 C 595.430214 945.512036 589.725119 934.175113 584.342401 924.601495 C 582.7354 921.739179 580.351765 920.278713 577.201263 920.220099 C 571.647587 920.11264 565.800842 920.054026 559.661027 920.039373 C 558.259175 920.039373 557.560692 920.737856 557.560692 922.129938 L 557.467886 1011.399045 C 557.467886 1011.911917 557.673035 1012.405252 558.034488 1012.766704 C 558.395941 1013.128157 558.889276 1013.333306 559.402148 1013.328422 L 580.410379 1013.172118 C 580.957443 1013.162349 581.4752 1012.942546 581.856191 1012.551786 C 582.237182 1012.161027 582.447215 1011.633501 582.442331 1011.091321 L 581.861075 964.688579 C 581.851306 964.24409 582.071109 964.068248 582.510714 964.161054 " transform="matrix(0.799724,0,0,0.799724,0,0)"/>
<path style="fill:none;stroke-width:2;stroke-linecap:butt;stroke-linejoin:miter;stroke:rgb(53.725493%,53.725493%,53.725493%);stroke-opacity:1;stroke-miterlimit:4;" d="M 671.672361 938.44905 C 673.841078 940.212354 676.239367 942.73764 676.239367 945.648802 C 676.219829 961.088704 676.205176 975.932696 676.200291 990.18078 C 676.200291 991.641246 675.721611 993.218939 674.178109 993.678082 C 671.19368 994.562176 669.415722 996.384094 668.84912 999.148721 C 668.16529 1002.475065 668.013871 1006.392433 668.399746 1010.900826 C 668.526743 1012.434559 669.352224 1013.211194 670.871303 1013.240501 C 682.857864 1013.440765 694.683236 1013.557993 706.352305 1013.592185 C 706.879831 1013.592185 707.382934 1013.377267 707.749271 1013.00116 C 708.115609 1012.625054 708.315873 1012.117066 708.30122 1011.58954 C 708.179107 1007.491445 708.071648 1003.266354 707.969074 998.919149 C 707.900691 995.64165 704.159165 994.498678 701.951371 992.769565 C 701.599687 992.496033 701.350578 992.110158 701.238234 991.670553 C 701.03797 990.859726 700.598365 990.591078 700.608134 989.638601 C 700.749784 973.622328 700.808398 958.377807 700.779091 943.90992 C 700.759553 939.118226 707.861615 938.69816 708.00815 934.810098 C 708.1498 931.141839 708.164454 926.94117 708.061879 922.20809 C 708.032572 921.074887 707.109402 920.171254 705.981083 920.171254 L 670.231434 920.010066 C 669.191035 920.010066 668.658625 920.527823 668.639087 921.558452 C 668.560935 925.915425 668.590242 930.555699 668.731892 935.489044 C 668.75143 936.192411 669.176382 936.78832 670.011631 937.281655 C 670.588002 937.628454 671.144835 938.01433 671.672361 938.44905 " transform="matrix(0.799724,0,0,0.799724,0,0)"/>
<path style="fill:none;stroke-width:2;stroke-linecap:butt;stroke-linejoin:miter;stroke:rgb(53.725493%,53.725493%,53.725493%);stroke-opacity:1;stroke-miterlimit:4;" d="M 829.749406 922.589081 L 829.749406 1011.149935 C 829.749406 1012.590862 830.916802 1013.758258 832.357729 1013.758258 L 887.611183 1013.758258 C 900.965404 1013.758258 911.789454 1003.20774 911.789454 990.190549 L 911.789454 943.548467 C 911.789454 930.531277 900.965404 919.980759 887.611183 919.980759 L 832.357729 919.980759 C 830.916802 919.980759 829.749406 921.148154 829.749406 922.589081 " transform="matrix(0.799724,0,0,0.799724,0,0)"/>
<path style="fill:none;stroke-width:2;stroke-linecap:butt;stroke-linejoin:miter;stroke:rgb(53.725493%,53.725493%,53.725493%);stroke-opacity:1;stroke-miterlimit:4;" d="M 956.560773 944.149261 C 956.526581 941.990312 957.586518 940.915722 959.740582 940.930376 L 1009.020294 941.272291 C 1009.762737 941.277175 1010.475874 940.984105 1010.998516 940.456579 C 1011.521157 939.933938 1011.814227 939.220801 1011.809343 938.478357 L 1011.721422 923.570866 C 1011.706768 921.24096 1010.534488 920.078449 1008.209467 920.06868 C 984.348688 919.995412 959.921308 920.019835 934.922442 920.141947 C 934.512144 920.141947 934.145806 920.254291 933.818545 920.488747 C 933.344748 920.820893 933.115177 921.275151 933.120062 921.851522 C 933.28125 943.265166 933.247059 965.685017 933.022372 989.111075 C 932.978411 992.920984 933.217752 995.797954 933.740393 997.741985 C 935.708846 1005.049196 941.721665 1011.110859 949.019106 1012.888817 C 951.03152 1013.377267 954.919581 1013.606838 960.678406 1013.582416 C 978.160028 1013.499379 994.107918 1013.450534 1008.531844 1013.430996 C 1010.803136 1013.430996 1011.911917 1012.292908 1011.858188 1010.021616 L 1011.49185 995.558614 C 1011.443005 993.487586 1010.383069 992.456957 1008.312041 992.471611 L 959.681968 992.828179 C 957.733053 992.842832 956.756153 991.875702 956.751268 989.931671 L 956.741499 979.239502 C 956.741499 978.506828 957.034569 977.80346 957.552326 977.285703 C 958.070083 976.767946 958.778335 976.47976 959.51101 976.47976 L 1002.851171 976.592104 C 1003.495925 976.592104 1004.116256 976.333225 1004.56563 975.878967 C 1005.019889 975.419824 1005.268998 974.794608 1005.259229 974.149854 L 1005.058965 959.550086 C 1005.044311 958.265463 1004.013682 957.225065 1002.729059 957.200642 C 988.764276 956.907572 974.428271 956.702423 959.721044 956.59008 C 956.331201 956.560773 956.458198 953.239313 956.521697 950.811717 C 956.575426 948.428082 956.585195 946.210519 956.560773 944.149261 " transform="matrix(0.799724,0,0,0.799724,0,0)"/>
<path style="fill:none;stroke-width:2;stroke-linecap:butt;stroke-linejoin:miter;stroke:rgb(53.725493%,53.725493%,53.725493%);stroke-opacity:1;stroke-miterlimit:4;" d="M 1092.130046 924.918987 C 1086.234456 941.155063 1079.948106 958.705068 1073.270995 977.578773 C 1073.163536 977.871843 1072.933965 978.09653 1072.645779 978.19422 C 1072.352709 978.296794 1072.035217 978.257718 1071.781223 978.091645 C 1071.4735 977.891381 1071.195083 977.442007 1070.950858 976.738639 C 1064.215134 957.693977 1058.226738 940.93526 1052.980786 926.457605 C 1051.691278 922.882151 1050.460384 920.107756 1046.611399 920.058911 C 1040.65231 919.985643 1035.19144 920.029604 1030.238558 920.190792 C 1029.320272 920.215215 1028.822053 920.689011 1028.739017 921.602413 C 1028.206606 927.708036 1029.276312 934.189767 1031.948133 941.047604 C 1042.230003 967.389707 1050.919527 990.322431 1058.021589 1009.850658 C 1058.886145 1012.214756 1060.576182 1013.426112 1063.091699 1013.479841 C 1068.894484 1013.601954 1075.048953 1013.68499 1081.550221 1013.728951 C 1083.758015 1013.743604 1085.247787 1012.722744 1086.019538 1010.671254 C 1095.94484 984.236345 1105.293772 959.51101 1114.061448 936.500135 C 1115.893135 931.679134 1116.498813 926.931401 1115.868712 922.252051 C 1115.687986 920.928352 1114.945542 920.254291 1113.631612 920.220099 C 1107.89721 920.073564 1102.138385 920.010066 1096.350254 920.029604 C 1093.732162 920.039373 1092.848068 922.940765 1092.130046 924.918987 " transform="matrix(0.799724,0,0,0.799724,0,0)"/>
<path style="fill:none;stroke-width:2;stroke-linecap:butt;stroke-linejoin:miter;stroke:rgb(53.725493%,53.725493%,53.725493%);stroke-opacity:1;stroke-miterlimit:4;" d="M 577.660406 471.222285 C 575.594263 472.941629 573.86515 475.051733 572.477952 477.562365 C 571.447323 479.438013 570.910028 481.767919 570.870952 484.542314 C 570.787916 491.048467 573.274126 496.128346 578.319813 499.791721 C 590.39918 508.549628 605.702315 500.622085 607.470504 486.618226 C 607.831957 483.746141 607.343507 480.786134 606.010039 477.738207 C 604.735185 474.841699 602.879075 472.306644 600.44171 470.137926 C 599.752995 469.532248 599.054512 469.141489 598.351144 468.960762 C 597.530548 468.745844 596.763682 468.501619 596.050545 468.228087 C 596.0017 468.208549 596.0017 468.189011 596.040776 468.159704 C 596.065199 468.140166 596.074968 468.110859 596.060314 468.071783 C 596.040776 467.998516 595.991931 467.949671 595.908895 467.930133 C 591.776608 466.762737 587.971584 466.611318 584.498705 467.47099 C 582.271373 468.022938 579.995196 469.27337 577.660406 471.222285 " transform="matrix(0.799724,0,0,0.799724,0,0)"/>
<path style="fill:none;stroke-width:2;stroke-linecap:butt;stroke-linejoin:miter;stroke:rgb(53.725493%,53.725493%,53.725493%);stroke-opacity:1;stroke-miterlimit:4;" d="M 899.807777 488.679485 C 899.807777 478.705338 891.723931 470.621492 881.749784 470.621492 C 871.775637 470.621492 863.691791 478.705338 863.691791 488.679485 C 863.691791 498.653632 871.775637 506.742363 881.749784 506.742363 C 891.723931 506.742363 899.807777 498.653632 899.807777 488.679485 " transform="matrix(0.799724,0,0,0.799724,0,0)"/>
<path style="fill:none;stroke-width:2;stroke-linecap:butt;stroke-linejoin:miter;stroke:rgb(53.725493%,53.725493%,53.725493%);stroke-opacity:1;stroke-miterlimit:4;" d="M 607.441197 783.791154 C 607.441197 773.826776 599.362236 765.747814 589.397857 765.747814 C 579.438364 765.747814 571.359402 773.826776 571.359402 783.791154 C 571.359402 793.755532 579.438364 801.829609 589.397857 801.829609 C 599.362236 801.829609 607.441197 793.755532 607.441197 783.791154 " transform="matrix(0.799724,0,0,0.799724,0,0)"/>
<path style="fill:none;stroke-width:2;stroke-linecap:butt;stroke-linejoin:miter;stroke:rgb(53.725493%,53.725493%,53.725493%);stroke-opacity:1;stroke-miterlimit:4;" d="M 898.107972 784.431023 C 898.107972 774.383609 889.965512 766.241149 879.918097 766.241149 C 869.875567 766.241149 861.728222 774.383609 861.728222 784.431023 C 861.728222 794.478438 869.875567 802.620898 879.918097 802.620898 C 889.965512 802.620898 898.107972 794.478438 898.107972 784.431023 " transform="matrix(0.799724,0,0,0.799724,0,0)"/>
<path style="fill:none;stroke-width:2;stroke-linecap:butt;stroke-linejoin:miter;stroke:rgb(53.725493%,53.725493%,53.725493%);stroke-opacity:1;stroke-miterlimit:4;" d="M 408.847231 943.18213 C 408.847231 941.746087 407.679836 940.583576 406.243793 940.583576 L 378.582875 940.632421 C 377.146832 940.637306 375.984321 941.804701 375.989206 943.240744 L 376.072242 990.439659 C 376.072242 991.875702 377.239637 993.038212 378.67568 993.033328 L 406.336599 992.984483 C 407.772641 992.984483 408.935152 991.817088 408.930268 990.381045 L 408.847231 943.18213 " transform="matrix(0.799724,0,0,0.799724,0,0)"/>
<path style="fill:none;stroke-width:2;stroke-linecap:butt;stroke-linejoin:miter;stroke:rgb(53.725493%,53.725493%,53.725493%);stroke-opacity:1;stroke-miterlimit:4;" d="M 512.291154 942.898829 C 512.291154 941.67282 511.294716 940.681266 510.068707 940.681266 L 480.610293 940.681266 C 479.384283 940.681266 478.387845 941.67282 478.387845 942.898829 L 478.387845 990.801112 C 478.387845 992.027121 479.384283 993.018674 480.610293 993.018674 L 510.068707 993.018674 C 511.294716 993.018674 512.291154 992.027121 512.291154 990.801112 L 512.291154 942.898829 " transform="matrix(0.799724,0,0,0.799724,0,0)"/>
<path style="fill:none;stroke-width:2;stroke-linecap:butt;stroke-linejoin:miter;stroke:rgb(53.725493%,53.725493%,53.725493%);stroke-opacity:1;stroke-miterlimit:4;" d="M 887.181347 942.908598 C 887.181347 941.663051 886.170256 940.651959 884.919824 940.651959 L 856.43831 940.651959 C 855.192762 940.651959 854.181671 941.663051 854.181671 942.908598 L 854.181671 990.688768 C 854.181671 991.9392 855.192762 992.950291 856.43831 992.950291 L 884.919824 992.950291 C 886.170256 992.950291 887.181347 991.9392 887.181347 990.688768 L 887.181347 942.908598 " transform="matrix(0.799724,0,0,0.799724,0,0)"/>
<path style=" stroke:none;fill-rule:nonzero;fill:rgb(100%,100%,100%);fill-opacity:1;" d="M 112.226562 334.988281 C 115.3125 315.515625 127.714844 300.183594 144.300781 290.523438 C 252.03125 227.78125 360.289062 165.347656 469.078125 103.21875 C 473.972656 100.425781 478.765625 97.59375 483.457031 94.726562 C 499.546875 84.902344 514.675781 75.710938 528.839844 67.160156 C 537.234375 62.085938 546.460938 57 556.527344 51.910156 C 568.082031 46.054688 578.472656 42.808594 590.933594 43.65625 C 602.472656 44.441406 612.636719 48.574219 622.914062 54.460938 C 630.820312 58.996094 638.746094 63.289062 646.542969 67.878906 C 669.769531 81.554688 692.386719 95.101562 715.128906 108.304688 C 818.601562 168.414062 920.957031 227.570312 1022.191406 285.78125 C 1030.097656 290.328125 1037.414062 295.734375 1044.144531 302 C 1053.527344 310.753906 1059.453125 321.1875 1061.921875 333.300781 C 1062.742188 337.34375 1063.207031 342.660156 1063.320312 349.253906 C 1063.578125 364.476562 1063.707031 379.292969 1063.710938 393.703125 C 1063.761719 535.996094 1063.746094 678.082031 1063.664062 819.957031 C 1063.65625 831.59375 1061.746094 842.691406 1056.332031 852.855469 C 1049.003906 866.613281 1035.898438 875.488281 1022.816406 883.070312 C 918.007812 943.824219 809.765625 1006.382812 698.085938 1070.75 C 676.605469 1083.136719 648.480469 1100.386719 625.160156 1113.75 C 619.230469 1117.152344 614.414062 1119.625 610.710938 1121.164062 C 595.675781 1127.429688 579.785156 1127.105469 563.039062 1120.1875 C 557.019531 1117.699219 550.824219 1114.554688 544.453125 1110.761719 C 519.699219 1096.011719 495.566406 1080.980469 471.445312 1067.101562 C 370.035156 1008.761719 269.886719 950.996094 171.003906 893.8125 C 163.8125 889.65625 155.945312 884.890625 147.40625 879.511719 C 140.472656 875.152344 135.921875 872.101562 133.753906 870.363281 C 121.421875 860.488281 114.769531 847.601562 112.511719 832.082031 C 111.96875 828.335938 111.6875 823.015625 111.664062 816.117188 C 111.617188 798.53125 111.3125 781.777344 111.335938 764.703125 C 111.507812 629.144531 111.492188 490.941406 111.289062 350.085938 C 111.277344 344.035156 111.589844 339.003906 112.226562 334.988281 Z M 450.621094 371.398438 C 450.414062 371.570312 450.226562 371.765625 450.058594 371.984375 C 446.902344 376.117188 444.957031 380.699219 444.222656 385.730469 C 443.839844 388.34375 444.007812 390.941406 444.726562 393.519531 C 447.917969 404.90625 456.777344 413.785156 468.902344 414.433594 C 473.378906 414.671875 478.238281 414.023438 483.480469 412.488281 C 483.722656 412.417969 483.980469 412.410156 484.226562 412.472656 C 487.582031 413.359375 490.6875 414.410156 493.535156 415.625 C 527.347656 430.082031 569.433594 448.195312 619.800781 469.964844 C 626.414062 472.820312 632.414062 469.957031 635.269531 463.152344 C 641.304688 448.777344 647.632812 434.035156 654.253906 418.917969 C 655.75 415.503906 656.867188 412.035156 657.589844 408.355469 C 657.851562 406.996094 657.5 405.855469 656.535156 404.933594 C 651.605469 400.214844 642.976562 394.832031 635.898438 395.671875 C 631.679688 396.175781 629.390625 399.558594 627.816406 403.324219 C 623.847656 412.816406 619.789062 422.390625 615.636719 432.050781 C 614.863281 433.847656 613.402344 434.285156 611.261719 433.363281 C 574.261719 417.433594 537.601562 401.558594 501.28125 385.746094 C 498.132812 384.378906 497.402344 381.933594 496.355469 379.0625 C 495.503906 376.730469 493.882812 373.984375 491.496094 370.824219 C 490.613281 369.667969 489.558594 368.628906 488.328125 367.714844 C 482.824219 363.640625 477.449219 361.316406 470.359375 361.378906 C 463.132812 361.4375 456.878906 364.347656 451.597656 370.113281 C 451.5 370.21875 451.394531 370.320312 451.285156 370.417969 C 451.15625 370.515625 451.066406 370.648438 451.019531 370.808594 C 450.949219 371.046875 450.816406 371.246094 450.621094 371.398438 Z M 672.398438 540.835938 C 668.609375 539.429688 664.386719 538.054688 661.347656 535.328125 C 660.855469 534.882812 660.699219 534.179688 660.957031 533.574219 C 676.957031 496.121094 693.011719 458.488281 709.125 420.679688 C 709.601562 419.546875 710.367188 418.707031 711.410156 418.152344 C 724.957031 411.003906 735.546875 401.597656 731.195312 384.601562 C 728.597656 374.460938 720.910156 366.929688 710.578125 364.929688 C 703.996094 363.660156 696.496094 364.976562 690.738281 368.351562 C 677.910156 375.871094 676.039062 391.488281 681.453125 404.339844 C 681.890625 405.378906 682.011719 406.675781 681.574219 407.722656 C 665.488281 445.285156 649.984375 481.828125 635.070312 517.355469 C 632.566406 523.3125 630.039062 528.992188 627.480469 534.390625 C 626.339844 536.796875 625.292969 539.554688 624.34375 542.667969 C 622.679688 548.148438 623.921875 552.863281 629.285156 555.207031 C 645.046875 562.082031 662.65625 569.570312 682.117188 577.671875 C 689.273438 580.65625 693.03125 576.5625 695.640625 570.425781 C 696.539062 568.304688 697.496094 566.105469 698.511719 563.828125 C 701.796875 556.433594 697.824219 552.273438 691.417969 549.097656 C 684.9375 545.878906 678.601562 543.125 672.398438 540.835938 Z M 620.066406 400.609375 C 621.292969 397.75 619.96875 394.441406 617.109375 393.214844 L 556.863281 367.394531 C 554.007812 366.167969 550.695312 367.492188 549.472656 370.351562 L 541.949219 387.902344 C 540.722656 390.761719 542.046875 394.070312 544.90625 395.296875 L 605.148438 421.117188 C 608.007812 422.34375 611.316406 421.019531 612.542969 418.160156 Z M 487.265625 647.785156 C 487.433594 647.703125 487.59375 647.601562 487.742188 647.480469 C 492.53125 643.453125 495.605469 638.425781 496.964844 632.390625 C 498.472656 625.6875 497.300781 618.835938 493.445312 611.835938 C 493.003906 611.03125 492.800781 610.34375 492.835938 609.773438 C 492.886719 609.089844 493.035156 608.441406 493.285156 607.828125 C 511.332031 564.265625 529.871094 519.542969 548.90625 473.660156 C 552.464844 465.078125 540.796875 459.648438 534.785156 457.304688 C 520.320312 451.675781 506.335938 445.917969 492.835938 440.03125 C 488.242188 438.03125 484.308594 438.359375 481.042969 441.007812 C 478.058594 443.421875 476.554688 447.660156 474.890625 451.164062 C 471.214844 458.929688 472.902344 464.847656 481.027344 468.140625 C 491.128906 472.246094 501.011719 476.28125 510.679688 480.242188 C 512.300781 480.902344 512.773438 482.042969 512.09375 483.65625 C 496.410156 520.949219 481.164062 557.734375 466.359375 594.003906 C 464.886719 597.601562 463.246094 600.136719 460.113281 602.289062 C 457.691406 603.953125 455.378906 605.585938 453.171875 607.191406 C 450.472656 609.148438 448.292969 612.0625 446.628906 615.9375 C 444.546875 620.789062 443.90625 625.863281 444.710938 631.15625 C 446.507812 642.953125 457.867188 653.503906 470.011719 654.015625 C 475.957031 654.257812 481.328125 652.5 486.128906 648.734375 C 486.316406 648.585938 486.492188 648.421875 486.65625 648.238281 C 486.820312 648.046875 487.027344 647.890625 487.265625 647.785156 Z M 727.171875 478.09375 C 728.394531 475.257812 727.085938 471.972656 724.25 470.75 L 706.621094 463.15625 C 703.785156 461.9375 700.5 463.246094 699.277344 466.082031 L 673.414062 526.132812 C 672.191406 528.96875 673.503906 532.257812 676.335938 533.480469 L 693.964844 541.070312 C 696.800781 542.292969 700.089844 540.984375 701.3125 538.148438 Z M 499.3125 491.261719 C 500.566406 488.25 499.140625 484.789062 496.128906 483.535156 L 479.089844 476.441406 C 476.074219 475.1875 472.613281 476.613281 471.359375 479.625 L 446.503906 539.339844 C 445.25 542.355469 446.675781 545.816406 449.6875 547.070312 L 466.730469 554.160156 C 469.742188 555.417969 473.203125 553.992188 474.457031 550.976562 Z M 671.71875 628.832031 C 674.511719 629.992188 676.644531 631.796875 677.695312 634.78125 C 683.300781 650.648438 701.5 659.890625 716.824219 650.542969 C 726.707031 644.511719 731.195312 636.027344 730.285156 625.082031 C 728.789062 607.140625 712.136719 597.121094 695.214844 601.800781 C 691.035156 602.960938 687.660156 602.761719 683.753906 601.128906 C 641.328125 583.375 598.375 565.3125 554.894531 546.9375 C 548.042969 544.050781 542.019531 545.507812 538.789062 552.992188 C 532.375 567.875 525.355469 584.457031 517.734375 602.742188 C 516.460938 605.78125 516.0625 610.269531 518.597656 612.851562 C 522.675781 617.027344 528.21875 619.769531 534.09375 620.847656 C 540.214844 621.960938 543.851562 617.988281 546.171875 612.925781 C 550.382812 603.726562 554.300781 594.289062 557.917969 584.613281 C 558.664062 582.621094 560.4375 582.078125 562.460938 582.933594 C 598.480469 598.285156 634.902344 613.582031 671.71875 628.832031 Z M 632.226562 627.996094 C 633.425781 625.164062 632.097656 621.898438 629.265625 620.703125 L 568.886719 595.195312 C 566.054688 594 562.789062 595.328125 561.59375 598.160156 L 554.164062 615.75 C 552.964844 618.582031 554.292969 621.847656 557.125 623.042969 L 617.503906 648.550781 C 620.335938 649.746094 623.601562 648.417969 624.796875 645.585938 Z M 281.207031 737.519531 L 280.957031 808.519531 C 280.953125 809.664062 281.878906 810.59375 283.023438 810.601562 L 326.214844 810.742188 C 337.53125 810.785156 346.738281 801.652344 346.777344 790.351562 L 346.886719 756.140625 C 346.929688 744.835938 337.785156 735.640625 326.472656 735.601562 L 283.277344 735.457031 C 282.136719 735.457031 281.210938 736.378906 281.207031 737.519531 Z M 600.769531 770.15625 C 600.886719 770.152344 601.089844 770.351562 601.375 770.75 C 610.359375 783.429688 619.320312 796.121094 628.261719 808.832031 C 629.019531 809.910156 630.058594 810.453125 631.382812 810.464844 C 635.828125 810.515625 640.164062 810.515625 644.394531 810.464844 C 645.695312 810.449219 646.34375 809.789062 646.34375 808.488281 C 646.335938 785.402344 646.308594 762.335938 646.265625 739.289062 C 646.257812 738.328125 646.136719 737.519531 645.898438 736.859375 C 645.679688 736.273438 645.121094 735.882812 644.496094 735.882812 L 629.238281 735.945312 C 628.175781 735.949219 627.320312 736.8125 627.320312 737.875 C 627.308594 748.507812 627.300781 759.796875 627.296875 771.734375 C 627.296875 772.703125 627.253906 773.699219 627.175781 774.714844 C 627.085938 775.757812 626.714844 775.867188 626.0625 775.042969 C 621.765625 769.617188 617.375 763.703125 612.882812 757.304688 C 611.242188 754.964844 608.164062 750.25 603.65625 743.160156 C 602.082031 740.691406 600.648438 738.972656 599.351562 738 C 594.921875 734.691406 587.46875 735.257812 582.230469 735.921875 C 581.695312 735.992188 581.292969 736.449219 581.296875 736.992188 L 581.222656 808.585938 C 581.222656 809.121094 581.4375 809.636719 581.824219 810.015625 C 582.207031 810.394531 582.726562 810.601562 583.261719 810.59375 L 598.335938 810.328125 C 599.503906 810.3125 600.4375 809.347656 600.425781 808.175781 L 599.953125 771.132812 C 599.941406 770.53125 600.214844 770.207031 600.769531 770.15625 Z M 428.925781 754.183594 C 428.960938 744.09375 420.8125 735.886719 410.726562 735.851562 L 381.4375 735.75 C 371.351562 735.714844 363.144531 743.863281 363.109375 753.953125 L 362.976562 792.308594 C 362.941406 802.394531 371.089844 810.601562 381.175781 810.636719 L 410.464844 810.738281 C 420.550781 810.773438 428.757812 802.625 428.792969 792.535156 Z M 465.847656 771.0625 C 466.210938 771.136719 466.480469 771.339844 466.65625 771.667969 C 470.105469 778.140625 473.613281 784.816406 477.179688 791.695312 C 477.804688 792.898438 478.8125 793.671875 480.210938 794.015625 C 485.332031 795.261719 488.984375 793.339844 491.160156 788.246094 C 493.710938 782.277344 496.535156 776.898438 499.628906 772.109375 C 499.851562 771.757812 500.167969 771.589844 500.578125 771.605469 C 500.847656 771.613281 501.058594 771.835938 501.058594 772.109375 L 500.738281 808.34375 C 500.730469 809.414062 501.585938 810.289062 502.648438 810.304688 L 518.179688 810.503906 C 519.757812 810.523438 520.546875 809.746094 520.546875 808.160156 L 520.453125 737.570312 C 520.453125 736.578125 519.648438 735.777344 518.660156 735.777344 C 513.328125 735.777344 507.9375 735.828125 502.492188 735.929688 C 501.148438 735.953125 500.242188 736.769531 499.628906 737.945312 C 494.558594 747.574219 489.6875 757.171875 485.015625 766.742188 C 484.804688 767.179688 484.554688 767.597656 484.273438 767.992188 C 483.660156 768.839844 482.964844 768.914062 482.183594 768.222656 C 481.667969 767.765625 481.269531 767.230469 480.992188 766.625 C 476.179688 756.148438 471.617188 747.082031 467.3125 739.425781 C 466.027344 737.136719 464.121094 735.96875 461.601562 735.921875 C 457.160156 735.835938 452.484375 735.789062 447.574219 735.777344 C 446.453125 735.777344 445.894531 736.335938 445.894531 737.449219 L 445.820312 808.839844 C 445.820312 809.25 445.984375 809.644531 446.273438 809.933594 C 446.5625 810.222656 446.957031 810.386719 447.367188 810.382812 L 464.167969 810.257812 C 464.605469 810.25 465.019531 810.074219 465.324219 809.761719 C 465.628906 809.449219 465.796875 809.027344 465.792969 808.59375 L 465.328125 771.484375 C 465.320312 771.128906 465.496094 770.988281 465.847656 771.0625 Z M 537.152344 750.5 C 538.886719 751.910156 540.804688 753.929688 540.804688 756.257812 C 540.789062 768.605469 540.777344 780.476562 540.773438 791.871094 C 540.773438 793.039062 540.390625 794.300781 539.15625 794.667969 C 536.769531 795.375 535.347656 796.832031 534.894531 799.042969 C 534.347656 801.703125 534.226562 804.835938 534.535156 808.441406 C 534.636719 809.667969 535.296875 810.289062 536.511719 810.3125 C 546.097656 810.472656 555.554688 810.566406 564.886719 810.59375 C 565.308594 810.59375 565.710938 810.421875 566.003906 810.121094 C 566.296875 809.820312 566.457031 809.414062 566.445312 808.992188 C 566.347656 805.714844 566.261719 802.335938 566.179688 798.859375 C 566.125 796.238281 563.132812 795.324219 561.367188 793.941406 C 561.085938 793.722656 560.886719 793.414062 560.796875 793.0625 C 560.636719 792.414062 560.285156 792.199219 560.292969 791.4375 C 560.40625 778.628906 560.453125 766.4375 560.429688 754.867188 C 560.414062 751.035156 566.09375 750.699219 566.210938 747.589844 C 566.324219 744.65625 566.335938 741.296875 566.253906 737.511719 C 566.230469 736.605469 565.492188 735.882812 564.589844 735.882812 L 536 735.753906 C 535.167969 735.753906 534.742188 736.167969 534.726562 736.992188 C 534.664062 740.476562 534.6875 744.1875 534.800781 748.132812 C 534.816406 748.695312 535.15625 749.171875 535.824219 749.566406 C 536.285156 749.84375 536.730469 750.152344 537.152344 750.5 Z M 663.570312 737.816406 L 663.570312 808.640625 C 663.570312 809.792969 664.503906 810.726562 665.65625 810.726562 L 709.84375 810.726562 C 720.523438 810.726562 729.179688 802.289062 729.179688 791.878906 L 729.179688 754.578125 C 729.179688 744.167969 720.523438 735.730469 709.84375 735.730469 L 665.65625 735.730469 C 664.503906 735.730469 663.570312 736.664062 663.570312 737.816406 Z M 764.984375 755.058594 C 764.957031 753.332031 765.804688 752.472656 767.527344 752.484375 L 806.9375 752.757812 C 807.53125 752.761719 808.101562 752.527344 808.519531 752.105469 C 808.9375 751.6875 809.171875 751.117188 809.167969 750.523438 L 809.097656 738.601562 C 809.085938 736.738281 808.148438 735.808594 806.289062 735.800781 C 787.207031 735.742188 767.671875 735.761719 747.679688 735.859375 C 747.351562 735.859375 747.058594 735.949219 746.796875 736.136719 C 746.417969 736.402344 746.234375 736.765625 746.238281 737.226562 C 746.367188 754.351562 746.339844 772.28125 746.160156 791.015625 C 746.125 794.0625 746.316406 796.363281 746.734375 797.917969 C 748.308594 803.761719 753.117188 808.609375 758.953125 810.03125 C 760.5625 810.421875 763.671875 810.605469 768.277344 810.585938 C 782.257812 810.519531 795.011719 810.480469 806.546875 810.464844 C 808.363281 810.464844 809.25 809.554688 809.207031 807.738281 L 808.914062 796.171875 C 808.875 794.515625 808.027344 793.691406 806.371094 793.703125 L 767.480469 793.988281 C 765.921875 794 765.140625 793.226562 765.136719 791.671875 L 765.128906 783.121094 C 765.128906 782.535156 765.363281 781.972656 765.777344 781.558594 C 766.191406 781.144531 766.757812 780.914062 767.34375 780.914062 L 802.003906 781.003906 C 802.519531 781.003906 803.015625 780.796875 803.375 780.433594 C 803.738281 780.066406 803.9375 779.566406 803.929688 779.050781 L 803.769531 767.375 C 803.757812 766.347656 802.933594 765.515625 801.90625 765.496094 C 790.738281 765.261719 779.273438 765.097656 767.511719 765.007812 C 764.800781 764.984375 764.902344 762.328125 764.953125 760.386719 C 764.996094 758.480469 765.003906 756.707031 764.984375 755.058594 Z M 873.402344 739.679688 C 868.6875 752.664062 863.660156 766.699219 858.320312 781.792969 C 858.234375 782.027344 858.050781 782.207031 857.820312 782.285156 C 857.585938 782.367188 857.332031 782.335938 857.128906 782.203125 C 856.882812 782.042969 856.660156 781.683594 856.464844 781.121094 C 851.078125 765.890625 846.289062 752.488281 842.09375 740.910156 C 841.0625 738.050781 840.078125 735.832031 837 735.792969 C 832.234375 735.734375 827.867188 735.769531 823.90625 735.898438 C 823.171875 735.917969 822.773438 736.296875 822.707031 737.027344 C 822.28125 741.910156 823.136719 747.09375 825.273438 752.578125 C 833.496094 773.644531 840.445312 791.984375 846.125 807.601562 C 846.816406 809.492188 848.167969 810.460938 850.179688 810.503906 C 854.820312 810.601562 859.742188 810.667969 864.941406 810.703125 C 866.707031 810.714844 867.898438 809.898438 868.515625 808.257812 C 876.453125 787.117188 883.929688 767.34375 890.941406 748.941406 C 892.40625 745.085938 892.890625 741.289062 892.386719 737.546875 C 892.242188 736.488281 891.648438 735.949219 890.597656 735.921875 C 886.011719 735.804688 881.40625 735.753906 876.777344 735.769531 C 874.683594 735.777344 873.976562 738.097656 873.402344 739.679688 Z M 873.402344 739.679688 "/>
<path style=" stroke:none;fill-rule:nonzero;fill:rgb(7.058824%,7.058824%,7.058824%);fill-opacity:1;" d="M 451.019531 370.808594 C 451.066406 370.648438 451.15625 370.515625 451.285156 370.417969 C 451.394531 370.320312 451.5 370.21875 451.597656 370.113281 C 456.878906 364.347656 463.132812 361.4375 470.359375 361.378906 C 477.449219 361.316406 482.824219 363.640625 488.328125 367.714844 C 489.558594 368.628906 490.613281 369.667969 491.496094 370.824219 C 493.882812 373.984375 495.503906 376.730469 496.355469 379.0625 C 497.402344 381.933594 498.132812 384.378906 501.28125 385.746094 C 537.601562 401.558594 574.261719 417.433594 611.261719 433.363281 C 613.402344 434.285156 614.863281 433.847656 615.636719 432.050781 C 619.789062 422.390625 623.847656 412.816406 627.816406 403.324219 C 629.390625 399.558594 631.679688 396.175781 635.898438 395.671875 C 642.976562 394.832031 651.605469 400.214844 656.535156 404.933594 C 657.5 405.855469 657.851562 406.996094 657.589844 408.355469 C 656.867188 412.035156 655.75 415.503906 654.253906 418.917969 C 647.632812 434.035156 641.304688 448.777344 635.269531 463.152344 C 632.414062 469.957031 626.414062 472.820312 619.800781 469.964844 C 569.433594 448.195312 527.347656 430.082031 493.535156 415.625 C 490.6875 414.410156 487.582031 413.359375 484.226562 412.472656 C 483.980469 412.410156 483.722656 412.417969 483.480469 412.488281 C 478.238281 414.023438 473.378906 414.671875 468.902344 414.433594 C 456.777344 413.785156 447.917969 404.90625 444.726562 393.519531 C 444.007812 390.941406 443.839844 388.34375 444.222656 385.730469 C 444.957031 380.699219 446.902344 376.117188 450.058594 371.984375 C 450.226562 371.765625 450.414062 371.570312 450.621094 371.398438 C 450.816406 371.246094 450.949219 371.046875 451.019531 370.808594 Z M 461.96875 376.847656 C 460.316406 378.222656 458.933594 379.910156 457.824219 381.917969 C 457 383.417969 456.570312 385.28125 456.539062 387.5 C 456.472656 392.703125 458.460938 396.765625 462.496094 399.695312 C 472.15625 406.699219 484.394531 400.359375 485.808594 389.160156 C 486.097656 386.863281 485.707031 384.496094 484.640625 382.058594 C 483.621094 379.742188 482.136719 377.714844 480.1875 375.980469 C 479.636719 375.496094 479.078125 375.183594 478.515625 375.039062 C 477.859375 374.867188 477.246094 374.671875 476.675781 374.453125 C 476.636719 374.4375 476.636719 374.421875 476.667969 374.398438 C 476.6875 374.382812 476.695312 374.359375 476.683594 374.328125 C 476.667969 374.269531 476.628906 374.230469 476.5625 374.214844 C 473.257812 373.28125 470.214844 373.160156 467.4375 373.847656 C 465.65625 374.289062 463.835938 375.289062 461.96875 376.847656 Z M 461.96875 376.847656 "/>
<path style=" stroke:none;fill-rule:nonzero;fill:rgb(7.058824%,7.058824%,7.058824%);fill-opacity:1;" d="M 672.398438 540.835938 C 678.601562 543.125 684.9375 545.878906 691.417969 549.097656 C 697.824219 552.273438 701.796875 556.433594 698.511719 563.828125 C 697.496094 566.105469 696.539062 568.304688 695.640625 570.425781 C 693.03125 576.5625 689.273438 580.65625 682.117188 577.671875 C 662.65625 569.570312 645.046875 562.082031 629.285156 555.207031 C 623.921875 552.863281 622.679688 548.148438 624.34375 542.667969 C 625.292969 539.554688 626.339844 536.796875 627.480469 534.390625 C 630.039062 528.992188 632.566406 523.3125 635.070312 517.355469 C 649.984375 481.828125 665.488281 445.285156 681.574219 407.722656 C 682.011719 406.675781 681.890625 405.378906 681.453125 404.339844 C 676.039062 391.488281 677.910156 375.871094 690.738281 368.351562 C 696.496094 364.976562 703.996094 363.660156 710.578125 364.929688 C 720.910156 366.929688 728.597656 374.460938 731.195312 384.601562 C 735.546875 401.597656 724.957031 411.003906 711.410156 418.152344 C 710.367188 418.707031 709.601562 419.546875 709.125 420.679688 C 693.011719 458.488281 676.957031 496.121094 660.957031 533.574219 C 660.699219 534.179688 660.855469 534.882812 661.347656 535.328125 C 664.386719 538.054688 668.609375 539.429688 672.398438 540.835938 Z M 719.597656 390.808594 C 719.597656 382.832031 713.132812 376.367188 705.15625 376.367188 C 697.179688 376.367188 690.714844 382.832031 690.714844 390.808594 C 690.714844 398.785156 697.179688 405.253906 705.15625 405.253906 C 713.132812 405.253906 719.597656 398.785156 719.597656 390.808594 Z M 719.597656 390.808594 "/>
<path style=" stroke:none;fill-rule:nonzero;fill:rgb(7.058824%,7.058824%,7.058824%);fill-opacity:1;" d="M 556.863281 367.394531 L 617.109375 393.214844 C 619.96875 394.441406 621.292969 397.75 620.066406 400.609375 L 612.542969 418.160156 C 611.316406 421.019531 608.007812 422.34375 605.148438 421.117188 L 544.90625 395.296875 C 542.046875 394.070312 540.722656 390.761719 541.949219 387.902344 L 549.472656 370.351562 C 550.695312 367.492188 554.007812 366.167969 556.863281 367.394531 Z M 556.863281 367.394531 "/>
<path style=" stroke:none;fill-rule:nonzero;fill:rgb(100%,100%,100%);fill-opacity:1;" d="M 461.96875 376.847656 C 463.835938 375.289062 465.65625 374.289062 467.4375 373.847656 C 470.214844 373.160156 473.257812 373.28125 476.5625 374.214844 C 476.628906 374.230469 476.667969 374.269531 476.683594 374.328125 C 476.695312 374.359375 476.6875 374.382812 476.667969 374.398438 C 476.636719 374.421875 476.636719 374.4375 476.675781 374.453125 C 477.246094 374.671875 477.859375 374.867188 478.515625 375.039062 C 479.078125 375.183594 479.636719 375.496094 480.1875 375.980469 C 482.136719 377.714844 483.621094 379.742188 484.640625 382.058594 C 485.707031 384.496094 486.097656 386.863281 485.808594 389.160156 C 484.394531 400.359375 472.15625 406.699219 462.496094 399.695312 C 458.460938 396.765625 456.472656 392.703125 456.539062 387.5 C 456.570312 385.28125 457 383.417969 457.824219 381.917969 C 458.933594 379.910156 460.316406 378.222656 461.96875 376.847656 Z M 461.96875 376.847656 "/>
<path style=" stroke:none;fill-rule:nonzero;fill:rgb(100%,100%,100%);fill-opacity:1;" d="M 719.597656 390.808594 C 719.597656 382.832031 713.132812 376.367188 705.15625 376.367188 C 697.179688 376.367188 690.714844 382.832031 690.714844 390.808594 C 690.714844 398.785156 697.179688 405.253906 705.15625 405.253906 C 713.132812 405.253906 719.597656 398.785156 719.597656 390.808594 Z M 719.597656 390.808594 "/>
<path style=" stroke:none;fill-rule:nonzero;fill:rgb(7.058824%,7.058824%,7.058824%);fill-opacity:1;" d="M 486.65625 648.238281 C 486.492188 648.421875 486.316406 648.585938 486.128906 648.734375 C 481.328125 652.5 475.957031 654.257812 470.011719 654.015625 C 457.867188 653.503906 446.507812 642.953125 444.710938 631.15625 C 443.90625 625.863281 444.546875 620.789062 446.628906 615.9375 C 448.292969 612.0625 450.472656 609.148438 453.171875 607.191406 C 455.378906 605.585938 457.691406 603.953125 460.113281 602.289062 C 463.246094 600.136719 464.886719 597.601562 466.359375 594.003906 C 481.164062 557.734375 496.410156 520.949219 512.09375 483.65625 C 512.773438 482.042969 512.300781 480.902344 510.679688 480.242188 C 501.011719 476.28125 491.128906 472.246094 481.027344 468.140625 C 472.902344 464.847656 471.214844 458.929688 474.890625 451.164062 C 476.554688 447.660156 478.058594 443.421875 481.042969 441.007812 C 484.308594 438.359375 488.242188 438.03125 492.835938 440.03125 C 506.335938 445.917969 520.320312 451.675781 534.785156 457.304688 C 540.796875 459.648438 552.464844 465.078125 548.90625 473.660156 C 529.871094 519.542969 511.332031 564.265625 493.285156 607.828125 C 493.035156 608.441406 492.886719 609.089844 492.835938 609.773438 C 492.800781 610.34375 493.003906 611.03125 493.445312 611.835938 C 497.300781 618.835938 498.472656 625.6875 496.964844 632.390625 C 495.605469 638.425781 492.53125 643.453125 487.742188 647.480469 C 487.59375 647.601562 487.433594 647.703125 487.265625 647.785156 C 487.027344 647.890625 486.820312 648.046875 486.65625 648.238281 Z M 485.785156 626.816406 C 485.785156 618.847656 479.324219 612.386719 471.355469 612.386719 C 463.390625 612.386719 456.929688 618.847656 456.929688 626.816406 C 456.929688 634.785156 463.390625 641.242188 471.355469 641.242188 C 479.324219 641.242188 485.785156 634.785156 485.785156 626.816406 Z M 485.785156 626.816406 "/>
<path style=" stroke:none;fill-rule:nonzero;fill:rgb(7.058824%,7.058824%,7.058824%);fill-opacity:1;" d="M 706.621094 463.15625 L 724.25 470.75 C 727.085938 471.972656 728.394531 475.257812 727.171875 478.09375 L 701.3125 538.148438 C 700.089844 540.984375 696.800781 542.292969 693.964844 541.070312 L 676.335938 533.480469 C 673.5 532.257812 672.191406 528.96875 673.414062 526.132812 L 699.277344 466.082031 C 700.5 463.246094 703.785156 461.9375 706.621094 463.15625 Z M 706.621094 463.15625 "/>
<path style=" stroke:none;fill-rule:nonzero;fill:rgb(7.058824%,7.058824%,7.058824%);fill-opacity:1;" d="M 479.089844 476.441406 L 496.128906 483.535156 C 499.140625 484.789062 500.566406 488.25 499.3125 491.261719 L 474.457031 550.976562 C 473.203125 553.992188 469.742188 555.417969 466.730469 554.160156 L 449.6875 547.070312 C 446.675781 545.816406 445.25 542.355469 446.503906 539.339844 L 471.359375 479.625 C 472.613281 476.613281 476.074219 475.1875 479.089844 476.441406 Z M 479.089844 476.441406 "/>
<path style=" stroke:none;fill-rule:nonzero;fill:rgb(7.058824%,7.058824%,7.058824%);fill-opacity:1;" d="M 671.71875 628.832031 C 634.902344 613.582031 598.480469 598.285156 562.460938 582.933594 C 560.4375 582.078125 558.664062 582.621094 557.917969 584.613281 C 554.300781 594.289062 550.382812 603.726562 546.171875 612.925781 C 543.851562 617.988281 540.214844 621.960938 534.09375 620.847656 C 528.21875 619.769531 522.675781 617.027344 518.597656 612.851562 C 516.0625 610.269531 516.460938 605.78125 517.734375 602.742188 C 525.355469 584.457031 532.375 567.875 538.789062 552.992188 C 542.019531 545.507812 548.042969 544.050781 554.894531 546.9375 C 598.375 565.3125 641.328125 583.375 683.753906 601.128906 C 687.660156 602.761719 691.035156 602.960938 695.214844 601.800781 C 712.136719 597.121094 728.789062 607.140625 730.285156 625.082031 C 731.195312 636.027344 726.707031 644.511719 716.824219 650.542969 C 701.5 659.890625 683.300781 650.648438 677.695312 634.78125 C 676.644531 631.796875 674.511719 629.992188 671.71875 628.832031 Z M 718.238281 627.328125 C 718.238281 619.292969 711.726562 612.78125 703.691406 612.78125 C 695.660156 612.78125 689.144531 619.292969 689.144531 627.328125 C 689.144531 635.363281 695.660156 641.875 703.691406 641.875 C 711.726562 641.875 718.238281 635.363281 718.238281 627.328125 Z M 718.238281 627.328125 "/>
<path style=" stroke:none;fill-rule:nonzero;fill:rgb(7.058824%,7.058824%,7.058824%);fill-opacity:1;" d="M 568.886719 595.195312 L 629.265625 620.703125 C 632.097656 621.898438 633.425781 625.164062 632.226562 627.996094 L 624.796875 645.585938 C 623.601562 648.417969 620.335938 649.746094 617.503906 648.550781 L 557.125 623.042969 C 554.292969 621.847656 552.964844 618.582031 554.164062 615.75 L 561.59375 598.160156 C 562.789062 595.328125 566.054688 594 568.886719 595.195312 Z M 568.886719 595.195312 "/>
<path style=" stroke:none;fill-rule:nonzero;fill:rgb(100%,100%,100%);fill-opacity:1;" d="M 485.785156 626.816406 C 485.785156 618.847656 479.324219 612.386719 471.355469 612.386719 C 463.390625 612.386719 456.929688 618.847656 456.929688 626.816406 C 456.929688 634.785156 463.390625 641.242188 471.355469 641.242188 C 479.324219 641.242188 485.785156 634.785156 485.785156 626.816406 Z M 485.785156 626.816406 "/>
<path style=" stroke:none;fill-rule:nonzero;fill:rgb(100%,100%,100%);fill-opacity:1;" d="M 718.238281 627.328125 C 718.238281 619.292969 711.726562 612.78125 703.691406 612.78125 C 695.660156 612.78125 689.144531 619.292969 689.144531 627.328125 C 689.144531 635.363281 695.660156 641.875 703.691406 641.875 C 711.726562 641.875 718.238281 635.363281 718.238281 627.328125 Z M 718.238281 627.328125 "/>
<path style=" stroke:none;fill-rule:nonzero;fill:rgb(7.058824%,7.058824%,7.058824%);fill-opacity:1;" d="M 281.207031 737.519531 C 281.210938 736.378906 282.136719 735.457031 283.277344 735.457031 L 326.472656 735.601562 C 337.785156 735.640625 346.929688 744.835938 346.886719 756.140625 L 346.777344 790.351562 C 346.738281 801.652344 337.53125 810.785156 326.214844 810.742188 L 283.023438 810.601562 C 281.878906 810.59375 280.953125 809.664062 280.957031 808.519531 Z M 326.964844 754.285156 C 326.964844 753.136719 326.03125 752.207031 324.882812 752.207031 L 302.761719 752.246094 C 301.613281 752.25 300.683594 753.183594 300.6875 754.332031 L 300.753906 792.078125 C 300.753906 793.226562 301.6875 794.15625 302.835938 794.152344 L 324.957031 794.113281 C 326.105469 794.113281 327.035156 793.179688 327.03125 792.03125 Z M 326.964844 754.285156 "/>
<path style=" stroke:none;fill-rule:nonzero;fill:rgb(7.058824%,7.058824%,7.058824%);fill-opacity:1;" d="M 600.769531 770.15625 C 600.214844 770.207031 599.941406 770.53125 599.953125 771.132812 L 600.425781 808.175781 C 600.4375 809.347656 599.503906 810.3125 598.335938 810.328125 L 583.261719 810.59375 C 582.726562 810.601562 582.207031 810.394531 581.824219 810.015625 C 581.4375 809.636719 581.222656 809.121094 581.222656 808.585938 L 581.296875 736.992188 C 581.292969 736.449219 581.695312 735.992188 582.230469 735.921875 C 587.46875 735.257812 594.921875 734.691406 599.351562 738 C 600.648438 738.972656 602.082031 740.691406 603.65625 743.160156 C 608.164062 750.25 611.242188 754.964844 612.882812 757.304688 C 617.375 763.703125 621.765625 769.617188 626.0625 775.042969 C 626.714844 775.867188 627.085938 775.757812 627.175781 774.714844 C 627.253906 773.699219 627.296875 772.703125 627.296875 771.734375 C 627.300781 759.796875 627.308594 748.507812 627.320312 737.875 C 627.320312 736.8125 628.175781 735.949219 629.238281 735.945312 L 644.496094 735.882812 C 645.121094 735.882812 645.679688 736.273438 645.898438 736.859375 C 646.136719 737.519531 646.257812 738.328125 646.265625 739.289062 C 646.308594 762.335938 646.335938 785.402344 646.34375 808.488281 C 646.34375 809.789062 645.695312 810.449219 644.394531 810.464844 C 640.164062 810.515625 635.828125 810.515625 631.382812 810.464844 C 630.058594 810.453125 629.019531 809.910156 628.261719 808.832031 C 619.320312 796.121094 610.359375 783.429688 601.375 770.75 C 601.089844 770.351562 600.886719 770.152344 600.769531 770.15625 Z M 600.769531 770.15625 "/>
<path style=" stroke:none;fill-rule:nonzero;fill:rgb(7.058824%,7.058824%,7.058824%);fill-opacity:1;" d="M 428.792969 792.535156 C 428.757812 802.625 420.550781 810.773438 410.464844 810.738281 L 381.175781 810.636719 C 371.089844 810.601562 362.941406 802.394531 362.976562 792.308594 L 363.109375 753.953125 C 363.144531 743.863281 371.351562 735.714844 381.4375 735.75 L 410.726562 735.851562 C 420.8125 735.886719 428.960938 744.09375 428.925781 754.183594 Z M 409.691406 754.058594 C 409.691406 753.078125 408.894531 752.285156 407.914062 752.285156 L 384.355469 752.285156 C 383.375 752.285156 382.578125 753.078125 382.578125 754.058594 L 382.578125 792.367188 C 382.578125 793.347656 383.375 794.140625 384.355469 794.140625 L 407.914062 794.140625 C 408.894531 794.140625 409.691406 793.347656 409.691406 792.367188 Z M 409.691406 754.058594 "/>
<path style=" stroke:none;fill-rule:nonzero;fill:rgb(7.058824%,7.058824%,7.058824%);fill-opacity:1;" d="M 465.847656 771.0625 C 465.496094 770.988281 465.320312 771.128906 465.328125 771.484375 L 465.792969 808.59375 C 465.796875 809.027344 465.628906 809.449219 465.324219 809.761719 C 465.019531 810.074219 464.605469 810.25 464.167969 810.257812 L 447.367188 810.382812 C 446.957031 810.386719 446.5625 810.222656 446.273438 809.933594 C 445.984375 809.644531 445.820312 809.25 445.820312 808.839844 L 445.894531 737.449219 C 445.894531 736.335938 446.453125 735.777344 447.574219 735.777344 C 452.484375 735.789062 457.160156 735.835938 461.601562 735.921875 C 464.121094 735.96875 466.027344 737.136719 467.3125 739.425781 C 471.617188 747.082031 476.179688 756.148438 480.992188 766.625 C 481.269531 767.230469 481.667969 767.765625 482.183594 768.222656 C 482.964844 768.914062 483.660156 768.839844 484.273438 767.992188 C 484.554688 767.597656 484.804688 767.179688 485.015625 766.742188 C 489.6875 757.171875 494.558594 747.574219 499.628906 737.945312 C 500.242188 736.769531 501.148438 735.953125 502.492188 735.929688 C 507.9375 735.828125 513.328125 735.777344 518.660156 735.777344 C 519.648438 735.777344 520.453125 736.578125 520.453125 737.570312 L 520.546875 808.160156 C 520.546875 809.746094 519.757812 810.523438 518.179688 810.503906 L 502.648438 810.304688 C 501.585938 810.289062 500.730469 809.414062 500.738281 808.34375 L 501.058594 772.109375 C 501.058594 771.835938 500.847656 771.613281 500.578125 771.605469 C 500.167969 771.589844 499.851562 771.757812 499.628906 772.109375 C 496.535156 776.898438 493.710938 782.277344 491.160156 788.246094 C 488.984375 793.339844 485.332031 795.261719 480.210938 794.015625 C 478.8125 793.671875 477.804688 792.898438 477.179688 791.695312 C 473.613281 784.816406 470.105469 778.140625 466.65625 771.667969 C 466.480469 771.339844 466.210938 771.136719 465.847656 771.0625 Z M 465.847656 771.0625 "/>
<path style=" stroke:none;fill-rule:nonzero;fill:rgb(7.058824%,7.058824%,7.058824%);fill-opacity:1;" d="M 535.824219 749.566406 C 535.15625 749.171875 534.816406 748.695312 534.800781 748.132812 C 534.6875 744.1875 534.664062 740.476562 534.726562 736.992188 C 534.742188 736.167969 535.167969 735.753906 536 735.753906 L 564.589844 735.882812 C 565.492188 735.882812 566.230469 736.605469 566.253906 737.511719 C 566.335938 741.296875 566.324219 744.65625 566.210938 747.589844 C 566.09375 750.699219 560.414062 751.035156 560.429688 754.867188 C 560.453125 766.4375 560.40625 778.628906 560.292969 791.4375 C 560.285156 792.199219 560.636719 792.414062 560.796875 793.0625 C 560.886719 793.414062 561.085938 793.722656 561.367188 793.941406 C 563.132812 795.324219 566.125 796.238281 566.179688 798.859375 C 566.261719 802.335938 566.347656 805.714844 566.445312 808.992188 C 566.457031 809.414062 566.296875 809.820312 566.003906 810.121094 C 565.710938 810.421875 565.308594 810.59375 564.886719 810.59375 C 555.554688 810.566406 546.097656 810.472656 536.511719 810.3125 C 535.296875 810.289062 534.636719 809.667969 534.535156 808.441406 C 534.226562 804.835938 534.347656 801.703125 534.894531 799.042969 C 535.347656 796.832031 536.769531 795.375 539.15625 794.667969 C 540.390625 794.300781 540.773438 793.039062 540.773438 791.871094 C 540.777344 780.476562 540.789062 768.605469 540.804688 756.257812 C 540.804688 753.929688 538.886719 751.910156 537.152344 750.5 C 536.730469 750.152344 536.285156 749.84375 535.824219 749.566406 Z M 535.824219 749.566406 "/>
<path style=" stroke:none;fill-rule:nonzero;fill:rgb(7.058824%,7.058824%,7.058824%);fill-opacity:1;" d="M 663.570312 737.816406 C 663.570312 736.664062 664.503906 735.730469 665.65625 735.730469 L 709.84375 735.730469 C 720.523438 735.730469 729.179688 744.167969 729.179688 754.578125 L 729.179688 791.878906 C 729.179688 802.289062 720.523438 810.726562 709.84375 810.726562 L 665.65625 810.726562 C 664.503906 810.726562 663.570312 809.792969 663.570312 808.640625 Z M 709.5 754.066406 C 709.5 753.070312 708.691406 752.261719 707.691406 752.261719 L 684.914062 752.261719 C 683.917969 752.261719 683.109375 753.070312 683.109375 754.066406 L 683.109375 792.277344 C 683.109375 793.277344 683.917969 794.085938 684.914062 794.085938 L 707.691406 794.085938 C 708.691406 794.085938 709.5 793.277344 709.5 792.277344 Z M 709.5 754.066406 "/>
<path style=" stroke:none;fill-rule:nonzero;fill:rgb(7.058824%,7.058824%,7.058824%);fill-opacity:1;" d="M 764.984375 755.058594 C 765.003906 756.707031 764.996094 758.480469 764.953125 760.386719 C 764.902344 762.328125 764.800781 764.984375 767.511719 765.007812 C 779.273438 765.097656 790.738281 765.261719 801.90625 765.496094 C 802.933594 765.515625 803.757812 766.347656 803.769531 767.375 L 803.929688 779.050781 C 803.9375 779.566406 803.738281 780.066406 803.375 780.433594 C 803.015625 780.796875 802.519531 781.003906 802.003906 781.003906 L 767.34375 780.914062 C 766.757812 780.914062 766.191406 781.144531 765.777344 781.558594 C 765.363281 781.972656 765.128906 782.535156 765.128906 783.121094 L 765.136719 791.671875 C 765.140625 793.226562 765.921875 794 767.480469 793.988281 L 806.371094 793.703125 C 808.027344 793.691406 808.875 794.515625 808.914062 796.171875 L 809.207031 807.738281 C 809.25 809.554688 808.363281 810.464844 806.546875 810.464844 C 795.011719 810.480469 782.257812 810.519531 768.277344 810.585938 C 763.671875 810.605469 760.5625 810.421875 758.953125 810.03125 C 753.117188 808.609375 748.308594 803.761719 746.734375 797.917969 C 746.316406 796.363281 746.125 794.0625 746.160156 791.015625 C 746.339844 772.28125 746.367188 754.351562 746.238281 737.226562 C 746.234375 736.765625 746.417969 736.402344 746.796875 736.136719 C 747.058594 735.949219 747.351562 735.859375 747.679688 735.859375 C 767.671875 735.761719 787.207031 735.742188 806.289062 735.800781 C 808.148438 735.808594 809.085938 736.738281 809.097656 738.601562 L 809.167969 750.523438 C 809.171875 751.117188 808.9375 751.6875 808.519531 752.105469 C 808.101562 752.527344 807.53125 752.761719 806.9375 752.757812 L 767.527344 752.484375 C 765.804688 752.472656 764.957031 753.332031 764.984375 755.058594 Z M 764.984375 755.058594 "/>
<path style=" stroke:none;fill-rule:nonzero;fill:rgb(7.058824%,7.058824%,7.058824%);fill-opacity:1;" d="M 873.402344 739.679688 C 873.976562 738.097656 874.683594 735.777344 876.777344 735.769531 C 881.40625 735.753906 886.011719 735.804688 890.597656 735.921875 C 891.648438 735.949219 892.242188 736.488281 892.386719 737.546875 C 892.890625 741.289062 892.40625 745.085938 890.941406 748.941406 C 883.929688 767.34375 876.453125 787.117188 868.515625 808.257812 C 867.898438 809.898438 866.707031 810.714844 864.941406 810.703125 C 859.742188 810.667969 854.820312 810.601562 850.179688 810.503906 C 848.167969 810.460938 846.816406 809.492188 846.125 807.601562 C 840.445312 791.984375 833.496094 773.644531 825.273438 752.578125 C 823.136719 747.09375 822.28125 741.910156 822.707031 737.027344 C 822.773438 736.296875 823.171875 735.917969 823.90625 735.898438 C 827.867188 735.769531 832.234375 735.734375 837 735.792969 C 840.078125 735.832031 841.0625 738.050781 842.09375 740.910156 C 846.289062 752.488281 851.078125 765.890625 856.464844 781.121094 C 856.660156 781.683594 856.882812 782.042969 857.128906 782.203125 C 857.332031 782.335938 857.585938 782.367188 857.820312 782.285156 C 858.050781 782.207031 858.234375 782.027344 858.320312 781.792969 C 863.660156 766.699219 868.6875 752.664062 873.402344 739.679688 Z M 873.402344 739.679688 "/>
<path style=" stroke:none;fill-rule:nonzero;fill:rgb(100%,100%,100%);fill-opacity:1;" d="M 302.761719 752.246094 L 324.882812 752.207031 C 326.03125 752.207031 326.964844 753.136719 326.964844 754.285156 L 327.03125 792.03125 C 327.035156 793.179688 326.105469 794.113281 324.957031 794.113281 L 302.835938 794.152344 C 301.6875 794.15625 300.753906 793.226562 300.753906 792.078125 L 300.6875 754.332031 C 300.683594 753.183594 301.613281 752.25 302.761719 752.246094 Z M 302.761719 752.246094 "/>
<path style=" stroke:none;fill-rule:nonzero;fill:rgb(100%,100%,100%);fill-opacity:1;" d="M 684.914062 752.261719 L 707.691406 752.261719 C 708.691406 752.261719 709.5 753.070312 709.5 754.066406 L 709.5 792.277344 C 709.5 793.277344 708.691406 794.085938 707.691406 794.085938 L 684.914062 794.085938 C 683.917969 794.085938 683.109375 793.277344 683.109375 792.277344 L 683.109375 754.066406 C 683.109375 753.070312 683.917969 752.261719 684.914062 752.261719 Z M 684.914062 752.261719 "/>
<path style=" stroke:none;fill-rule:nonzero;fill:rgb(100%,100%,100%);fill-opacity:1;" d="M 384.355469 752.285156 L 407.914062 752.285156 C 408.894531 752.285156 409.691406 753.078125 409.691406 754.058594 L 409.691406 792.367188 C 409.691406 793.347656 408.894531 794.140625 407.914062 794.140625 L 384.355469 794.140625 C 383.375 794.140625 382.578125 793.347656 382.578125 792.367188 L 382.578125 754.058594 C 382.578125 753.078125 383.375 752.285156 384.355469 752.285156 Z M 384.355469 752.285156 "/>
</g>
</svg>
