<?xml version="1.0" encoding="UTF-8"?>
<svg xmlns="http://www.w3.org/2000/svg" xmlns:xlink="http://www.w3.org/1999/xlink" width="px" height="px" viewBox="0 0 724 724" version="1.1">
<g id="surface1">
<path style="fill:none;stroke-width:2;stroke-linecap:butt;stroke-linejoin:miter;stroke:rgb(53.333336%,53.333336%,53.333336%);stroke-opacity:1;stroke-miterlimit:4;" d="M 758.742188 520.960938 C 708.84375 499.429688 657.859375 477.53125 608.382812 456.0625 C 607.125 455.523438 606.3125 454.609375 605.929688 453.328125 C 601.351562 437.960938 591.039062 426.492188 574.617188 424.328125 C 553.390625 421.539062 535.84375 438.273438 534.96875 458.796875 C 534.226562 476.210938 546.828125 491.882812 564 495.09375 C 571.132812 496.421875 576.976562 494.851562 583.710938 492.820312 C 587.648438 491.617188 591.789062 492.460938 595.601562 494.117188 C 651.96875 518.617188 708.320312 542.945312 764.65625 567.117188 C 768.320312 568.679688 771.359375 570.03125 775.171875 570.109375 C 781.296875 570.226562 785.289062 565.953125 787.570312 560.671875 C 796.460938 540.09375 805.554688 519.34375 814.851562 498.398438 C 817.15625 493.203125 817.882812 487.523438 816.460938 482.046875 C 816.132812 480.804688 815.421875 479.796875 814.320312 479.039062 C 807.0625 474.046875 793.203125 466.15625 784.5625 472.140625 C 781.898438 473.976562 779.9375 476.429688 778.671875 479.492188 C 773.132812 492.851562 767.601562 506.226562 762.0625 519.609375 C 761.804688 520.234375 761.304688 520.726562 760.679688 520.984375 C 760.0625 521.234375 759.359375 521.226562 758.742188 520.960938 " transform="matrix(0.5,0,0,0.5,0,0)"/>
<path style="fill:none;stroke-width:2;stroke-linecap:butt;stroke-linejoin:miter;stroke:rgb(53.333336%,53.333336%,53.333336%);stroke-opacity:1;stroke-miterlimit:4;" d="M 822.023438 654.117188 C 843.320312 604.242188 864.640625 553.789062 885.898438 503.84375 C 887.351562 500.429688 889.765625 498.09375 893.132812 496.820312 C 899 494.601562 904.539062 491.890625 908.242188 486.953125 C 916.460938 476 920.351562 462.46875 913.992188 449.867188 C 910.875 443.710938 906.65625 438.609375 901.328125 434.5625 C 888.96875 425.15625 870.203125 426.046875 858.15625 436.46875 C 847.03125 446.09375 842.21875 459.617188 846.867188 473.960938 C 847.75 476.679688 848.773438 479.367188 849.929688 482.03125 C 850.0625 482.328125 850.109375 482.664062 850.0625 482.992188 C 849.75 485.414062 849.171875 487.59375 848.34375 489.523438 C 824.5625 544.929688 801.046875 599.984375 777.8125 654.679688 C 775.796875 659.40625 773.820312 664.757812 773.117188 669.609375 C 772.070312 676.890625 776.140625 679.328125 782.46875 682.148438 C 804.710938 692.039062 826.671875 701.445312 848.351562 710.367188 C 853.867188 712.640625 858.390625 713.828125 862.710938 709.5 C 868.789062 703.40625 874.039062 692.976562 873.046875 684.226562 C 872.46875 679.101562 869.070312 675.304688 862.859375 672.828125 C 848.804688 667.242188 835.453125 661.65625 822.789062 656.078125 C 822.039062 655.75 821.695312 654.875 822.023438 654.117188 " transform="matrix(0.5,0,0,0.5,0,0)"/>
<path style="fill:none;stroke-width:2;stroke-linecap:butt;stroke-linejoin:miter;stroke:rgb(53.333336%,53.333336%,53.333336%);stroke-opacity:1;stroke-miterlimit:4;" d="M 768.0625 477.078125 C 769.765625 473.132812 767.953125 468.554688 764.007812 466.851562 L 684.789062 432.570312 C 680.84375 430.859375 676.265625 432.671875 674.5625 436.617188 L 664.820312 459.117188 C 663.117188 463.0625 664.929688 467.640625 668.867188 469.351562 L 748.09375 503.632812 C 752.03125 505.335938 756.617188 503.523438 758.320312 499.585938 L 768.0625 477.078125 " transform="matrix(0.5,0,0,0.5,0,0)"/>
<path style="fill:none;stroke-width:2;stroke-linecap:butt;stroke-linejoin:miter;stroke:rgb(53.333336%,53.333336%,53.333336%);stroke-opacity:1;stroke-miterlimit:4;" d="M 664.71875 555.820312 C 642.351562 546.828125 620.25 537.8125 598.476562 528.578125 C 581.773438 521.5 576.03125 539.898438 573.273438 552.671875 C 572.929688 554.242188 573.1875 555.734375 574.046875 557.148438 C 578.453125 564.40625 584.671875 566.453125 592.0625 569.4375 C 602.015625 573.46875 612.359375 577.648438 623.101562 581.976562 C 623.929688 582.3125 624.59375 582.96875 624.9375 583.796875 C 625.289062 584.625 625.289062 585.554688 624.9375 586.382812 C 604.523438 635.296875 584.445312 683.5625 564.703125 731.15625 C 562.359375 736.796875 561.140625 740.359375 556.507812 743.03125 C 549.875 746.859375 544.765625 751.351562 541.179688 756.523438 C 531.492188 770.476562 533.742188 788.601562 544.921875 800.859375 C 553.757812 810.539062 566.828125 814.65625 579.382812 810.78125 C 593.320312 806.46875 602.054688 797.398438 605.578125 783.578125 C 608.046875 773.867188 604.726562 764.898438 600.289062 756.117188 C 599.53125 754.617188 599.28125 752.71875 599.9375 751.140625 C 623.59375 694.203125 647.765625 635.921875 672.460938 576.289062 C 674.101562 572.296875 674.890625 566.25 672.46875 562.398438 C 670.53125 559.3125 667.945312 557.117188 664.71875 555.820312 " transform="matrix(0.5,0,0,0.5,0,0)"/>
<path style="fill:none;stroke-width:2;stroke-linecap:butt;stroke-linejoin:miter;stroke:rgb(53.333336%,53.333336%,53.333336%);stroke-opacity:1;stroke-miterlimit:4;" d="M 910.289062 578.53125 C 911.773438 575.054688 910.15625 571.03125 906.679688 569.546875 L 882.429688 559.203125 C 878.953125 557.71875 874.929688 559.335938 873.445312 562.8125 L 839.046875 643.445312 C 837.5625 646.929688 839.179688 650.953125 842.664062 652.4375 L 866.90625 662.78125 C 870.390625 664.265625 874.414062 662.640625 875.898438 659.164062 L 910.289062 578.53125 " transform="matrix(0.5,0,0,0.5,0,0)"/>
<path style="fill:none;stroke-width:2;stroke-linecap:butt;stroke-linejoin:miter;stroke:rgb(53.333336%,53.333336%,53.333336%);stroke-opacity:1;stroke-miterlimit:4;" d="M 608.351562 595.578125 C 609.796875 592.117188 608.164062 588.140625 604.710938 586.695312 L 580.28125 576.476562 C 576.820312 575.03125 572.84375 576.65625 571.398438 580.117188 L 537.429688 661.320312 C 535.984375 664.78125 537.609375 668.757812 541.070312 670.203125 L 565.5 680.421875 C 568.960938 681.875 572.9375 680.242188 574.382812 676.78125 L 608.351562 595.578125 " transform="matrix(0.5,0,0,0.5,0,0)"/>
<path style="fill:none;stroke-width:2;stroke-linecap:butt;stroke-linejoin:miter;stroke:rgb(53.333336%,53.333336%,53.333336%);stroke-opacity:1;stroke-miterlimit:4;" d="M 687.703125 717.328125 C 687.992188 716.960938 688.5 716.828125 688.9375 717.007812 C 735.476562 736.585938 786.117188 757.867188 840.84375 780.859375 C 842.632812 781.617188 843.84375 782.882812 844.460938 784.671875 C 846.023438 789.15625 847.15625 793.640625 850.046875 797.507812 C 864.3125 816.59375 891.390625 818.296875 906.890625 799.703125 C 913.039062 792.3125 915.703125 783.101562 914.53125 773.453125 C 912.507812 756.8125 901.59375 744.1875 884.773438 741.679688 C 878.734375 740.78125 872.21875 741.75 865.21875 744.601562 C 863.367188 745.351562 860.882812 745.773438 858.96875 744.96875 C 800.71875 720.5625 742.203125 695.984375 683.421875 671.226562 C 676.601562 668.359375 670.46875 666.3125 664.3125 671.976562 C 662.789062 673.382812 661.070312 676.367188 659.15625 680.929688 C 650.296875 702.070312 641.492188 722.953125 632.742188 743.59375 C 628.40625 753.8125 632.492188 760.976562 642.460938 764.617188 C 650.5625 767.578125 658.890625 771.953125 666.171875 764.546875 C 667.90625 762.773438 669.867188 759.273438 672.046875 754.03125 C 676.726562 742.820312 681.75 730.851562 687.117188 718.140625 C 687.242188 717.84375 687.5 717.59375 687.703125 717.328125 " transform="matrix(0.5,0,0,0.5,0,0)"/>
<path style="fill:none;stroke-width:2;stroke-linecap:butt;stroke-linejoin:miter;stroke:rgb(53.333336%,53.333336%,53.333336%);stroke-opacity:1;stroke-miterlimit:4;" d="M 784.492188 777.078125 C 785.929688 773.632812 784.304688 769.671875 780.859375 768.234375 L 699.625 734.25 C 696.179688 732.8125 692.21875 734.4375 690.78125 737.875 L 680.53125 762.382812 C 679.085938 765.828125 680.710938 769.789062 684.15625 771.226562 L 765.398438 805.210938 C 768.84375 806.648438 772.796875 805.023438 774.242188 801.578125 L 784.492188 777.078125 " transform="matrix(0.5,0,0,0.5,0,0)"/>
<path style="fill:none;stroke-width:2;stroke-linecap:butt;stroke-linejoin:miter;stroke:rgb(53.333336%,53.333336%,53.333336%);stroke-opacity:1;stroke-miterlimit:4;" d="M 1035.890625 930.023438 C 1046.78125 959.03125 1058.390625 989.179688 1068.867188 1017.382812 C 1069.390625 1018.78125 1070.726562 1019.71875 1072.21875 1019.726562 L 1093.21875 1019.921875 C 1095.210938 1019.9375 1097 1018.710938 1097.710938 1016.851562 C 1108.335938 988.953125 1119.125 960.585938 1130.070312 931.75 C 1131.953125 926.8125 1131.0625 922.320312 1124.742188 921.632812 C 1122.070312 921.335938 1119.398438 921.023438 1116.710938 920.6875 C 1110.25 919.882812 1105.75 921.132812 1103.523438 927.570312 C 1097.320312 945.492188 1090.976562 963.546875 1084.492188 981.75 C 1084.398438 982.007812 1084.171875 982.195312 1083.898438 982.242188 C 1083.632812 982.28125 1083.359375 982.179688 1083.1875 981.960938 C 1082.117188 980.609375 1081.265625 979.070312 1080.640625 977.34375 C 1074.929688 961.75 1069.34375 945.890625 1063.890625 929.78125 C 1062.757812 926.429688 1061.679688 924.21875 1060.65625 923.15625 C 1058.546875 920.945312 1055.859375 920.039062 1052.59375 920.4375 C 1049.671875 920.796875 1046.625 921.054688 1043.453125 921.21875 C 1038.039062 921.507812 1033.40625 923.421875 1035.890625 930.023438 " transform="matrix(0.5,0,0,0.5,0,0)"/>
<path style="fill:none;stroke-width:2;stroke-linecap:butt;stroke-linejoin:miter;stroke:rgb(53.333336%,53.333336%,53.333336%);stroke-opacity:1;stroke-miterlimit:4;" d="M 318.070312 924.78125 L 317.90625 1016.039062 C 317.90625 1018.21875 319.664062 1019.984375 321.84375 1019.992188 L 380.359375 1020.09375 C 394.210938 1020.117188 405.460938 1008.890625 405.492188 995.023438 L 405.570312 946.117188 C 405.601562 932.25 394.390625 920.976562 380.539062 920.953125 L 322.023438 920.851562 C 319.84375 920.84375 318.078125 922.601562 318.070312 924.78125 " transform="matrix(0.5,0,0,0.5,0,0)"/>
<path style="fill:none;stroke-width:2;stroke-linecap:butt;stroke-linejoin:miter;stroke:rgb(53.333336%,53.333336%,53.333336%);stroke-opacity:1;stroke-miterlimit:4;" d="M 514.273438 945.023438 C 514.273438 931.789062 503.539062 921.0625 490.3125 921.0625 L 451.289062 921.0625 C 438.054688 921.0625 427.328125 931.789062 427.328125 945.023438 L 427.328125 996 C 427.328125 1009.234375 438.054688 1019.960938 451.289062 1019.960938 L 490.3125 1019.960938 C 503.539062 1019.960938 514.273438 1009.234375 514.273438 996 L 514.273438 945.023438 " transform="matrix(0.5,0,0,0.5,0,0)"/>
<path style="fill:none;stroke-width:2;stroke-linecap:butt;stroke-linejoin:miter;stroke:rgb(53.333336%,53.333336%,53.333336%);stroke-opacity:1;stroke-miterlimit:4;" d="M 561.898438 966.828125 C 561.976562 966.5 562.234375 966.242188 562.570312 966.164062 C 562.898438 966.085938 563.242188 966.203125 563.460938 966.46875 C 564.585938 967.851562 565.585938 969.40625 566.460938 971.132812 C 570.117188 978.335938 573.90625 985.8125 577.84375 993.5625 C 580.703125 999.203125 587.53125 1001.523438 592.59375 997.132812 C 593.828125 996.054688 595.0625 994.101562 596.289062 991.257812 C 599.492188 983.820312 603.367188 976.203125 607.90625 968.421875 C 608.304688 967.742188 608.65625 967.367188 608.96875 967.3125 C 609.835938 967.132812 610.265625 967.484375 610.257812 968.367188 L 609.882812 1016.46875 C 609.867188 1018.703125 610.976562 1019.820312 613.21875 1019.820312 L 633.679688 1019.820312 C 634.273438 1019.820312 634.84375 1019.585938 635.265625 1019.164062 C 635.6875 1018.734375 635.921875 1018.164062 635.921875 1017.570312 L 635.71875 923.523438 C 635.71875 922.164062 634.625 921.070312 633.273438 921.070312 L 612.96875 921 C 611.046875 920.992188 609.28125 922.070312 608.398438 923.78125 C 601.664062 936.890625 595.078125 949.6875 588.640625 962.15625 C 587.578125 964.210938 585.257812 964 584.296875 962.15625 C 577.289062 948.710938 570.335938 935.4375 563.453125 922.34375 C 563 921.484375 562.117188 920.953125 561.148438 920.960938 L 539.523438 921.148438 C 538.109375 921.164062 536.96875 922.3125 536.96875 923.726562 L 536.96875 1017.5 C 536.96875 1018.164062 537.234375 1018.804688 537.710938 1019.273438 C 538.1875 1019.742188 538.828125 1020.007812 539.5 1020 L 560.46875 1019.796875 C 561.476562 1019.789062 562.296875 1018.96875 562.296875 1017.960938 C 562.382812 1003.03125 562.132812 987.273438 561.570312 970.679688 C 561.523438 969.3125 561.632812 968.03125 561.898438 966.828125 " transform="matrix(0.5,0,0,0.5,0,0)"/>
<path style="fill:none;stroke-width:2;stroke-linecap:butt;stroke-linejoin:miter;stroke:rgb(53.333336%,53.333336%,53.333336%);stroke-opacity:1;stroke-miterlimit:4;" d="M 696.328125 934.109375 C 696.625 930.304688 696.773438 926.65625 696.789062 923.15625 C 696.789062 922.601562 696.570312 922.0625 696.179688 921.671875 C 695.789062 921.273438 695.257812 921.046875 694.703125 921.046875 L 658.53125 921.046875 C 656.734375 921.046875 655.273438 922.5 655.273438 924.296875 C 655.25 928.40625 655.273438 932.632812 655.34375 936.96875 C 655.4375 942.867188 662.726562 939.867188 662.75 945.976562 C 662.78125 963.710938 662.84375 980.296875 662.929688 995.742188 C 662.96875 1001.117188 655.890625 998.148438 655.601562 1003.28125 C 655.351562 1007.703125 655.140625 1012.257812 654.96875 1016.953125 C 654.945312 1017.710938 655.226562 1018.445312 655.757812 1018.992188 C 656.28125 1019.539062 657.007812 1019.84375 657.773438 1019.84375 L 694.453125 1019.71875 C 696.179688 1019.71875 697 1018.851562 696.921875 1017.117188 C 696.695312 1012.382812 696.289062 1007.679688 695.703125 1003 C 695.546875 1001.820312 694.851562 1000.75 693.703125 1000.328125 C 690.695312 999.226562 689.15625 997.023438 689.078125 993.710938 C 688.734375 978.820312 688.84375 963.4375 689.421875 947.5625 C 689.5625 943.710938 690.84375 941.890625 694.03125 939.882812 C 696.023438 938.617188 696.171875 936.203125 696.328125 934.109375 " transform="matrix(0.5,0,0,0.5,0,0)"/>
<path style="fill:none;stroke-width:2;stroke-linecap:butt;stroke-linejoin:miter;stroke:rgb(53.333336%,53.333336%,53.333336%);stroke-opacity:1;stroke-miterlimit:4;" d="M 742.171875 968.226562 C 743.257812 967.320312 744.226562 967.476562 745.070312 968.703125 C 756.804688 985.578125 768.429688 1002.28125 779.9375 1018.796875 C 780.34375 1019.375 781 1019.726562 781.710938 1019.726562 L 801.320312 1019.84375 C 802.765625 1019.851562 803.484375 1019.132812 803.476562 1017.679688 L 803.109375 922.726562 C 803.109375 921.835938 802.382812 921.109375 801.476562 921.101562 L 778.992188 921.03125 C 778.546875 921.023438 778.125 921.203125 777.8125 921.515625 C 777.5 921.828125 777.328125 922.25 777.328125 922.6875 C 777.367188 937.125 777.460938 950.632812 777.632812 963.210938 C 777.65625 965.351562 777.625 967.429688 777.539062 969.4375 C 777.359375 973.617188 776.078125 973.992188 773.6875 970.5625 L 739.632812 921.59375 C 739.367188 921.210938 738.929688 920.984375 738.46875 920.992188 L 718.03125 921.046875 C 717.109375 921.054688 716.367188 921.796875 716.359375 922.71875 L 716.21875 1018.023438 C 716.21875 1018.5 716.40625 1018.953125 716.75 1019.289062 C 717.085938 1019.625 717.546875 1019.8125 718.023438 1019.8125 L 740.429688 1019.65625 C 740.976562 1019.65625 741.5 1019.429688 741.882812 1019.039062 C 742.265625 1018.648438 742.476562 1018.117188 742.46875 1017.570312 L 741.78125 969.0625 C 741.773438 968.742188 741.914062 968.429688 742.171875 968.226562 " transform="matrix(0.5,0,0,0.5,0,0)"/>
<path style="fill:none;stroke-width:2;stroke-linecap:butt;stroke-linejoin:miter;stroke:rgb(53.333336%,53.333336%,53.333336%);stroke-opacity:1;stroke-miterlimit:4;" d="M 826.007812 924 L 826.007812 1016.976562 C 826.007812 1018.671875 827.382812 1020.046875 829.078125 1020.046875 L 887.453125 1020.046875 C 901.335938 1020.046875 912.59375 1008.820312 912.59375 994.96875 L 912.59375 946.007812 C 912.59375 932.15625 901.335938 920.929688 887.453125 920.929688 L 829.078125 920.929688 C 827.382812 920.929688 826.007812 922.304688 826.007812 924 " transform="matrix(0.5,0,0,0.5,0,0)"/>
<path style="fill:none;stroke-width:2;stroke-linecap:butt;stroke-linejoin:miter;stroke:rgb(53.333336%,53.333336%,53.333336%);stroke-opacity:1;stroke-miterlimit:4;" d="M 935.367188 997.84375 C 936.257812 1008.351562 943.898438 1017.0625 954.203125 1019.28125 C 956.335938 1019.742188 960.203125 1019.953125 965.8125 1019.90625 C 983.1875 1019.773438 1000.28125 1019.75 1017.09375 1019.851562 C 1018.484375 1019.859375 1019.171875 1019.164062 1019.15625 1017.773438 L 1018.976562 1000 C 1018.96875 998.703125 1018.3125 998.046875 1017.007812 998.046875 L 963.867188 998.046875 C 962.257812 998.046875 960.953125 996.734375 960.953125 995.117188 L 960.953125 983.960938 C 960.953125 983.273438 961.226562 982.617188 961.710938 982.132812 C 962.195312 981.648438 962.859375 981.382812 963.539062 981.390625 L 1009 981.867188 C 1009.71875 981.875 1010.414062 981.585938 1010.929688 981.0625 C 1011.4375 980.539062 1011.726562 979.828125 1011.726562 979.078125 L 1011.75 962.273438 C 1011.757812 960.625 1010.421875 959.289062 1008.773438 959.28125 L 963.648438 959.15625 C 961.8125 959.15625 960.890625 958.242188 960.890625 956.398438 L 960.867188 946.8125 C 960.867188 944.695312 962.578125 942.984375 964.6875 942.976562 L 1016.171875 942.898438 C 1017.71875 942.890625 1018.96875 941.632812 1018.96875 940.078125 L 1018.976562 924.523438 C 1018.976562 922.203125 1017.828125 921.046875 1015.523438 921.046875 L 938.96875 921.046875 C 936.789062 921.046875 935.015625 922.820312 935.007812 925 C 934.945312 949.179688 934.992188 971.96875 935.15625 993.359375 C 935.164062 994.84375 935.234375 996.34375 935.367188 997.84375 " transform="matrix(0.5,0,0,0.5,0,0)"/>
<path style="fill:none;stroke-width:2;stroke-linecap:butt;stroke-linejoin:miter;stroke:rgb(53.333336%,53.333336%,53.333336%);stroke-opacity:1;stroke-miterlimit:4;" d="M 589.851562 459.671875 C 589.851562 448.9375 581.148438 440.242188 570.421875 440.242188 C 559.6875 440.242188 550.992188 448.9375 550.992188 459.671875 C 550.992188 470.398438 559.6875 479.101562 570.421875 479.101562 C 581.148438 479.101562 589.851562 470.398438 589.851562 459.671875 " transform="matrix(0.5,0,0,0.5,0,0)"/>
<path style="fill:none;stroke-width:2;stroke-linecap:butt;stroke-linejoin:miter;stroke:rgb(53.333336%,53.333336%,53.333336%);stroke-opacity:1;stroke-miterlimit:4;" d="M 900.40625 463.71875 C 900.40625 453.101562 891.804688 444.5 881.1875 444.5 C 870.578125 444.5 861.96875 453.101562 861.96875 463.71875 C 861.96875 474.335938 870.578125 482.9375 881.1875 482.9375 C 891.804688 482.9375 900.40625 474.335938 900.40625 463.71875 " transform="matrix(0.5,0,0,0.5,0,0)"/>
<path style="fill:none;stroke-width:2;stroke-linecap:butt;stroke-linejoin:miter;stroke:rgb(53.333336%,53.333336%,53.333336%);stroke-opacity:1;stroke-miterlimit:4;" d="M 589.6875 776.117188 C 589.6875 765.484375 581.070312 756.859375 570.429688 756.859375 C 559.796875 756.859375 551.171875 765.484375 551.171875 776.117188 C 551.171875 786.757812 559.796875 795.382812 570.429688 795.382812 C 581.070312 795.382812 589.6875 786.757812 589.6875 776.117188 " transform="matrix(0.5,0,0,0.5,0,0)"/>
<path style="fill:none;stroke-width:2;stroke-linecap:butt;stroke-linejoin:miter;stroke:rgb(53.333336%,53.333336%,53.333336%);stroke-opacity:1;stroke-miterlimit:4;" d="M 898.28125 777.039062 C 898.28125 766.421875 889.671875 757.820312 879.0625 757.820312 C 868.445312 757.820312 859.84375 766.421875 859.84375 777.039062 C 859.84375 787.65625 868.445312 796.257812 879.0625 796.257812 C 889.671875 796.257812 898.28125 787.65625 898.28125 777.039062 " transform="matrix(0.5,0,0,0.5,0,0)"/>
<path style="fill:none;stroke-width:2;stroke-linecap:butt;stroke-linejoin:miter;stroke:rgb(53.333336%,53.333336%,53.333336%);stroke-opacity:1;stroke-miterlimit:4;" d="M 379.59375 944.9375 C 379.585938 943.671875 378.554688 942.648438 377.289062 942.65625 L 345.914062 942.765625 C 344.648438 942.765625 343.625 943.796875 343.632812 945.0625 L 343.8125 996.203125 C 343.8125 997.46875 344.84375 998.492188 346.109375 998.484375 L 377.484375 998.375 C 378.75 998.367188 379.773438 997.34375 379.765625 996.078125 L 379.59375 944.9375 " transform="matrix(0.5,0,0,0.5,0,0)"/>
<path style="fill:none;stroke-width:2;stroke-linecap:butt;stroke-linejoin:miter;stroke:rgb(53.333336%,53.333336%,53.333336%);stroke-opacity:1;stroke-miterlimit:4;" d="M 489.109375 944.648438 C 489.109375 943.625 488.28125 942.796875 487.257812 942.796875 L 455 942.796875 C 453.976562 942.796875 453.148438 943.625 453.148438 944.648438 L 453.148438 996.648438 C 453.148438 997.671875 453.976562 998.5 455 998.5 L 487.257812 998.5 C 488.28125 998.5 489.109375 997.671875 489.109375 996.648438 L 489.109375 944.648438 " transform="matrix(0.5,0,0,0.5,0,0)"/>
<path style="fill:none;stroke-width:2;stroke-linecap:butt;stroke-linejoin:miter;stroke:rgb(53.333336%,53.333336%,53.333336%);stroke-opacity:1;stroke-miterlimit:4;" d="M 851.070312 995.742188 C 851.0625 997.171875 852.21875 998.335938 853.648438 998.351562 L 884.476562 998.53125 C 885.171875 998.539062 885.835938 998.265625 886.328125 997.78125 C 886.820312 997.296875 887.09375 996.632812 887.101562 995.9375 L 887.25 945.421875 C 887.25 944.726562 886.976562 944.0625 886.492188 943.578125 C 886.007812 943.085938 885.34375 942.8125 884.648438 942.8125 L 853.789062 942.773438 C 853.101562 942.765625 852.4375 943.039062 851.945312 943.53125 C 851.453125 944.015625 851.179688 944.679688 851.179688 945.367188 L 851.070312 995.742188 " transform="matrix(0.5,0,0,0.5,0,0)"/>
<path style=" stroke:none;fill-rule:nonzero;fill:rgb(6.666667%,6.666667%,6.666667%);fill-opacity:1;" d="M 46.558594 231.488281 C 46.539062 220.609375 46.589844 210.105469 47.269531 199.46875 C 48.066406 186.984375 53.359375 176.933594 63.148438 169.316406 C 67.664062 165.804688 72.304688 162.855469 77.339844 159.960938 C 170.578125 106.375 257.898438 55.976562 339.300781 8.765625 C 350.523438 2.253906 362.964844 -0.394531 375.054688 4.164062 C 382.414062 6.941406 389.726562 11.074219 397.226562 15.445312 C 481.902344 64.757812 566.914062 114.015625 652.261719 163.214844 C 663.519531 169.703125 674.03125 179.730469 676.914062 192.640625 C 677.25 194.15625 677.429688 196.152344 677.445312 198.628906 C 677.464844 201.039062 677.476562 203.414062 677.476562 205.75 C 677.453125 308.996094 677.441406 412.289062 677.441406 515.625 C 677.441406 523.253906 676.171875 530.75 672.691406 537.339844 C 667.71875 546.761719 658.859375 553.246094 649.816406 558.414062 C 567.304688 605.613281 488.28125 651.199219 412.746094 695.164062 C 405.003906 699.671875 397.578125 704.664062 390.066406 709.464844 C 383.976562 713.359375 376.75 716.695312 369.550781 717.910156 C 360.761719 719.386719 352.203125 718.171875 343.875 714.265625 C 340.460938 712.667969 337.203125 710.878906 334.09375 708.898438 C 324.753906 702.960938 315.359375 696.730469 305.855469 691.273438 C 253.707031 661.351562 201.894531 631.535156 150.410156 601.820312 C 125.964844 587.714844 99.140625 572.046875 69.929688 554.820312 C 65.300781 552.085938 61.226562 548.832031 57.710938 545.054688 C 47.429688 534.015625 46.734375 517.921875 46.746094 503.773438 C 46.792969 414.808594 46.730469 324.046875 46.558594 231.488281 Z M 379.371094 260.480469 C 354.421875 249.714844 328.929688 238.765625 304.191406 228.03125 C 303.5625 227.761719 303.15625 227.304688 302.964844 226.664062 C 300.675781 218.980469 295.519531 213.246094 287.308594 212.164062 C 276.695312 210.769531 267.921875 219.136719 267.484375 229.398438 C 267.113281 238.105469 273.414062 245.941406 282 247.546875 C 285.566406 248.210938 288.488281 247.425781 291.855469 246.410156 C 293.824219 245.808594 295.894531 246.230469 297.800781 247.058594 C 325.984375 259.308594 354.160156 271.472656 382.328125 283.558594 C 384.160156 284.339844 385.679688 285.015625 387.585938 285.054688 C 390.648438 285.113281 392.644531 282.976562 393.785156 280.335938 C 398.230469 270.046875 402.777344 259.671875 407.425781 249.199219 C 408.578125 246.601562 408.941406 243.761719 408.230469 241.023438 C 408.066406 240.402344 407.710938 239.898438 407.160156 239.519531 C 403.53125 237.023438 396.601562 233.078125 392.28125 236.070312 C 390.949219 236.988281 389.96875 238.214844 389.335938 239.746094 C 386.566406 246.425781 383.800781 253.113281 381.03125 259.804688 C 380.902344 260.117188 380.652344 260.363281 380.339844 260.492188 C 380.03125 260.617188 379.679688 260.613281 379.371094 260.480469 Z M 411.011719 327.058594 C 421.660156 302.121094 432.320312 276.894531 442.949219 251.921875 C 443.675781 250.214844 444.882812 249.046875 446.566406 248.410156 C 449.5 247.300781 452.269531 245.945312 454.121094 243.476562 C 458.230469 238 460.175781 231.234375 456.996094 224.933594 C 455.4375 221.855469 453.328125 219.304688 450.664062 217.28125 C 444.484375 212.578125 435.101562 213.023438 429.078125 218.234375 C 423.515625 223.046875 421.109375 229.808594 423.433594 236.980469 C 423.875 238.339844 424.386719 239.683594 424.964844 241.015625 C 425.03125 241.164062 425.054688 241.332031 425.03125 241.496094 C 424.875 242.707031 424.585938 243.796875 424.171875 244.761719 C 412.28125 272.464844 400.523438 299.992188 388.90625 327.339844 C 387.898438 329.703125 386.910156 332.378906 386.558594 334.804688 C 386.035156 338.445312 388.070312 339.664062 391.234375 341.074219 C 402.355469 346.019531 413.335938 350.722656 424.175781 355.183594 C 426.933594 356.320312 429.195312 356.914062 431.355469 354.75 C 434.394531 351.703125 437.019531 346.488281 436.523438 342.113281 C 436.234375 339.550781 434.535156 337.652344 431.429688 336.414062 C 424.402344 333.621094 417.726562 330.828125 411.394531 328.039062 C 411.019531 327.875 410.847656 327.4375 411.011719 327.058594 Z M 384.03125 238.539062 C 384.882812 236.566406 383.976562 234.277344 382.003906 233.425781 L 342.394531 216.285156 C 340.421875 215.429688 338.132812 216.335938 337.28125 218.308594 L 332.410156 229.558594 C 331.558594 231.53125 332.464844 233.820312 334.433594 234.675781 L 374.046875 251.816406 C 376.015625 252.667969 378.308594 251.761719 379.160156 249.792969 Z M 332.359375 277.910156 C 321.175781 273.414062 310.125 268.90625 299.238281 264.289062 C 290.886719 260.75 288.015625 269.949219 286.636719 276.335938 C 286.464844 277.121094 286.59375 277.867188 287.023438 278.574219 C 289.226562 282.203125 292.335938 283.226562 296.03125 284.71875 C 301.007812 286.734375 306.179688 288.824219 311.550781 290.988281 C 311.964844 291.15625 312.296875 291.484375 312.46875 291.898438 C 312.644531 292.3125 312.644531 292.777344 312.46875 293.191406 C 302.261719 317.648438 292.222656 341.78125 282.351562 365.578125 C 281.179688 368.398438 280.570312 370.179688 278.253906 371.515625 C 274.9375 373.429688 272.382812 375.675781 270.589844 378.261719 C 265.746094 385.238281 266.871094 394.300781 272.460938 400.429688 C 276.878906 405.269531 283.414062 407.328125 289.691406 405.390625 C 296.660156 403.234375 301.027344 398.699219 302.789062 391.789062 C 304.023438 386.933594 302.363281 382.449219 300.144531 378.058594 C 299.765625 377.308594 299.640625 376.359375 299.96875 375.570312 C 311.796875 347.101562 323.882812 317.960938 336.230469 288.144531 C 337.050781 286.148438 337.445312 283.125 336.234375 281.199219 C 335.265625 279.65625 333.972656 278.558594 332.359375 277.910156 Z M 455.144531 289.265625 C 455.886719 287.527344 455.078125 285.515625 453.339844 284.773438 L 441.214844 279.601562 C 439.476562 278.859375 437.464844 279.667969 436.722656 281.40625 L 419.523438 321.722656 C 418.78125 323.464844 419.589844 325.476562 421.332031 326.21875 L 433.453125 331.390625 C 435.195312 332.132812 437.207031 331.320312 437.949219 329.582031 Z M 304.175781 297.789062 C 304.898438 296.058594 304.082031 294.070312 302.355469 293.347656 L 290.140625 288.238281 C 288.410156 287.515625 286.421875 288.328125 285.699219 290.058594 L 268.714844 330.660156 C 267.992188 332.390625 268.804688 334.378906 270.535156 335.101562 L 282.75 340.210938 C 284.480469 340.9375 286.46875 340.121094 287.191406 338.390625 Z M 343.851562 358.664062 C 343.996094 358.480469 344.25 358.414062 344.46875 358.503906 C 367.738281 368.292969 393.058594 378.933594 420.421875 390.429688 C 421.316406 390.808594 421.921875 391.441406 422.230469 392.335938 C 423.011719 394.578125 423.578125 396.820312 425.023438 398.753906 C 432.15625 408.296875 445.695312 409.148438 453.445312 399.851562 C 456.519531 396.15625 457.851562 391.550781 457.265625 386.726562 C 456.253906 378.40625 450.796875 372.09375 442.386719 370.839844 C 439.367188 370.390625 436.109375 370.875 432.609375 372.300781 C 431.683594 372.675781 430.441406 372.886719 429.484375 372.484375 C 400.359375 360.28125 371.101562 347.992188 341.710938 335.613281 C 338.300781 334.179688 335.234375 333.15625 332.15625 335.988281 C 331.394531 336.691406 330.535156 338.183594 329.578125 340.464844 C 325.148438 351.035156 320.746094 361.476562 316.371094 371.796875 C 314.203125 376.90625 316.246094 380.488281 321.230469 382.308594 C 325.28125 383.789062 329.445312 385.976562 333.085938 382.273438 C 333.953125 381.386719 334.933594 379.636719 336.023438 377.015625 C 338.363281 371.410156 340.875 365.425781 343.558594 359.070312 C 343.621094 358.921875 343.75 358.796875 343.851562 358.664062 Z M 392.246094 388.539062 C 392.964844 386.816406 392.152344 384.835938 390.429688 384.117188 L 349.8125 367.125 C 348.089844 366.40625 346.109375 367.21875 345.390625 368.9375 L 340.265625 381.191406 C 339.542969 382.914062 340.355469 384.894531 342.078125 385.613281 L 382.699219 402.605469 C 384.421875 403.324219 386.398438 402.511719 387.121094 400.789062 Z M 517.945312 465.011719 C 523.390625 479.515625 529.195312 494.589844 534.433594 508.691406 C 534.695312 509.390625 535.363281 509.859375 536.109375 509.863281 L 546.609375 509.960938 C 547.605469 509.96875 548.5 509.355469 548.855469 508.425781 C 554.167969 494.476562 559.5625 480.292969 565.035156 465.875 C 565.976562 463.40625 565.53125 461.160156 562.371094 460.816406 C 561.035156 460.667969 559.699219 460.511719 558.355469 460.34375 C 555.125 459.941406 552.875 460.566406 551.761719 463.785156 C 548.660156 472.746094 545.488281 481.773438 542.246094 490.875 C 542.199219 491.003906 542.085938 491.097656 541.949219 491.121094 C 541.816406 491.140625 541.679688 491.089844 541.59375 490.980469 C 541.058594 490.304688 540.632812 489.535156 540.320312 488.671875 C 537.464844 480.875 534.671875 472.945312 531.945312 464.890625 C 531.378906 463.214844 530.839844 462.109375 530.328125 461.578125 C 529.273438 460.472656 527.929688 460.019531 526.296875 460.21875 C 524.835938 460.398438 523.3125 460.527344 521.726562 460.609375 C 519.019531 460.753906 516.703125 461.710938 517.945312 465.011719 Z M 159.035156 462.390625 L 158.953125 508.019531 C 158.953125 509.109375 159.832031 509.992188 160.921875 509.996094 L 190.179688 510.046875 C 197.105469 510.058594 202.730469 504.445312 202.746094 497.511719 L 202.785156 473.058594 C 202.800781 466.125 197.195312 460.488281 190.269531 460.476562 L 161.011719 460.425781 C 159.921875 460.421875 159.039062 461.300781 159.035156 462.390625 Z M 257.136719 472.511719 C 257.136719 465.894531 251.769531 460.53125 245.15625 460.53125 L 225.644531 460.53125 C 219.027344 460.53125 213.664062 465.894531 213.664062 472.511719 L 213.664062 498 C 213.664062 504.617188 219.027344 509.980469 225.644531 509.980469 L 245.15625 509.980469 C 251.769531 509.980469 257.136719 504.617188 257.136719 498 Z M 280.949219 483.414062 C 280.988281 483.25 281.117188 483.121094 281.285156 483.082031 C 281.449219 483.042969 281.621094 483.101562 281.730469 483.234375 C 282.292969 483.925781 282.792969 484.703125 283.230469 485.566406 C 285.058594 489.167969 286.953125 492.90625 288.921875 496.78125 C 290.351562 499.601562 293.765625 500.761719 296.296875 498.566406 C 296.914062 498.027344 297.53125 497.050781 298.144531 495.628906 C 299.746094 491.910156 301.683594 488.101562 303.953125 484.210938 C 304.152344 483.871094 304.328125 483.683594 304.484375 483.65625 C 304.917969 483.566406 305.132812 483.742188 305.128906 484.183594 L 304.941406 508.234375 C 304.933594 509.351562 305.488281 509.910156 306.609375 509.910156 L 316.839844 509.910156 C 317.136719 509.910156 317.421875 509.792969 317.632812 509.582031 C 317.84375 509.367188 317.960938 509.082031 317.960938 508.785156 L 317.859375 461.761719 C 317.859375 461.082031 317.3125 460.535156 316.636719 460.535156 L 306.484375 460.5 C 305.523438 460.496094 304.640625 461.035156 304.199219 461.890625 C 300.832031 468.445312 297.539062 474.84375 294.320312 481.078125 C 293.789062 482.105469 292.628906 482 292.148438 481.078125 C 288.644531 474.355469 285.167969 467.71875 281.726562 461.171875 C 281.5 460.742188 281.058594 460.476562 280.574219 460.480469 L 269.761719 460.574219 C 269.054688 460.582031 268.484375 461.15625 268.484375 461.863281 L 268.484375 508.75 C 268.484375 509.082031 268.617188 509.402344 268.855469 509.636719 C 269.09375 509.871094 269.414062 510.003906 269.75 510 L 280.234375 509.898438 C 280.738281 509.894531 281.148438 509.484375 281.148438 508.980469 C 281.191406 501.515625 281.066406 493.636719 280.785156 485.339844 C 280.761719 484.65625 280.816406 484.015625 280.949219 483.414062 Z M 348.164062 467.054688 C 348.3125 465.152344 348.386719 463.328125 348.394531 461.578125 C 348.394531 461.300781 348.285156 461.03125 348.089844 460.835938 C 347.894531 460.636719 347.628906 460.523438 347.351562 460.523438 L 329.265625 460.523438 C 328.367188 460.523438 327.636719 461.25 327.636719 462.148438 C 327.625 464.203125 327.636719 466.316406 327.671875 468.484375 C 327.71875 471.433594 331.363281 469.933594 331.375 472.988281 C 331.390625 481.855469 331.421875 490.148438 331.464844 497.871094 C 331.484375 500.558594 327.945312 499.074219 327.800781 501.640625 C 327.675781 503.851562 327.570312 506.128906 327.484375 508.476562 C 327.472656 508.855469 327.613281 509.222656 327.878906 509.496094 C 328.140625 509.769531 328.503906 509.921875 328.886719 509.921875 L 347.226562 509.859375 C 348.089844 509.859375 348.5 509.425781 348.460938 508.558594 C 348.347656 506.191406 348.144531 503.839844 347.851562 501.5 C 347.773438 500.910156 347.425781 500.375 346.851562 500.164062 C 345.347656 499.613281 344.578125 498.511719 344.539062 496.855469 C 344.367188 489.410156 344.421875 481.71875 344.710938 473.78125 C 344.78125 471.855469 345.421875 470.945312 347.015625 469.941406 C 348.011719 469.308594 348.085938 468.101562 348.164062 467.054688 Z M 371.085938 484.113281 C 371.628906 483.660156 372.113281 483.738281 372.535156 484.351562 C 378.402344 492.789062 384.214844 501.140625 389.96875 509.398438 C 390.171875 509.6875 390.5 509.863281 390.855469 509.863281 L 400.660156 509.921875 C 401.382812 509.925781 401.742188 509.566406 401.738281 508.839844 L 401.554688 461.363281 C 401.554688 460.917969 401.191406 460.554688 400.738281 460.550781 L 389.496094 460.515625 C 389.273438 460.511719 389.0625 460.601562 388.90625 460.757812 C 388.75 460.914062 388.664062 461.125 388.664062 461.34375 C 388.683594 468.5625 388.730469 475.316406 388.816406 481.605469 C 388.828125 482.675781 388.8125 483.714844 388.769531 484.71875 C 388.679688 486.808594 388.039062 486.996094 386.84375 485.28125 L 369.816406 460.796875 C 369.683594 460.605469 369.464844 460.492188 369.234375 460.496094 L 359.015625 460.523438 C 358.554688 460.527344 358.183594 460.898438 358.179688 461.359375 L 358.109375 509.011719 C 358.109375 509.25 358.203125 509.476562 358.375 509.644531 C 358.542969 509.8125 358.773438 509.90625 359.011719 509.90625 L 370.214844 509.828125 C 370.488281 509.828125 370.75 509.714844 370.941406 509.519531 C 371.132812 509.324219 371.238281 509.058594 371.234375 508.785156 L 370.890625 484.53125 C 370.886719 484.371094 370.957031 484.214844 371.085938 484.113281 Z M 413.003906 462 L 413.003906 508.488281 C 413.003906 509.335938 413.691406 510.023438 414.539062 510.023438 L 443.726562 510.023438 C 450.667969 510.023438 456.296875 504.410156 456.296875 497.484375 L 456.296875 473.003906 C 456.296875 466.078125 450.667969 460.464844 443.726562 460.464844 L 414.539062 460.464844 C 413.691406 460.464844 413.003906 461.152344 413.003906 462 Z M 467.683594 498.921875 C 468.128906 504.175781 471.949219 508.53125 477.101562 509.640625 C 478.167969 509.871094 480.101562 509.976562 482.90625 509.953125 C 491.59375 509.886719 500.140625 509.875 508.546875 509.925781 C 509.242188 509.929688 509.585938 509.582031 509.578125 508.886719 L 509.488281 500 C 509.484375 499.351562 509.15625 499.023438 508.503906 499.023438 L 481.933594 499.023438 C 481.128906 499.023438 480.476562 498.367188 480.476562 497.558594 L 480.476562 491.980469 C 480.476562 491.636719 480.613281 491.308594 480.855469 491.066406 C 481.097656 490.824219 481.429688 490.691406 481.769531 490.695312 L 504.5 490.933594 C 504.859375 490.9375 505.207031 490.792969 505.464844 490.53125 C 505.71875 490.269531 505.863281 489.914062 505.863281 489.539062 L 505.875 481.136719 C 505.878906 480.3125 505.210938 479.644531 504.386719 479.640625 L 481.824219 479.578125 C 480.90625 479.578125 480.445312 479.121094 480.445312 478.199219 L 480.433594 473.40625 C 480.433594 472.347656 481.289062 471.492188 482.34375 471.488281 L 508.085938 471.449219 C 508.859375 471.445312 509.484375 470.816406 509.484375 470.039062 L 509.488281 462.261719 C 509.488281 461.101562 508.914062 460.523438 507.761719 460.523438 L 469.484375 460.523438 C 468.394531 460.523438 467.507812 461.410156 467.503906 462.5 C 467.472656 474.589844 467.496094 485.984375 467.578125 496.679688 C 467.582031 497.421875 467.617188 498.171875 467.683594 498.921875 Z M 467.683594 498.921875 "/>
<path style=" stroke:none;fill-rule:nonzero;fill:rgb(100%,100%,100%);fill-opacity:1;" d="M 304.191406 228.03125 C 328.929688 238.765625 354.421875 249.714844 379.371094 260.480469 C 379.679688 260.613281 380.03125 260.617188 380.339844 260.492188 C 380.652344 260.363281 380.902344 260.117188 381.03125 259.804688 C 383.800781 253.113281 386.566406 246.425781 389.335938 239.746094 C 389.96875 238.214844 390.949219 236.988281 392.28125 236.070312 C 396.601562 233.078125 403.53125 237.023438 407.160156 239.519531 C 407.710938 239.898438 408.066406 240.402344 408.230469 241.023438 C 408.941406 243.761719 408.578125 246.601562 407.425781 249.199219 C 402.777344 259.671875 398.230469 270.046875 393.785156 280.335938 C 392.644531 282.976562 390.648438 285.113281 387.585938 285.054688 C 385.679688 285.015625 384.160156 284.339844 382.328125 283.558594 C 354.160156 271.472656 325.984375 259.308594 297.800781 247.058594 C 295.894531 246.230469 293.824219 245.808594 291.855469 246.410156 C 288.488281 247.425781 285.566406 248.210938 282 247.546875 C 273.414062 245.941406 267.113281 238.105469 267.484375 229.398438 C 267.921875 219.136719 276.695312 210.769531 287.308594 212.164062 C 295.519531 213.246094 300.675781 218.980469 302.964844 226.664062 C 303.15625 227.304688 303.5625 227.761719 304.191406 228.03125 Z M 294.925781 229.835938 C 294.925781 224.46875 290.574219 220.121094 285.210938 220.121094 C 279.84375 220.121094 275.496094 224.46875 275.496094 229.835938 C 275.496094 235.199219 279.84375 239.550781 285.210938 239.550781 C 290.574219 239.550781 294.925781 235.199219 294.925781 229.835938 Z M 294.925781 229.835938 "/>
<path style=" stroke:none;fill-rule:nonzero;fill:rgb(100%,100%,100%);fill-opacity:1;" d="M 442.949219 251.921875 C 432.320312 276.894531 421.660156 302.121094 411.011719 327.058594 C 410.847656 327.4375 411.019531 327.875 411.394531 328.039062 C 417.726562 330.828125 424.402344 333.621094 431.429688 336.414062 C 434.535156 337.652344 436.234375 339.550781 436.523438 342.113281 C 437.019531 346.488281 434.394531 351.703125 431.355469 354.75 C 429.195312 356.914062 426.933594 356.320312 424.175781 355.183594 C 413.335938 350.722656 402.355469 346.019531 391.234375 341.074219 C 388.070312 339.664062 386.035156 338.445312 386.558594 334.804688 C 386.910156 332.378906 387.898438 329.703125 388.90625 327.339844 C 400.523438 299.992188 412.28125 272.464844 424.171875 244.761719 C 424.585938 243.796875 424.875 242.707031 425.03125 241.496094 C 425.054688 241.332031 425.03125 241.164062 424.964844 241.015625 C 424.386719 239.683594 423.875 238.339844 423.433594 236.980469 C 421.109375 229.808594 423.515625 223.046875 429.078125 218.234375 C 435.101562 213.023438 444.484375 212.578125 450.664062 217.28125 C 453.328125 219.304688 455.4375 221.855469 456.996094 224.933594 C 460.175781 231.234375 458.230469 238 454.121094 243.476562 C 452.269531 245.945312 449.5 247.300781 446.566406 248.410156 C 444.882812 249.046875 443.675781 250.214844 442.949219 251.921875 Z M 450.203125 231.859375 C 450.203125 226.550781 445.902344 222.25 440.59375 222.25 C 435.289062 222.25 430.984375 226.550781 430.984375 231.859375 C 430.984375 237.167969 435.289062 241.46875 440.59375 241.46875 C 445.902344 241.46875 450.203125 237.167969 450.203125 231.859375 Z M 450.203125 231.859375 "/>
<path style=" stroke:none;fill-rule:nonzero;fill:rgb(100%,100%,100%);fill-opacity:1;" d="M 342.394531 216.285156 L 382.003906 233.425781 C 383.976562 234.277344 384.882812 236.566406 384.03125 238.539062 L 379.160156 249.792969 C 378.308594 251.761719 376.015625 252.667969 374.046875 251.816406 L 334.433594 234.675781 C 332.464844 233.820312 331.558594 231.53125 332.410156 229.558594 L 337.28125 218.308594 C 338.132812 216.335938 340.421875 215.429688 342.394531 216.285156 Z M 342.394531 216.285156 "/>
<path style=" stroke:none;fill-rule:nonzero;fill:rgb(6.666667%,6.666667%,6.666667%);fill-opacity:1;" d="M 294.925781 229.835938 C 294.925781 224.46875 290.574219 220.121094 285.210938 220.121094 C 279.84375 220.121094 275.496094 224.46875 275.496094 229.835938 C 275.496094 235.199219 279.84375 239.550781 285.210938 239.550781 C 290.574219 239.550781 294.925781 235.199219 294.925781 229.835938 Z M 294.925781 229.835938 "/>
<path style=" stroke:none;fill-rule:nonzero;fill:rgb(6.666667%,6.666667%,6.666667%);fill-opacity:1;" d="M 450.203125 231.859375 C 450.203125 226.550781 445.902344 222.25 440.59375 222.25 C 435.289062 222.25 430.984375 226.550781 430.984375 231.859375 C 430.984375 237.167969 435.289062 241.46875 440.59375 241.46875 C 445.902344 241.46875 450.203125 237.167969 450.203125 231.859375 Z M 450.203125 231.859375 "/>
<path style=" stroke:none;fill-rule:nonzero;fill:rgb(100%,100%,100%);fill-opacity:1;" d="M 299.238281 264.289062 C 310.125 268.90625 321.175781 273.414062 332.359375 277.910156 C 333.972656 278.558594 335.265625 279.65625 336.234375 281.199219 C 337.445312 283.125 337.050781 286.148438 336.230469 288.144531 C 323.882812 317.960938 311.796875 347.101562 299.96875 375.570312 C 299.640625 376.359375 299.765625 377.308594 300.144531 378.058594 C 302.363281 382.449219 304.023438 386.933594 302.789062 391.789062 C 301.027344 398.699219 296.660156 403.234375 289.691406 405.390625 C 283.414062 407.328125 276.878906 405.269531 272.460938 400.429688 C 266.871094 394.300781 265.746094 385.238281 270.589844 378.261719 C 272.382812 375.675781 274.9375 373.429688 278.253906 371.515625 C 280.570312 370.179688 281.179688 368.398438 282.351562 365.578125 C 292.222656 341.78125 302.261719 317.648438 312.46875 293.191406 C 312.644531 292.777344 312.644531 292.3125 312.46875 291.898438 C 312.296875 291.484375 311.964844 291.15625 311.550781 290.988281 C 306.179688 288.824219 301.007812 286.734375 296.03125 284.71875 C 292.335938 283.226562 289.226562 282.203125 287.023438 278.574219 C 286.59375 277.867188 286.464844 277.121094 286.636719 276.335938 C 288.015625 269.949219 290.886719 260.75 299.238281 264.289062 Z M 294.84375 388.058594 C 294.84375 382.742188 290.535156 378.429688 285.214844 378.429688 C 279.898438 378.429688 275.585938 382.742188 275.585938 388.058594 C 275.585938 393.378906 279.898438 397.691406 285.214844 397.691406 C 290.535156 397.691406 294.84375 393.378906 294.84375 388.058594 Z M 294.84375 388.058594 "/>
<path style=" stroke:none;fill-rule:nonzero;fill:rgb(100%,100%,100%);fill-opacity:1;" d="M 441.214844 279.601562 L 453.339844 284.773438 C 455.078125 285.515625 455.886719 287.527344 455.144531 289.265625 L 437.949219 329.582031 C 437.207031 331.320312 435.195312 332.132812 433.453125 331.390625 L 421.332031 326.21875 C 419.589844 325.476562 418.78125 323.464844 419.523438 321.722656 L 436.722656 281.40625 C 437.464844 279.667969 439.476562 278.859375 441.214844 279.601562 Z M 441.214844 279.601562 "/>
<path style=" stroke:none;fill-rule:nonzero;fill:rgb(100%,100%,100%);fill-opacity:1;" d="M 290.140625 288.238281 L 302.355469 293.347656 C 304.085938 294.070312 304.898438 296.058594 304.175781 297.789062 L 287.191406 338.390625 C 286.46875 340.121094 284.480469 340.9375 282.75 340.210938 L 270.535156 335.101562 C 268.804688 334.378906 267.992188 332.390625 268.714844 330.660156 L 285.699219 290.058594 C 286.421875 288.328125 288.410156 287.515625 290.140625 288.238281 Z M 290.140625 288.238281 "/>
<path style=" stroke:none;fill-rule:nonzero;fill:rgb(100%,100%,100%);fill-opacity:1;" d="M 343.851562 358.664062 C 343.75 358.796875 343.621094 358.921875 343.558594 359.070312 C 340.875 365.425781 338.363281 371.410156 336.023438 377.015625 C 334.933594 379.636719 333.953125 381.386719 333.085938 382.273438 C 329.445312 385.976562 325.28125 383.789062 321.230469 382.308594 C 316.246094 380.488281 314.203125 376.90625 316.371094 371.796875 C 320.746094 361.476562 325.148438 351.035156 329.578125 340.464844 C 330.535156 338.183594 331.394531 336.691406 332.15625 335.988281 C 335.234375 333.15625 338.300781 334.179688 341.710938 335.613281 C 371.101562 347.992188 400.359375 360.28125 429.484375 372.484375 C 430.441406 372.886719 431.683594 372.675781 432.609375 372.300781 C 436.109375 370.875 439.367188 370.390625 442.386719 370.839844 C 450.796875 372.09375 456.253906 378.40625 457.265625 386.726562 C 457.851562 391.550781 456.519531 396.15625 453.445312 399.851562 C 445.695312 409.148438 432.15625 408.296875 425.023438 398.753906 C 423.578125 396.820312 423.011719 394.578125 422.230469 392.335938 C 421.921875 391.441406 421.316406 390.808594 420.421875 390.429688 C 393.058594 378.933594 367.738281 368.292969 344.46875 358.503906 C 344.25 358.414062 343.996094 358.480469 343.851562 358.664062 Z M 449.140625 388.519531 C 449.140625 383.210938 444.835938 378.910156 439.53125 378.910156 C 434.222656 378.910156 429.921875 383.210938 429.921875 388.519531 C 429.921875 393.828125 434.222656 398.128906 439.53125 398.128906 C 444.835938 398.128906 449.140625 393.828125 449.140625 388.519531 Z M 449.140625 388.519531 "/>
<path style=" stroke:none;fill-rule:nonzero;fill:rgb(100%,100%,100%);fill-opacity:1;" d="M 349.8125 367.125 L 390.429688 384.117188 C 392.152344 384.835938 392.964844 386.816406 392.246094 388.539062 L 387.121094 400.789062 C 386.398438 402.511719 384.421875 403.324219 382.699219 402.605469 L 342.078125 385.613281 C 340.355469 384.894531 339.542969 382.914062 340.265625 381.191406 L 345.390625 368.9375 C 346.109375 367.21875 348.089844 366.40625 349.8125 367.125 Z M 349.8125 367.125 "/>
<path style=" stroke:none;fill-rule:nonzero;fill:rgb(6.666667%,6.666667%,6.666667%);fill-opacity:1;" d="M 294.84375 388.058594 C 294.84375 382.742188 290.535156 378.429688 285.214844 378.429688 C 279.898438 378.429688 275.585938 382.742188 275.585938 388.058594 C 275.585938 393.378906 279.898438 397.691406 285.214844 397.691406 C 290.535156 397.691406 294.84375 393.378906 294.84375 388.058594 Z M 294.84375 388.058594 "/>
<path style=" stroke:none;fill-rule:nonzero;fill:rgb(6.666667%,6.666667%,6.666667%);fill-opacity:1;" d="M 449.140625 388.519531 C 449.140625 383.210938 444.835938 378.910156 439.53125 378.910156 C 434.222656 378.910156 429.921875 383.210938 429.921875 388.519531 C 429.921875 393.828125 434.222656 398.128906 439.53125 398.128906 C 444.835938 398.128906 449.140625 393.828125 449.140625 388.519531 Z M 449.140625 388.519531 "/>
<path style=" stroke:none;fill-rule:nonzero;fill:rgb(100%,100%,100%);fill-opacity:1;" d="M 534.433594 508.691406 C 529.195312 494.589844 523.390625 479.515625 517.945312 465.011719 C 516.703125 461.710938 519.019531 460.753906 521.726562 460.609375 C 523.3125 460.527344 524.835938 460.398438 526.296875 460.21875 C 527.929688 460.019531 529.273438 460.472656 530.328125 461.578125 C 530.839844 462.109375 531.378906 463.214844 531.945312 464.890625 C 534.671875 472.945312 537.464844 480.875 540.320312 488.671875 C 540.632812 489.535156 541.058594 490.304688 541.59375 490.980469 C 541.679688 491.089844 541.816406 491.140625 541.949219 491.121094 C 542.085938 491.097656 542.199219 491.003906 542.246094 490.875 C 545.488281 481.773438 548.660156 472.746094 551.761719 463.785156 C 552.875 460.566406 555.125 459.941406 558.355469 460.34375 C 559.699219 460.511719 561.035156 460.667969 562.371094 460.816406 C 565.53125 461.160156 565.976562 463.40625 565.035156 465.875 C 559.5625 480.292969 554.167969 494.476562 548.855469 508.425781 C 548.5 509.355469 547.605469 509.96875 546.609375 509.960938 L 536.109375 509.863281 C 535.363281 509.859375 534.695312 509.390625 534.433594 508.691406 Z M 534.433594 508.691406 "/>
<path style=" stroke:none;fill-rule:nonzero;fill:rgb(100%,100%,100%);fill-opacity:1;" d="M 159.035156 462.390625 C 159.039062 461.300781 159.921875 460.421875 161.011719 460.425781 L 190.269531 460.476562 C 197.195312 460.488281 202.800781 466.125 202.785156 473.058594 L 202.746094 497.511719 C 202.730469 504.445312 197.105469 510.058594 190.179688 510.046875 L 160.921875 509.996094 C 159.832031 509.992188 158.953125 509.109375 158.953125 508.019531 Z M 189.796875 472.46875 C 189.792969 471.835938 189.277344 471.324219 188.644531 471.328125 L 172.957031 471.382812 C 172.324219 471.382812 171.8125 471.898438 171.816406 472.53125 L 171.90625 498.101562 C 171.90625 498.734375 172.421875 499.246094 173.054688 499.242188 L 188.742188 499.1875 C 189.375 499.183594 189.886719 498.671875 189.882812 498.039062 Z M 189.796875 472.46875 "/>
<path style=" stroke:none;fill-rule:nonzero;fill:rgb(100%,100%,100%);fill-opacity:1;" d="M 257.136719 498 C 257.136719 504.617188 251.769531 509.980469 245.15625 509.980469 L 225.644531 509.980469 C 219.027344 509.980469 213.664062 504.617188 213.664062 498 L 213.664062 472.511719 C 213.664062 465.894531 219.027344 460.53125 225.644531 460.53125 L 245.15625 460.53125 C 251.769531 460.53125 257.136719 465.894531 257.136719 472.511719 Z M 244.554688 472.324219 C 244.554688 471.8125 244.140625 471.398438 243.628906 471.398438 L 227.5 471.398438 C 226.988281 471.398438 226.574219 471.8125 226.574219 472.324219 L 226.574219 498.324219 C 226.574219 498.835938 226.988281 499.25 227.5 499.25 L 243.628906 499.25 C 244.140625 499.25 244.554688 498.835938 244.554688 498.324219 Z M 244.554688 472.324219 "/>
<path style=" stroke:none;fill-rule:nonzero;fill:rgb(100%,100%,100%);fill-opacity:1;" d="M 280.949219 483.414062 C 280.816406 484.015625 280.761719 484.65625 280.785156 485.339844 C 281.066406 493.636719 281.191406 501.515625 281.148438 508.980469 C 281.148438 509.484375 280.738281 509.894531 280.234375 509.898438 L 269.75 510 C 269.414062 510.003906 269.09375 509.871094 268.855469 509.636719 C 268.617188 509.402344 268.484375 509.082031 268.484375 508.75 L 268.484375 461.863281 C 268.484375 461.15625 269.054688 460.582031 269.761719 460.574219 L 280.574219 460.480469 C 281.058594 460.476562 281.5 460.742188 281.726562 461.171875 C 285.167969 467.71875 288.644531 474.355469 292.148438 481.078125 C 292.628906 482 293.789062 482.105469 294.320312 481.078125 C 297.539062 474.84375 300.832031 468.445312 304.199219 461.890625 C 304.640625 461.035156 305.523438 460.496094 306.484375 460.5 L 316.636719 460.535156 C 317.3125 460.535156 317.859375 461.082031 317.859375 461.761719 L 317.960938 508.785156 C 317.960938 509.082031 317.84375 509.367188 317.632812 509.582031 C 317.421875 509.792969 317.136719 509.910156 316.839844 509.910156 L 306.609375 509.910156 C 305.488281 509.910156 304.933594 509.351562 304.941406 508.234375 L 305.128906 484.183594 C 305.132812 483.742188 304.917969 483.566406 304.484375 483.65625 C 304.328125 483.683594 304.152344 483.871094 303.953125 484.210938 C 301.683594 488.101562 299.746094 491.910156 298.144531 495.628906 C 297.53125 497.050781 296.914062 498.027344 296.296875 498.566406 C 293.765625 500.761719 290.351562 499.601562 288.921875 496.78125 C 286.953125 492.90625 285.058594 489.167969 283.230469 485.566406 C 282.792969 484.703125 282.292969 483.925781 281.730469 483.234375 C 281.621094 483.101562 281.449219 483.042969 281.285156 483.082031 C 281.117188 483.121094 280.988281 483.25 280.949219 483.414062 Z M 280.949219 483.414062 "/>
<path style=" stroke:none;fill-rule:nonzero;fill:rgb(100%,100%,100%);fill-opacity:1;" d="M 348.164062 467.054688 C 348.085938 468.101562 348.011719 469.308594 347.015625 469.941406 C 345.421875 470.945312 344.78125 471.855469 344.710938 473.78125 C 344.421875 481.71875 344.367188 489.410156 344.539062 496.855469 C 344.578125 498.511719 345.347656 499.613281 346.851562 500.164062 C 347.425781 500.375 347.773438 500.910156 347.851562 501.5 C 348.144531 503.839844 348.347656 506.191406 348.460938 508.558594 C 348.5 509.425781 348.089844 509.859375 347.226562 509.859375 L 328.886719 509.921875 C 328.503906 509.921875 328.140625 509.769531 327.878906 509.496094 C 327.613281 509.222656 327.472656 508.855469 327.484375 508.476562 C 327.570312 506.128906 327.675781 503.851562 327.800781 501.640625 C 327.945312 499.074219 331.484375 500.558594 331.464844 497.871094 C 331.421875 490.148438 331.390625 481.855469 331.375 472.988281 C 331.363281 469.933594 327.71875 471.433594 327.671875 468.484375 C 327.636719 466.316406 327.625 464.203125 327.636719 462.148438 C 327.636719 461.25 328.367188 460.523438 329.265625 460.523438 L 347.351562 460.523438 C 347.628906 460.523438 347.894531 460.636719 348.089844 460.835938 C 348.285156 461.03125 348.394531 461.300781 348.394531 461.578125 C 348.386719 463.328125 348.3125 465.152344 348.164062 467.054688 Z M 348.164062 467.054688 "/>
<path style=" stroke:none;fill-rule:nonzero;fill:rgb(100%,100%,100%);fill-opacity:1;" d="M 371.085938 484.113281 C 370.957031 484.214844 370.886719 484.371094 370.890625 484.53125 L 371.234375 508.785156 C 371.238281 509.058594 371.132812 509.324219 370.941406 509.519531 C 370.75 509.714844 370.488281 509.828125 370.214844 509.828125 L 359.011719 509.90625 C 358.773438 509.90625 358.542969 509.8125 358.375 509.644531 C 358.203125 509.476562 358.109375 509.25 358.109375 509.011719 L 358.179688 461.359375 C 358.183594 460.898438 358.554688 460.527344 359.015625 460.523438 L 369.234375 460.496094 C 369.464844 460.492188 369.683594 460.605469 369.816406 460.796875 L 386.84375 485.28125 C 388.039062 486.996094 388.679688 486.808594 388.769531 484.71875 C 388.8125 483.714844 388.828125 482.675781 388.816406 481.605469 C 388.730469 475.316406 388.683594 468.5625 388.664062 461.34375 C 388.664062 461.125 388.75 460.914062 388.90625 460.757812 C 389.0625 460.601562 389.273438 460.511719 389.496094 460.515625 L 400.738281 460.550781 C 401.191406 460.554688 401.554688 460.917969 401.554688 461.363281 L 401.738281 508.839844 C 401.742188 509.566406 401.382812 509.925781 400.660156 509.921875 L 390.855469 509.863281 C 390.5 509.863281 390.171875 509.6875 389.96875 509.398438 C 384.214844 501.140625 378.402344 492.789062 372.535156 484.351562 C 372.113281 483.738281 371.628906 483.660156 371.085938 484.113281 Z M 371.085938 484.113281 "/>
<path style=" stroke:none;fill-rule:nonzero;fill:rgb(100%,100%,100%);fill-opacity:1;" d="M 413.003906 462 C 413.003906 461.152344 413.691406 460.464844 414.539062 460.464844 L 443.726562 460.464844 C 450.667969 460.464844 456.296875 466.078125 456.296875 473.003906 L 456.296875 497.484375 C 456.296875 504.410156 450.667969 510.023438 443.726562 510.023438 L 414.539062 510.023438 C 413.691406 510.023438 413.003906 509.335938 413.003906 508.488281 Z M 425.535156 497.871094 C 425.53125 498.585938 426.109375 499.167969 426.824219 499.175781 L 442.238281 499.265625 C 442.585938 499.269531 442.917969 499.132812 443.164062 498.890625 C 443.410156 498.648438 443.546875 498.316406 443.550781 497.96875 L 443.625 472.710938 C 443.625 472.363281 443.488281 472.03125 443.246094 471.789062 C 443.003906 471.542969 442.671875 471.40625 442.324219 471.40625 L 426.894531 471.386719 C 426.550781 471.382812 426.21875 471.519531 425.972656 471.765625 C 425.726562 472.007812 425.589844 472.339844 425.589844 472.683594 Z M 425.535156 497.871094 "/>
<path style=" stroke:none;fill-rule:nonzero;fill:rgb(100%,100%,100%);fill-opacity:1;" d="M 467.683594 498.921875 C 467.617188 498.171875 467.582031 497.421875 467.578125 496.679688 C 467.496094 485.984375 467.472656 474.589844 467.503906 462.5 C 467.507812 461.410156 468.394531 460.523438 469.484375 460.523438 L 507.761719 460.523438 C 508.914062 460.523438 509.488281 461.101562 509.488281 462.261719 L 509.484375 470.039062 C 509.484375 470.816406 508.859375 471.445312 508.085938 471.449219 L 482.34375 471.488281 C 481.289062 471.492188 480.433594 472.347656 480.433594 473.40625 L 480.445312 478.199219 C 480.445312 479.121094 480.90625 479.578125 481.824219 479.578125 L 504.386719 479.640625 C 505.210938 479.644531 505.878906 480.3125 505.875 481.136719 L 505.863281 489.539062 C 505.863281 489.914062 505.71875 490.269531 505.464844 490.53125 C 505.207031 490.792969 504.859375 490.9375 504.5 490.933594 L 481.769531 490.695312 C 481.429688 490.691406 481.097656 490.824219 480.855469 491.066406 C 480.613281 491.308594 480.476562 491.636719 480.476562 491.980469 L 480.476562 497.558594 C 480.476562 498.367188 481.128906 499.023438 481.933594 499.023438 L 508.503906 499.023438 C 509.15625 499.023438 509.484375 499.351562 509.488281 500 L 509.578125 508.886719 C 509.585938 509.582031 509.242188 509.929688 508.546875 509.925781 C 500.140625 509.875 491.59375 509.886719 482.90625 509.953125 C 480.101562 509.976562 478.167969 509.871094 477.101562 509.640625 C 471.949219 508.53125 468.128906 504.175781 467.683594 498.921875 Z M 467.683594 498.921875 "/>
<path style=" stroke:none;fill-rule:nonzero;fill:rgb(6.666667%,6.666667%,6.666667%);fill-opacity:1;" d="M 172.957031 471.382812 L 188.644531 471.328125 C 189.277344 471.324219 189.792969 471.835938 189.796875 472.46875 L 189.882812 498.039062 C 189.886719 498.671875 189.375 499.183594 188.742188 499.1875 L 173.054688 499.242188 C 172.421875 499.246094 171.90625 498.734375 171.90625 498.101562 L 171.816406 472.53125 C 171.8125 471.898438 172.324219 471.382812 172.957031 471.382812 Z M 172.957031 471.382812 "/>
<path style=" stroke:none;fill-rule:nonzero;fill:rgb(6.666667%,6.666667%,6.666667%);fill-opacity:1;" d="M 227.5 471.398438 L 243.628906 471.398438 C 244.140625 471.398438 244.554688 471.8125 244.554688 472.324219 L 244.554688 498.324219 C 244.554688 498.835938 244.140625 499.25 243.628906 499.25 L 227.5 499.25 C 226.988281 499.25 226.574219 498.835938 226.574219 498.324219 L 226.574219 472.324219 C 226.574219 471.8125 226.988281 471.398438 227.5 471.398438 Z M 227.5 471.398438 "/>
<path style=" stroke:none;fill-rule:nonzero;fill:rgb(6.666667%,6.666667%,6.666667%);fill-opacity:1;" d="M 425.535156 497.871094 L 425.589844 472.683594 C 425.589844 472.339844 425.726562 472.007812 425.972656 471.765625 C 426.21875 471.519531 426.550781 471.382812 426.894531 471.386719 L 442.324219 471.40625 C 442.671875 471.40625 443.003906 471.542969 443.246094 471.789062 C 443.488281 472.03125 443.625 472.363281 443.625 472.710938 L 443.550781 497.96875 C 443.546875 498.316406 443.410156 498.648438 443.164062 498.890625 C 442.917969 499.132812 442.585938 499.269531 442.238281 499.265625 L 426.824219 499.175781 C 426.109375 499.167969 425.53125 498.585938 425.535156 497.871094 Z M 425.535156 497.871094 "/>
</g>
</svg>
